<?xml version="1.0" encoding="UTF-8" standalone="no"?>
<!-- Created with Inkscape (http://www.inkscape.org/) -->

<svg
   xmlns:dc="http://purl.org/dc/elements/1.1/"
   xmlns:cc="http://creativecommons.org/ns#"
   xmlns:rdf="http://www.w3.org/1999/02/22-rdf-syntax-ns#"
   xmlns:svg="http://www.w3.org/2000/svg"
   xmlns="http://www.w3.org/2000/svg"
   xmlns:sodipodi="http://sodipodi.sourceforge.net/DTD/sodipodi-0.dtd"
   xmlns:inkscape="http://www.inkscape.org/namespaces/inkscape"
   version="1.0"
   width="477.63"
   height="477.63"
   id="svg2"
   inkscape:version="0.47 r22583"
   sodipodi:docname="lemmling-cartoon-turtle.svg">
  <metadata
     id="metadata3396">
    <rdf:RDF>
      <cc:Work
         rdf:about="">
        <dc:format>image/svg+xml</dc:format>
        <dc:type
           rdf:resource="http://purl.org/dc/dcmitype/StillImage" />
      </cc:Work>
    </rdf:RDF>
  </metadata>
  <sodipodi:namedview
     pagecolor="#ffffff"
     bordercolor="#666666"
     borderopacity="1"
     objecttolerance="10"
     gridtolerance="10"
     guidetolerance="10"
     inkscape:pageopacity="0"
     inkscape:pageshadow="2"
     inkscape:window-width="1280"
     inkscape:window-height="923"
     id="namedview3394"
     showgrid="false"
     inkscape:zoom="1.0177241"
     inkscape:cx="238.8166"
     inkscape:cy="273.15852"
     inkscape:window-x="0"
     inkscape:window-y="24"
     inkscape:window-maximized="1"
     inkscape:current-layer="svg2" />
  <defs
     id="defs4" />
  <g
     id="g3400"
     transform="translate(0,-26.87001)">
    <path
       style="fill:#698000;fill-opacity:1;fill-rule:nonzero;stroke:#000000;stroke-width:3.99999976;stroke-linecap:round;stroke-linejoin:round;stroke-miterlimit:4;stroke-opacity:1;stroke-dasharray:none"
       id="path3183"
       d="m 374.99477,326.76219 c -12.60323,17.31431 -35.14651,25.70568 -50.35183,18.74266 -15.20533,-6.96303 -17.31475,-26.6437 -4.71152,-43.95801 12.60322,-17.31432 35.1465,-25.70569 50.35183,-18.74267 15.20532,6.96303 17.31474,26.6437 4.71152,43.95802 z" />
    <path
       style="fill:#000000;fill-opacity:0.31372549;fill-rule:nonzero;stroke:none"
       id="path3294"
       d="m 379.66169,290.84875 c 0.55796,7.73961 -2.10426,16.59202 -8.15625,24.90625 -12.59672,17.30538 -35.17752,25.70944 -50.375,18.75 -4.07492,-1.86604 -7.1818,-4.65699 -9.34375,-8.0625 0.59503,8.38302 4.93826,15.44231 12.84375,19.0625 15.19748,6.95944 37.77828,-1.44462 50.375,-18.75 9.21714,-12.66251 10.55289,-26.61085 4.65625,-35.90625 z" />
    <path
       style="fill:#698000;fill-opacity:1;fill-rule:nonzero;stroke:#000000;stroke-width:3.99999976;stroke-linecap:round;stroke-linejoin:round;stroke-miterlimit:4;stroke-opacity:1;stroke-dasharray:none"
       id="path3181"
       d="m 95.192224,326.76219 c 12.603226,17.31431 35.146506,25.70568 50.351826,18.74266 15.20533,-6.96303 17.31475,-26.6437 4.71152,-43.95801 -12.60322,-17.31432 -35.1465,-25.70569 -50.351831,-18.74267 -15.205321,6.96303 -17.31474,26.6437 -4.711515,43.95802 z" />
    <path
       style="fill:#000000;fill-opacity:0.31372549;fill-rule:nonzero;stroke:none"
       id="path3299"
       d="m 87.005439,302.6925 c -0.31268,7.53543 2.35506,16.04989 8.1875,24.0625 12.596731,17.30538 35.146271,25.70944 50.343751,18.75 12.58159,-5.76153 16.1829,-20.23871 9.90625,-34.875 -0.36264,8.73936 -4.7454,16.13787 -12.90625,19.875 -15.19748,6.95944 -37.74702,-1.44462 -50.343751,-18.75 -2.16823,-2.97872 -3.8825,-6.01941 -5.1875,-9.0625 z" />
    <path
       style="fill:#004000;fill-opacity:1;fill-rule:nonzero;stroke:#000000;stroke-width:4;stroke-linecap:round;stroke-linejoin:round;stroke-miterlimit:4;stroke-opacity:1;stroke-dasharray:none"
       id="path2383"
       d="m 364.77494,343.11254 c 0,52.67278 -57.0739,95.37251 -127.47812,95.37251 -70.40422,0 -127.47812,-42.69973 -127.47812,-95.37251 0,-52.67278 57.0739,-95.37251 127.47812,-95.37251 70.40422,0 127.47812,42.69973 127.47812,95.37251 z" />
    <path
       style="fill:#808000;fill-opacity:1;fill-rule:nonzero;stroke:#000000;stroke-width:4;stroke-linecap:round;stroke-linejoin:round;stroke-miterlimit:4;stroke-opacity:1;stroke-dasharray:none"
       id="path2432"
       d="m 110.15625,336.36503 c -0.20831,2.22931 -0.34375,4.48107 -0.34375,6.75 0,52.67278 57.06454,95.37499 127.46875,95.375 70.40422,0 127.50001,-42.70222 127.5,-95.375 0,-2.26893 -0.13544,-4.52069 -0.34375,-6.75 -4.62754,49.52355 -59.78476,88.625 -127.15625,88.625 -67.37148,-10e-6 -122.49745,-39.10145 -127.125,-88.625 z" />
    <path
       style="fill:#000000;fill-opacity:0.31372549;fill-rule:nonzero;stroke:none"
       id="path3234"
       d="m 354.38044,305.38 c 1.88634,6.52323 2.90625,13.27516 2.90625,20.21875 0,52.64563 -57.13208,95.375 -127.5,95.375 -52.4509,1e-5 -97.50392,-23.73429 -117.0625,-57.625 12.42211,42.92889 63.48165,75.12501 124.5625,75.125 70.36792,0 127.5,-42.72937 127.5,-95.375 0,-13.40459 -3.72512,-26.14181 -10.40625,-37.71875 z" />
    <path
       style="fill:#698000;fill-opacity:1;fill-rule:evenodd;stroke:#000000;stroke-width:4;stroke-linecap:butt;stroke-linejoin:miter;stroke-miterlimit:4;stroke-opacity:1;stroke-dasharray:none"
       id="path3175"
       d="m 336.22419,393.36718 c 20.5,15.5 95.5,-28.5 131.5,-14 36,14.5 -59.5,82.5 -113.5,74.5 -54,-8 -37,-50.5 -37,-50.5 7.55426,-16.99709 19,-10 19,-10 z" />
    <path
       style="fill:#698000;fill-opacity:1;fill-rule:nonzero;stroke:#000000;stroke-width:4;stroke-linecap:round;stroke-linejoin:round;stroke-miterlimit:4;stroke-opacity:1"
       id="path3157"
       d="m 298.67516,410.47136 c 0,33.18586 -50.19059,65.15548 -60.11931,65.15548 -10.55705,0 -60.1193,-31.96962 -60.1193,-65.15548 0,-33.18586 26.93345,-60.11931 60.1193,-60.11931 33.18586,0 60.11931,26.93345 60.11931,60.11931 z" />
    <path
       style="fill:#ffffff;fill-opacity:1;fill-rule:nonzero;stroke:#000000;stroke-width:4;stroke-linecap:round;stroke-linejoin:round;stroke-miterlimit:4;stroke-opacity:1;stroke-dasharray:none"
       id="path3159"
       d="m 233.80007,403.22301 c 0,9.73491 -7.8917,17.62661 -17.6266,17.62661 -9.73491,0 -17.62661,-7.8917 -17.62661,-17.62661 0,-9.73491 7.8917,-17.6266 17.62661,-17.6266 9.7349,0 17.6266,7.89169 17.6266,17.6266 z" />
    <path
       style="fill:#000000;fill-opacity:1;fill-rule:nonzero;stroke:none"
       id="path3163"
       d="m 226.87533,408.85709 c 0,3.12907 -2.53662,5.66569 -5.66569,5.66569 -3.12908,0 -5.6657,-2.53662 -5.6657,-5.66569 0,-3.12908 2.53662,-5.6657 5.6657,-5.6657 3.12907,0 5.66569,2.53662 5.66569,5.6657 z" />
    <path
       style="fill:#000000;fill-opacity:0.31372549;fill-rule:nonzero;stroke:none"
       id="path3289"
       d="m 297.09919,396.88 c 0.0366,0.86056 0.0625,1.72423 0.0625,2.59375 10e-6,33.18585 -50.16503,65.15625 -60.09375,65.15625 -9.45662,1e-5 -50.2316,-25.64352 -58.625,-54.84375 -0.003,0.22975 0,0.45714 0,0.6875 0,33.18586 49.56794,65.15626 60.125,65.15625 9.92872,0 60.09376,-31.9704 60.09375,-65.15625 0,-4.67326 -0.55204,-9.22622 -1.5625,-13.59375 z" />
    <path
       style="fill:#808000;fill-opacity:1;fill-rule:nonzero;stroke:#000000;stroke-width:4;stroke-linecap:round;stroke-linejoin:round;stroke-miterlimit:4;stroke-opacity:1"
       id="path3168"
       d="m 239.06794,434.34875 c -12.70295,0.0118 -28.85513,8.78613 -34.40625,21.28125 13.67432,12.07473 28.64476,20.00001 33.90625,20 5.05132,0 20.5175,-8.28128 34.5,-20.78125 -5.75315,-12.07422 -21.29705,-20.51178 -34,-20.5 z" />
    <path
       style="fill:#000000;fill-opacity:0.31372549;fill-rule:nonzero;stroke:none"
       id="path3229"
       d="m 259.09919,440.34875 c -2.65796,15.53534 -12.48148,28.28754 -25.59375,34.03125 2.10888,0.79547 3.85006,1.25 5.0625,1.25 5.05132,0 20.5175,-8.28128 34.5,-20.78125 -2.80722,-5.89155 -7.96685,-10.89926 -13.96875,-14.5 z" />
    <path
       style="fill:#000000;fill-opacity:0.31372549;fill-rule:evenodd;stroke:none"
       id="path3239"
       d="m 473.69294,383.505 c -12.08093,24.8483 -78.00538,63.51772 -119.46875,57.375 -14.58588,-2.16087 -23.97849,-6.85149 -29.9375,-12.53125 -5.86087,-14.24179 0.48223,-23.75244 0.48223,-23.75244 5.20761,-11.71709 14.04223,-7.43273 17.92402,-6.49756 l 0,-1.96875 c -2.52073,-0.52349 -4.70009,-1.41272 -6.46875,-2.75 0,0 -2.18402,-1.35414 -5.28125,-1.4375 -0.24888,-0.007 -0.49003,-0.011 -0.75,0 -3.89961,0.16466 -8.98506,2.47419 -12.96875,11.4375 0,0 -1.25798,3.17686 -2,7.9375 -0.0586,0.37582 -0.10506,0.76127 -0.15625,1.15625 -0.0584,0.44727 -0.10969,0.87396 -0.15625,1.34375 -0.0869,0.87999 -0.15512,1.80216 -0.1875,2.75 -0.0158,0.46191 -0.0314,0.93082 -0.0312,1.40625 1.4e-4,0.49516 0.0117,0.99207 0.0312,1.5 0.0157,0.40782 0.033,0.80382 0.0625,1.21875 0.077,1.10695 0.21644,2.23023 0.40625,3.375 0.0625,0.37459 0.11134,0.7477 0.1875,1.125 0.0444,0.2213 0.10692,0.4342 0.15625,0.65625 0.0828,0.37085 0.18419,0.75257 0.28125,1.125 0.0569,0.21906 0.12552,0.43681 0.1875,0.65625 0.0612,0.21617 0.12119,0.43983 0.1875,0.65625 0.0543,0.17752 0.0984,0.35364 0.15625,0.53125 0.12674,0.38897 0.26205,0.76735 0.40625,1.15625 0.23088,0.62485 0.47138,1.25268 0.75,1.875 0.2848,0.63613 0.5993,1.2446 0.9375,1.875 0.32314,0.60232 0.68743,1.21818 1.0625,1.8125 0.0368,0.0582 0.0564,0.12937 0.0937,0.1875 0.29251,0.45636 0.61247,0.89371 0.9375,1.34375 0.12178,0.16833 0.24854,0.33267 0.375,0.5 0.40378,0.53518 0.82796,1.07021 1.28125,1.59375 0.5095,0.58846 1.0497,1.14782 1.625,1.71875 1.14387,1.13518 2.41946,2.23311 3.84375,3.28125 1.38279,1.0176 2.92157,1.99261 4.59375,2.90625 0.11411,0.0623 0.22823,0.12572 0.34375,0.1875 0.8006,0.42839 1.63022,0.84875 2.5,1.25 5.09058,2.34842 11.35798,4.22433 19.125,5.375 49.93619,7.39795 135.36279,-50.19805 119.46875,-70.375 z" />
    <path
       style="fill:#698000;fill-opacity:1;fill-rule:evenodd;stroke:#000000;stroke-width:4;stroke-linecap:butt;stroke-linejoin:miter;stroke-miterlimit:4;stroke-opacity:1;stroke-dasharray:none"
       id="path3244"
       d="m 141.40902,393.36718 c -20.5,15.5 -95.500001,-28.5 -131.500001,-14 -36.000003,14.5 59.5,82.5 113.500001,74.5 54,-8 37,-50.5 37,-50.5 -7.55426,-16.99709 -19,-10 -19,-10 z" />
    <path
       style="fill:#000000;fill-opacity:0.31372549;fill-rule:evenodd;stroke:none"
       id="path3246"
       d="m 3.940266,383.505 c 12.080933,24.8483 78.005383,63.51772 119.468754,57.375 28.01337,-4.15013 36.91579,-17.59314 39,-29.5625 1.98188,12.69591 0.26608,36.7453 -39,42.5625 C 73.472829,461.27795 -11.953774,403.68195 3.940266,383.505 z" />
    <path
       style="fill:#ffffff;fill-opacity:0.15686275;fill-rule:evenodd;stroke:#000000;stroke-width:4;stroke-linecap:butt;stroke-linejoin:miter;stroke-miterlimit:4;stroke-opacity:1;stroke-dasharray:none"
       id="path3274"
       d="m 221.22419,332.36718 65,-2 14,-31.5 -41.5,-28 -44,32 6.5,29.5 z" />
    <path
       style="fill:#ffffff;fill-opacity:0.19607843;fill-rule:evenodd;stroke:#000000;stroke-width:4;stroke-linecap:butt;stroke-linejoin:miter;stroke-miterlimit:4;stroke-opacity:1;stroke-dasharray:none"
       id="path3278"
       d="m 153.06794,271.5675 c -14.94282,9.85409 -26.79774,22.26867 -34.28125,36.34375 l 10.96875,20 30.75,-13.90625 -4.3125,-42.28125 -3.125,-0.15625 z" />
    <path
       style="fill:#ffffff;fill-opacity:0.07843137;fill-rule:evenodd;stroke:#000000;stroke-width:4;stroke-linecap:butt;stroke-linejoin:miter;stroke-miterlimit:4;stroke-opacity:1;stroke-dasharray:none"
       id="path3285"
       d="m 273.22419,280.86718 26.5,17.5 14,-6.5 -8,-20 -25,-8 -7.5,17 z" />
    <path
       style="fill:#ffffff;fill-opacity:0.07843137;fill-rule:evenodd;stroke:#000000;stroke-width:4;stroke-linecap:butt;stroke-linejoin:miter;stroke-miterlimit:4;stroke-opacity:1;stroke-dasharray:none"
       id="path3287"
       d="m 129.21875,329.36503 -14.5,17 4.40625,19.03125 c 1.46783,2.71318 3.09222,5.35516 4.875,7.9375 l 28.71875,8.53125 -1,-27.5 -22.5,-25 z" />
    <path
       style="fill:#ffffff;fill-opacity:1;fill-rule:nonzero;stroke:#000000;stroke-width:4;stroke-linecap:round;stroke-linejoin:round;stroke-miterlimit:4;stroke-opacity:1;stroke-dasharray:none"
       id="path3304"
       d="m 278.70135,403.22301 c 0,9.73491 -7.8917,17.62661 -17.6266,17.62661 -9.73491,0 -17.62661,-7.8917 -17.62661,-17.62661 0,-9.73491 7.8917,-17.6266 17.62661,-17.6266 9.7349,0 17.6266,7.89169 17.6266,17.6266 z" />
    <path
       style="fill:#000000;fill-opacity:1;fill-rule:nonzero;stroke:none"
       id="path3306"
       d="m 261.87712,408.85709 c 0,3.12907 -2.53661,5.66569 -5.66569,5.66569 -3.12908,0 -5.6657,-2.53662 -5.6657,-5.66569 0,-3.12908 2.53662,-5.6657 5.6657,-5.6657 3.12908,0 5.66569,2.53662 5.66569,5.6657 z" />
    <path
       style="fill:#ffffff;fill-opacity:0.07843137;fill-rule:evenodd;stroke:#000000;stroke-width:4;stroke-linecap:butt;stroke-linejoin:miter;stroke-miterlimit:4;stroke-opacity:1;stroke-dasharray:none"
       id="path3222"
       d="m 318,373.63 28,-7 -11.5,-37 -24.5,-1.5 -16.5,20 24.5,25.5 z" />
    <path
       style="fill:#ffffff;fill-opacity:0.07843137;fill-rule:evenodd;stroke:#000000;stroke-width:4;stroke-linecap:butt;stroke-linejoin:miter;stroke-miterlimit:4;stroke-opacity:1;stroke-dasharray:none"
       id="path3224"
       d="m 220,332.13 -27,19 -16,-12.5 13,-31.5 24.5,-4.5 5.5,29.5 z" />
    <path
       style="fill:#ffffff;fill-opacity:0.11764706;fill-rule:evenodd;stroke:#000000;stroke-width:4;stroke-linecap:butt;stroke-linejoin:miter;stroke-miterlimit:4;stroke-opacity:1;stroke-dasharray:none"
       id="path3228"
       d="m 234,247.77128 c -17.05038,0.32318 -33.24636,3.17214 -48,8.03125 l -4,14.8125 33.5,8 27,-23 -8.21875,-7.84375 c -0.0938,0.002 -0.18754,-0.002 -0.28125,0 z" />
  </g>
</svg>
