<?xml version="1.0" encoding="UTF-8" standalone="no"?>
<!-- Created with Inkscape (http://www.inkscape.org/) -->

<svg
   xmlns:dc="http://purl.org/dc/elements/1.1/"
   xmlns:cc="http://creativecommons.org/ns#"
   xmlns:rdf="http://www.w3.org/1999/02/22-rdf-syntax-ns#"
   xmlns:svg="http://www.w3.org/2000/svg"
   xmlns="http://www.w3.org/2000/svg"
   xmlns:sodipodi="http://sodipodi.sourceforge.net/DTD/sodipodi-0.dtd"
   xmlns:inkscape="http://www.inkscape.org/namespaces/inkscape"
   version="1.0"
   width="254.03"
   height="254.03"
   id="svg2"
   inkscape:version="0.47 r22583"
   sodipodi:docname="lemmling-cartoon-sheep.svg">
  <metadata
     id="metadata3314">
    <rdf:RDF>
      <cc:Work
         rdf:about="">
        <dc:format>image/svg+xml</dc:format>
        <dc:type
           rdf:resource="http://purl.org/dc/dcmitype/StillImage" />
      </cc:Work>
    </rdf:RDF>
  </metadata>
  <sodipodi:namedview
     pagecolor="#ffffff"
     bordercolor="#666666"
     borderopacity="1"
     objecttolerance="10"
     gridtolerance="10"
     guidetolerance="10"
     inkscape:pageopacity="0"
     inkscape:pageshadow="2"
     inkscape:window-width="640"
     inkscape:window-height="504"
     id="namedview3312"
     showgrid="false"
     inkscape:zoom="0.92902414"
     inkscape:cx="122.03502"
     inkscape:cy="127.015"
     inkscape:window-x="0"
     inkscape:window-y="24"
     inkscape:window-maximized="0"
     inkscape:current-layer="svg2" />
  <defs
     id="defs4" />
  <g
     transform="translate(-224.25804,-428.637)"
     id="layer1">
    <path
       d="m 471.30978,550.70588 c 0.0198,66.30841 -53.7283,120.07248 -120.03675,120.07248 -66.30844,0 -120.0565,-53.76407 -120.03674,-120.07248 -0.0198,-66.30841 53.7283,-120.07248 120.03674,-120.07248 66.30845,0 120.05651,53.76407 120.03675,120.07248 z"
       id="path2383"
       style="fill:#ffffff;fill-opacity:1;fill-rule:nonzero;stroke:#000000;stroke-width:4;stroke-linecap:round;stroke-linejoin:round;stroke-miterlimit:4;stroke-opacity:1;stroke-dasharray:none" />
    <path
       d="m 111.6875,107.53125 c -55.318279,1.12106 -79.187498,37.34389 -79.1875,81.8125 0,19.85112 10.824503,38.07474 25.15625,52.25 C 27.132065,228.65938 3.0579226,203.45455 -8.375,172.1875 c 2.9078698,63.6827 55.50938,114.5 119.90625,114.5 66.26029,10e-6 120.03125,-53.77101 120.03125,-120.03125 0,-14.46772 -2.55222,-28.33997 -7.25,-41.1875 0.0841,1.84281 0.15625,3.69904 0.15625,5.5625 0,32.53736 -12.98751,62.06161 -34.03125,83.6875 3.60583,-7.98795 5.75,-16.52125 5.75,-25.375 0,-45.17446 -24.62116,-81.8125 -81.84375,-81.8125 -0.89395,0 -1.77818,-0.0178 -2.65625,0 z"
       transform="translate(239.73628,384.06586)"
       id="path3221"
       style="fill:#000000;fill-opacity:0.31372549;fill-rule:nonzero;stroke:none" />
    <path
       d="m 359.45331,671.27549 c 0,9.09078 14.66533,9.38135 32.73511,9.38135 18.06978,0 32.73512,0.69349 32.73512,-9.38135 0,-17.71594 -14.66534,-32.0941 -32.73512,-32.0941 -18.06978,0 -32.73511,14.37816 -32.73511,32.0941 z"
       id="path3172"
       style="fill:#333333;fill-opacity:1;fill-rule:nonzero;stroke:#000000;stroke-width:3.99999976;stroke-linecap:round;stroke-linejoin:round;stroke-miterlimit:4;stroke-opacity:1" />
    <path
       d="m 344.4555,671.27549 c 0,9.09078 -14.66533,9.38135 -32.73511,9.38135 -18.06978,0 -32.73512,0.69349 -32.73512,-9.38135 0,-17.71594 14.66534,-32.0941 32.73512,-32.0941 18.06978,0 32.73511,14.37816 32.73511,32.0941 z"
       id="path3329"
       style="fill:#333333;fill-opacity:1;fill-rule:nonzero;stroke:#000000;stroke-width:3.99999976;stroke-linecap:round;stroke-linejoin:round;stroke-miterlimit:4;stroke-opacity:1" />
    <path
       d="m 299.12996,680.0559 c 0,-16.36756 9.44283,-26.43991 9.44283,-26.43991 0,0 -3.77713,13.84948 -3.14761,26.43991 l -6.29522,0 z"
       id="path3331"
       style="fill:#000000;fill-opacity:0.31372549;fill-rule:evenodd;stroke:#000000;stroke-width:4;stroke-linecap:butt;stroke-linejoin:round;stroke-miterlimit:4;stroke-opacity:1;stroke-dasharray:none" />
    <path
       d="m 353.05276,623.66426 c -46.40343,-3.34987 -78.50119,11.43724 -78.50119,11.43724 0,0 10.24128,-0.24759 16.01714,0.6714 -10.83067,7.41256 -14.38166,22.12279 -14.38166,22.12279 0,0 12.07786,-12.9443 24.46017,-17.54853 -10.51293,13.98137 -11.91318,36.96048 -11.91318,36.96048 0,0 12.08966,-35.7251 34.67864,-43.12357 17.22122,-5.64038 35.43449,-2.32308 35.43449,-2.32308 0,0 36.11645,-2.49112 48.49082,19.07563 1.62923,0.77175 1.4682,-13.09772 -8.78484,-18.04747 l 27.63116,-1.43047 c -20.15254,-8.48528 -73.13155,-7.79442 -73.13155,-7.79442 z"
       id="path2399"
       style="fill:#44aa00;fill-opacity:1;fill-rule:evenodd;stroke:#000000;stroke-width:4;stroke-linecap:butt;stroke-linejoin:round;stroke-miterlimit:4;stroke-opacity:1;stroke-dasharray:none" />
    <path
       d="m 348.61128,478.40961 c -30.12925,0.61059 -50.93167,11.65327 -63.625,28.75 -24.06444,-2.58779 -44.0625,23.625 -44.0625,23.625 0,0 18.89113,9.44632 32.0625,1.53125 -2.39923,8.71172 -3.5625,18.10595 -3.5625,27.90625 0,45.17448 56.1255,81.84375 81.84375,81.84375 26.71661,0 81.84375,-36.66927 81.84375,-81.84375 0,-9.8003 -1.16389,-19.19453 -3.5625,-27.90625 13.17137,7.91507 32.03125,-1.53125 32.03125,-1.53125 0,0 -19.97122,-26.20456 -44.03125,-23.625 -13.06166,-17.59499 -34.70768,-28.75 -66.28125,-28.75 -0.89395,0 -1.77818,-0.0178 -2.65625,0 z"
       id="path3155"
       style="fill:#333333;fill-opacity:1;fill-rule:nonzero;stroke:#000000;stroke-width:4;stroke-linecap:round;stroke-linejoin:round;stroke-miterlimit:4;stroke-opacity:1" />
    <path
       d="m 404.77885,680.0559 c 0,-16.36756 -9.44283,-26.43991 -9.44283,-26.43991 0,0 3.77713,13.84948 3.14761,26.43991 l 6.29522,0 z"
       id="path3174"
       style="fill:#000000;fill-opacity:0.31372549;fill-rule:evenodd;stroke:#000000;stroke-width:4;stroke-linecap:butt;stroke-linejoin:round;stroke-miterlimit:4;stroke-opacity:1;stroke-dasharray:none" />
    <path
       d="m 347.6435,548.23558 c 0.004,12.51895 -10.14383,22.66953 -22.66277,22.66953 -12.51895,0 -22.66651,-10.15058 -22.66278,-22.66953 -0.004,-12.51894 10.14383,-22.66952 22.66278,-22.66952 12.51894,0 22.6665,10.15058 22.66277,22.66952 z"
       id="path3157"
       style="fill:#ffffff;fill-opacity:1;fill-rule:nonzero;stroke:#000000;stroke-width:3.99999952;stroke-linecap:round;stroke-linejoin:round;stroke-miterlimit:4;stroke-opacity:1;stroke-dasharray:none" />
    <path
       d="m 400.3757,548.23558 c 0.004,12.51895 -10.14383,22.66953 -22.66277,22.66953 -12.51895,0 -22.66651,-10.15058 -22.66278,-22.66953 -0.004,-12.51894 10.14383,-22.66952 22.66278,-22.66952 12.51894,0 22.6665,10.15058 22.66277,22.66952 z"
       id="path3159"
       style="fill:#ffffff;fill-opacity:1;fill-rule:nonzero;stroke:#000000;stroke-width:3.99999952;stroke-linecap:round;stroke-linejoin:round;stroke-miterlimit:4;stroke-opacity:1;stroke-dasharray:none" />
    <path
       d="m 380.23101,552.23558 c 10e-4,4.17298 -3.38127,7.55651 -7.55425,7.55651 -4.17298,0 -7.5555,-3.38353 -7.55425,-7.55651 -10e-4,-4.17298 3.38127,-7.5565 7.55425,-7.5565 4.17298,0 7.5555,3.38352 7.55425,7.5565 z"
       id="path3161"
       style="fill:#000000;fill-opacity:1;fill-rule:nonzero;stroke:none" />
    <path
       d="m 338.20067,552.23558 c 10e-4,4.17298 -3.38127,7.55651 -7.55425,7.55651 -4.17298,0 -7.5555,-3.38353 -7.55425,-7.55651 -0.001,-4.17298 3.38127,-7.5565 7.55425,-7.5565 4.17298,0 7.5555,3.38352 7.55425,7.5565 z"
       id="path3163"
       style="fill:#000000;fill-opacity:1;fill-rule:nonzero;stroke:none" />
    <path
       d="m 429.83003,533.40961 -1.875,2.65625 c 0.24888,3.07548 0.34375,6.20264 0.34375,9.375 0,45.17449 -55.12714,81.84375 -81.84375,81.84375 -20.70581,2e-5 -61.09673,-23.75565 -76.0625,-56.59375 7.61581,40.24628 57.1719,71.37501 80.875,71.375 26.71661,0 81.84375,-36.6693 81.84375,-81.84375 0,-9.39155 -1.07538,-18.41026 -3.28125,-26.8125 z"
       id="path3231"
       style="fill:#000000;fill-opacity:0.31372549;fill-rule:nonzero;stroke:none" />
    <path
       d="m 367.86847,612.86692 c -2.29272,3.97309 -6.50025,5.8386 -9.39677,4.16629 -2.89654,-1.67231 -3.38472,-6.2489 -1.09029,-10.22099 2.29273,-3.9731 6.50026,-5.83861 9.39679,-4.1663 2.89653,1.67231 3.38471,6.2489 1.09027,10.221 z"
       id="path2398"
       style="fill:#000000;fill-opacity:1;fill-rule:nonzero;stroke:none" />
    <path
       d="m 335.13142,612.86692 c 2.29272,3.97309 6.50025,5.8386 9.39677,4.16629 2.89654,-1.67231 3.38472,-6.2489 1.09029,-10.22099 -2.29273,-3.9731 -6.50026,-5.83861 -9.39679,-4.1663 -2.89653,1.67231 -3.38471,6.2489 -1.09027,10.221 z"
       id="path2412"
       style="fill:#000000;fill-opacity:1;fill-rule:nonzero;stroke:none" />
    <path
       d="m 276.13784,641.01688 c -3.29969,-0.34546 -6.27774,2.03968 -6.6232,5.33939 -0.0552,0.5277 -0.0194,1.04476 0.0581,1.5457 -2.78152,0.27262 -5.09905,2.48582 -5.40132,5.37306 -0.34546,3.29971 2.07403,6.24993 5.37372,6.59538 0.75259,0.0788 1.46564,0.002 2.15575,-0.18279 -0.16989,3.17347 2.17561,5.97779 5.37194,6.31242 3.29972,0.34544 6.24992,-2.07401 6.59538,-5.37374 0.0864,-0.82493 0.006,-1.63304 -0.22216,-2.37981 2.57267,-0.45549 4.66767,-2.56718 4.95317,-5.29429 0.34545,-3.29972 -2.07401,-6.24992 -5.37372,-6.59538 -0.5265,-0.0551 -1.04256,-0.05 -1.54246,0.027 -0.27261,-2.78152 -2.45798,-5.06471 -5.34523,-5.36698 z m 0.29299,11.90773 c 0.0399,0.40692 0.10311,0.80409 0.22148,1.18576 -0.1726,0.0306 -0.34586,0.0581 -0.51355,0.10333 0.0228,-0.4257 0.008,-0.85594 -0.0563,-1.26272 0.11437,-0.0112 0.23577,-0.009 0.3484,-0.0264 z"
       id="path3181"
       style="fill:#ffff00;fill-opacity:1;fill-rule:nonzero;stroke:#000000;stroke-width:4;stroke-linecap:round;stroke-linejoin:round;stroke-miterlimit:4;stroke-opacity:1;stroke-dasharray:none" />
  </g>
</svg>
