<?xml version="1.0" encoding="UTF-8" standalone="no"?>
<!-- Created with Inkscape (http://www.inkscape.org/) -->

<svg
   xmlns:dc="http://purl.org/dc/elements/1.1/"
   xmlns:cc="http://creativecommons.org/ns#"
   xmlns:rdf="http://www.w3.org/1999/02/22-rdf-syntax-ns#"
   xmlns:svg="http://www.w3.org/2000/svg"
   xmlns="http://www.w3.org/2000/svg"
   xmlns:sodipodi="http://sodipodi.sourceforge.net/DTD/sodipodi-0.dtd"
   xmlns:inkscape="http://www.inkscape.org/namespaces/inkscape"
   version="1.0"
   width="363.38"
   height="363.38"
   id="svg2"
   inkscape:version="0.47 r22583"
   sodipodi:docname="lemmling-cartoon-beaver.svg">
  <metadata
     id="metadata2887">
    <rdf:RDF>
      <cc:Work
         rdf:about="">
        <dc:format>image/svg+xml</dc:format>
        <dc:type
           rdf:resource="http://purl.org/dc/dcmitype/StillImage" />
      </cc:Work>
    </rdf:RDF>
  </metadata>
  <sodipodi:namedview
     pagecolor="#ffffff"
     bordercolor="#666666"
     borderopacity="1"
     objecttolerance="10"
     gridtolerance="10"
     guidetolerance="10"
     inkscape:pageopacity="0"
     inkscape:pageshadow="2"
     inkscape:window-width="1280"
     inkscape:window-height="923"
     id="namedview2885"
     showgrid="false"
     inkscape:zoom="0.64945786"
     inkscape:cx="150.36215"
     inkscape:cy="181.69001"
     inkscape:window-x="0"
     inkscape:window-y="24"
     inkscape:window-maximized="1"
     inkscape:current-layer="svg2" />
  <defs
     id="defs4" />
  <g
     transform="translate(-156.90517,-327.31832)"
     id="layer1">
    <path
       d="m 305.13872,553.93381 c 0,0 -212.636292,-169.77013 -59.39697,-218.49599 153.44218,-48.79037 93.3381,210.01071 93.3381,210.01071 l -33.94113,8.48528 z"
       id="path3223"
       style="fill:#502d16;fill-opacity:1;fill-rule:evenodd;stroke:#000000;stroke-width:4;stroke-linecap:butt;stroke-linejoin:round;stroke-miterlimit:4;stroke-opacity:1;stroke-dasharray:none" />
    <path
       d="m 513.68958,561.9649 a 121.49766,121.49766 0 1 1 -242.99531,0 121.49766,121.49766 0 1 1 242.99531,0 z"
       transform="translate(-26.730683,0)"
       id="path2385"
       style="fill:#784421;fill-opacity:1;fill-rule:nonzero;stroke:#000000;stroke-width:4;stroke-linecap:round;stroke-linejoin:round;stroke-miterlimit:4;stroke-opacity:1;stroke-dasharray:none" />
    <path
       d="m 177.21875,113.15625 c -24.50513,0 -47.31382,7.2551 -66.40625,19.75 8.53922,30.08742 35.94962,52.24349 68.625,52.8125 1.08029,1.85154 2.10949,3.32055 2.75,3.78125 2.01379,1.44847 12.86001,2.00501 14.875,0.34375 0.98751,-0.81415 2.78652,-3.71741 4.25,-7.03125 22.47619,-6.63757 40.43201,-23.88331 48.09375,-45.90625 -20.1859,-14.9392 -45.16502,-23.75 -72.1875,-23.75 z"
       transform="translate(188.23144,327.31447)"
       id="path3302"
       style="fill:#000000;fill-opacity:0.31372549;fill-rule:nonzero;stroke:none" />
    <path
       d="m 440.03557,422.84064 a 49.10268,49.10268 0 1 1 -98.20536,0 49.10268,49.10268 0 1 1 98.20536,0 z"
       transform="matrix(0.4679487,-6.2367319e-8,6.2367319e-8,0.4679487,153.19319,346.49342)"
       id="path3242"
       style="fill:#000000;fill-opacity:0.31372549;fill-rule:nonzero;stroke:none" />
    <path
       d="m 365.45682,440.46875 c -12.92545,0 -25.3749,2.03698 -37.0625,5.78125 10.51387,-2.45545 21.60216,-3.78125 33.0625,-3.78125 31.43752,0 60.10758,9.87809 81.6875,26.09375 -21.06394,-17.54131 -48.15384,-28.09375 -77.6875,-28.09375 z m 115.0625,82.375 c 1.5943,6.48815 2.4375,13.18721 2.4375,20.0625 1e-5,55.4436 -54.43329,100.4375 -121.5,100.4375 -56.08404,2e-5 -103.31087,-31.45896 -117.28125,-74.1875 3.72411,63.72461 56.62784,114.31248 121.28125,114.3125 67.06671,0 121.50001,-54.43329 121.5,-121.5 0,-13.68255 -2.26138,-26.84919 -6.4375,-39.125 z"
       id="path3276"
       style="fill:#000000;fill-opacity:0.31372549;fill-rule:nonzero;stroke:none" />
    <path
       d="m 97.5625,21.875 c -11.05537,0 -20.031253,8.975879 -20.03125,20.03125 0,7.154588 3.757982,13.426214 9.40625,16.96875 -5.971075,10.554182 -9.406249,22.735047 -9.40625,35.71875 0,40.13443 32.55307,72.71875 72.6875,72.71875 40.13443,0 72.71876,-32.58432 72.71875,-72.71875 0,-12.983703 -3.43518,-25.164568 -9.40625,-35.71875 5.63568,-3.545109 9.40625,-9.823717 9.40625,-16.96875 0,-11.05537 -8.97589,-20.03125 -20.03125,-20.03125 -7.14503,0 -13.39239,3.770571 -16.9375,9.40625 -10.55962,-5.979364 -22.7566,-9.40625 -35.75,-9.40625 -12.98994,0 -25.16107,3.429847 -35.71875,9.40625 C 110.95489,25.645571 104.70753,21.875 97.5625,21.875 z"
       transform="translate(215.23291,337.26301)"
       id="path2479"
       style="fill:#784421;fill-opacity:1;fill-rule:nonzero;stroke:#000000;stroke-width:4.00000048;stroke-linecap:round;stroke-linejoin:round;stroke-miterlimit:4;stroke-opacity:1;stroke-dasharray:none" />
    <path
       d="m 424.33182,614.21875 c -30.40589,0 -55.09375,24.68786 -55.09375,55.09375 0,6.28661 1.05766,12.30814 3,17.9375 l 104.15625,0 c 1.94234,-5.62935 3,-11.65089 3,-17.9375 0,-30.40589 -24.65661,-55.09376 -55.0625,-55.09375 z"
       id="path3163"
       style="fill:#784421;fill-opacity:1;fill-rule:nonzero;stroke:#000000;stroke-width:4;stroke-linecap:round;stroke-linejoin:round;stroke-miterlimit:4;stroke-opacity:1;stroke-dasharray:none" />
    <path
       d="m 314.14432,614.21875 c -30.40589,0 -55.06249,24.68786 -55.0625,55.09375 0,6.28661 1.05766,12.30814 3,17.9375 l 104.15625,0 c 1.94234,-5.62935 3,-11.65089 3,-17.9375 0,-30.40589 -24.68787,-55.09376 -55.09375,-55.09375 z"
       id="path3165"
       style="fill:#784421;fill-opacity:1;fill-rule:nonzero;stroke:#000000;stroke-width:4;stroke-linecap:round;stroke-linejoin:round;stroke-miterlimit:4;stroke-opacity:1;stroke-dasharray:none" />
    <path
       d="m 371.41771,413.3978 a 9.442825,9.442825 0 1 1 -18.88565,0 9.442825,9.442825 0 1 1 18.88565,0 z"
       transform="matrix(2.1666666,0,0,2.1666666,-441.16569,-478.20554)"
       id="path3177"
       style="fill:#ffffff;fill-opacity:1;fill-rule:nonzero;stroke:#000000;stroke-width:1.84615386;stroke-linecap:round;stroke-linejoin:round;stroke-miterlimit:4;stroke-opacity:1;stroke-dasharray:none" />
    <path
       d="m 371.41771,413.3978 a 9.442825,9.442825 0 1 1 -18.88565,0 9.442825,9.442825 0 1 1 18.88565,0 z"
       transform="matrix(2.1666666,0,0,2.1666666,-395.84014,-478.20554)"
       id="path3179"
       style="fill:#ffffff;fill-opacity:1;fill-rule:nonzero;stroke:#000000;stroke-width:1.84615386;stroke-linecap:round;stroke-linejoin:round;stroke-miterlimit:4;stroke-opacity:1;stroke-dasharray:none" />
    <path
       d="m 377.08343,426.93253 a 6.60998,6.60998 0 1 1 -13.21996,0 6.60998,6.60998 0 1 1 13.21996,0 z"
       transform="translate(13.005549,-5.5105236)"
       id="path3183"
       style="fill:#000000;fill-opacity:1;fill-rule:nonzero;stroke:none" />
    <path
       d="m 347.03754,459.51189 c 4.14127,-6.99024 29.55287,-7.32604 34.86797,-0.47699 5.04715,6.50379 -7.57998,25.01398 -17.43398,24.25597 -9.825,-0.75577 -21.65764,-16.64969 -17.43399,-23.77898 z"
       id="path3192"
       style="fill:#000000;fill-opacity:1;fill-rule:evenodd;stroke:none" />
    <path
       d="m 354,671.86218 a 17.5,17.5 0 1 1 -35,0 17.5,17.5 0 1 1 35,0 z"
       transform="matrix(0.8428571,0,0,1,10.897888,-0.5)"
       id="path3220"
       style="fill:#502d16;fill-opacity:1;fill-rule:nonzero;stroke:#000000;stroke-width:4;stroke-linecap:round;stroke-linejoin:round;stroke-miterlimit:4;stroke-opacity:1;stroke-dasharray:none" />
    <path
       d="m 354,671.86218 a 17.5,17.5 0 1 1 -35,0 17.5,17.5 0 1 1 35,0 z"
       transform="matrix(0.8428571,0,0,1,47.897888,-0.5)"
       id="path3224"
       style="fill:#502d16;fill-opacity:1;fill-rule:nonzero;stroke:#000000;stroke-width:4;stroke-linecap:round;stroke-linejoin:round;stroke-miterlimit:4;stroke-opacity:1;stroke-dasharray:none" />
    <path
       d="m 354,671.86218 a 17.5,17.5 0 1 1 -35,0 17.5,17.5 0 1 1 35,0 z"
       transform="matrix(0.8428571,0,0,1,30.397888,-0.5)"
       id="path3222"
       style="fill:#502d16;fill-opacity:1;fill-rule:nonzero;stroke:#000000;stroke-width:4;stroke-linecap:round;stroke-linejoin:round;stroke-miterlimit:4;stroke-opacity:1;stroke-dasharray:none" />
    <path
       d="m 354,671.86218 a 17.5,17.5 0 1 1 -35,0 17.5,17.5 0 1 1 35,0 z"
       transform="matrix(0.8428571,0,0,1,124.39789,-0.5)"
       id="path3226"
       style="fill:#502d16;fill-opacity:1;fill-rule:nonzero;stroke:#000000;stroke-width:4;stroke-linecap:round;stroke-linejoin:round;stroke-miterlimit:4;stroke-opacity:1;stroke-dasharray:none" />
    <path
       d="m 354,671.86218 a 17.5,17.5 0 1 1 -35,0 17.5,17.5 0 1 1 35,0 z"
       transform="matrix(0.8428571,0,0,1,161.39789,-0.5)"
       id="path3228"
       style="fill:#502d16;fill-opacity:1;fill-rule:nonzero;stroke:#000000;stroke-width:4;stroke-linecap:round;stroke-linejoin:round;stroke-miterlimit:4;stroke-opacity:1;stroke-dasharray:none" />
    <path
       d="m 354,671.86218 a 17.5,17.5 0 1 1 -35,0 17.5,17.5 0 1 1 35,0 z"
       transform="matrix(0.8428571,0,0,1,143.89789,-0.5)"
       id="path3230"
       style="fill:#502d16;fill-opacity:1;fill-rule:nonzero;stroke:#000000;stroke-width:4;stroke-linecap:round;stroke-linejoin:round;stroke-miterlimit:4;stroke-opacity:1;stroke-dasharray:none" />
    <path
       d="m 440.03557,422.84064 a 49.10268,49.10268 0 1 1 -98.20536,0 49.10268,49.10268 0 1 1 98.20536,0 z"
       transform="matrix(0.4520038,0.121114,-0.121114,0.4520038,275.31834,305.00749)"
       id="path3244"
       style="fill:#000000;fill-opacity:0.31372549;fill-rule:nonzero;stroke:none" />
    <path
       d="m 440.03557,422.84064 a 49.10268,49.10268 0 1 1 -98.20536,0 49.10268,49.10268 0 1 1 98.20536,0 z"
       transform="matrix(0.4052555,-0.2339743,0.2339743,0.4052555,74.975292,459.09225)"
       id="path3159"
       style="fill:#784421;fill-opacity:1;fill-rule:nonzero;stroke:#000000;stroke-width:8.54794598;stroke-linecap:round;stroke-linejoin:round;stroke-miterlimit:4;stroke-opacity:1;stroke-dasharray:none" />
    <path
       d="m 440.03557,422.84064 a 49.10268,49.10268 0 1 1 -98.20536,0 49.10268,49.10268 0 1 1 98.20536,0 z"
       transform="matrix(0.3308897,0.3308897,-0.3308897,0.3308897,407.30938,269.10223)"
       id="path3161"
       style="fill:#784421;fill-opacity:1;fill-rule:nonzero;stroke:#000000;stroke-width:8.54794598;stroke-linecap:round;stroke-linejoin:round;stroke-miterlimit:4;stroke-opacity:1;stroke-dasharray:none" />
    <path
       d="m 354,671.86218 a 17.5,17.5 0 1 1 -35,0 17.5,17.5 0 1 1 35,0 z"
       transform="matrix(0.3913429,-0.2259419,0.2571428,0.4453845,25.537105,327.84484)"
       id="path3264"
       style="fill:#502d16;fill-opacity:1;fill-rule:nonzero;stroke:#000000;stroke-width:7.6176548;stroke-linecap:round;stroke-linejoin:round;stroke-miterlimit:4;stroke-opacity:1;stroke-dasharray:none" />
    <path
       d="m 354,671.86218 a 17.5,17.5 0 1 1 -35,0 17.5,17.5 0 1 1 35,0 z"
       transform="matrix(0.3913429,-0.2259419,0.2571428,0.4453845,42.716402,317.92636)"
       id="path3266"
       style="fill:#502d16;fill-opacity:1;fill-rule:nonzero;stroke:#000000;stroke-width:7.6176548;stroke-linecap:round;stroke-linejoin:round;stroke-miterlimit:4;stroke-opacity:1;stroke-dasharray:none" />
    <path
       d="m 354,671.86218 a 17.5,17.5 0 1 1 -35,0 17.5,17.5 0 1 1 35,0 z"
       transform="matrix(0.3913429,-0.2259419,0.2571428,0.4453845,36.591063,327.11754)"
       id="path3268"
       style="fill:#502d16;fill-opacity:1;fill-rule:nonzero;stroke:#000000;stroke-width:7.6176548;stroke-linecap:round;stroke-linejoin:round;stroke-miterlimit:4;stroke-opacity:1;stroke-dasharray:none" />
    <path
       d="m 354,671.86218 a 17.5,17.5 0 1 1 -35,0 17.5,17.5 0 1 1 35,0 z"
       transform="matrix(-0.3913429,-0.2259419,-0.2571428,0.4453845,704.69056,328.74557)"
       id="path3270"
       style="fill:#502d16;fill-opacity:1;fill-rule:nonzero;stroke:#000000;stroke-width:7.6176548;stroke-linecap:round;stroke-linejoin:round;stroke-miterlimit:4;stroke-opacity:1;stroke-dasharray:none" />
    <path
       d="m 354,671.86218 a 17.5,17.5 0 1 1 -35,0 17.5,17.5 0 1 1 35,0 z"
       transform="matrix(-0.3913429,-0.2259419,-0.2571428,0.4453845,687.51128,318.8271)"
       id="path3272"
       style="fill:#502d16;fill-opacity:1;fill-rule:nonzero;stroke:#000000;stroke-width:7.6176548;stroke-linecap:round;stroke-linejoin:round;stroke-miterlimit:4;stroke-opacity:1;stroke-dasharray:none" />
    <path
       d="m 354,671.86218 a 17.5,17.5 0 1 1 -35,0 17.5,17.5 0 1 1 35,0 z"
       transform="matrix(-0.3913429,-0.2259419,-0.2571428,0.4453845,693.63662,328.01828)"
       id="path3274"
       style="fill:#502d16;fill-opacity:1;fill-rule:nonzero;stroke:#000000;stroke-width:7.6176548;stroke-linecap:round;stroke-linejoin:round;stroke-miterlimit:4;stroke-opacity:1;stroke-dasharray:none" />
    <path
       d="m 418.38019,367.63601 c -4.01756,0 -7.52552,2.11622 -9.5272,5.27947 6.14348,4.13804 11.43329,9.42199 15.56764,15.56829 3.15325,-2.00372 5.25469,-5.54193 5.25469,-9.55216 0,-6.23343 -5.06196,-11.2956 -11.29513,-11.2956 z"
       id="path2483"
       style="fill:#502d16;fill-opacity:1;fill-rule:nonzero;stroke:#000000;stroke-width:3.99999976;stroke-linecap:round;stroke-linejoin:round;stroke-miterlimit:4;stroke-opacity:1;stroke-dasharray:none" />
    <path
       d="m 377.08343,426.93253 a 6.60998,6.60998 0 1 1 -13.21996,0 6.60998,6.60998 0 1 1 13.21996,0 z"
       transform="translate(-21.408717,-5.5105236)"
       id="path2515"
       style="fill:#000000;fill-opacity:1;fill-rule:nonzero;stroke:none" />
    <path
       d="m 312.74542,367.63601 c 4.01756,0 7.52552,2.11622 9.5272,5.27947 -6.14348,4.13804 -11.43329,9.42199 -15.56764,15.56829 -3.15325,-2.00372 -5.25469,-5.54193 -5.25469,-9.55216 0,-6.23343 5.06196,-11.2956 11.29513,-11.2956 z"
       id="path2523"
       style="fill:#502d16;fill-opacity:1;fill-rule:nonzero;stroke:#000000;stroke-width:3.99999976;stroke-linecap:round;stroke-linejoin:round;stroke-miterlimit:4;stroke-opacity:1;stroke-dasharray:none" />
    <path
       d="m 217.8125,67.8125 c 0.74197,4.151194 1.125,8.417392 1.125,12.78125 1e-5,40.13443 -32.58432,72.71875 -72.71875,72.71875 -30.63834,0 -56.838721,-19.00276 -67.53125,-45.84375 6.082171,33.9996 35.79182,59.84375 71.53125,59.84375 40.13443,0 72.71876,-32.58432 72.71875,-72.71875 0,-9.462486 -1.82395,-18.490519 -5.125,-26.78125 z"
       transform="translate(215.23291,337.26301)"
       id="path2525"
       style="fill:#000000;fill-opacity:0.31372549;fill-rule:nonzero;stroke:none" />
    <path
       d="m 426.91993,430.23552 c 10.86517,-4.99506 37.02118,12.71957 35.94704,17.96313 -15.51996,-5.50335 -23.20427,-5.50911 -31.69035,-2.07695 9.29611,3.86028 19.46283,12.90071 20.05272,22.22201 -6.4532,-5.42975 -18.30951,-10.5426 -30.41778,-8.28922 6.07578,7.17894 14.30876,13.77987 12.08601,23.18241 -7.51939,-7.96801 -14.92392,-9.05791 -22.34335,-11.03989"
       id="path2413"
       style="fill:#784421;fill-opacity:1;fill-rule:evenodd;stroke:#000000;stroke-width:4;stroke-linecap:round;stroke-linejoin:round;stroke-miterlimit:4;stroke-opacity:1;stroke-dasharray:none" />
    <path
       d="m 304.2983,430.23552 c -10.86517,-4.99506 -37.02118,12.71957 -35.94704,17.96313 15.51996,-5.50335 23.20427,-5.50911 31.69035,-2.07695 -9.29611,3.86028 -19.46283,12.90071 -20.05272,22.22201 6.4532,-5.42975 18.30951,-10.5426 30.41778,-8.28922 -6.07578,7.17894 -14.30876,13.77987 -12.08601,23.18241 7.51939,-7.96801 14.92392,-9.05791 22.34335,-11.03989"
       id="path3197"
       style="fill:#784421;fill-opacity:1;fill-rule:evenodd;stroke:#000000;stroke-width:4;stroke-linecap:round;stroke-linejoin:round;stroke-miterlimit:4;stroke-opacity:1;stroke-dasharray:none" />
    <path
       d="m 354.39355,490.565 c 6.52859,2.22737 16.22572,1.99028 21.21321,10e-6 5.11829,-2.04246 -2.04401,15.865 -4.24264,17.67766 -2.01499,1.66126 -11.42124,1.44847 -13.43503,0 -2.16787,-1.55929 -9.64295,-19.76135 -3.53554,-17.67767 z"
       id="path3225"
       style="fill:#ffffff;fill-opacity:1;fill-rule:evenodd;stroke:#000000;stroke-width:4;stroke-linecap:butt;stroke-linejoin:round;stroke-miterlimit:4;stroke-opacity:1;stroke-dasharray:none" />
  </g>
</svg>
