<?xml version="1.0" encoding="UTF-8" standalone="no"?>
<!-- Created with Inkscape (http://www.inkscape.org/) -->

<svg
   xmlns:dc="http://purl.org/dc/elements/1.1/"
   xmlns:cc="http://creativecommons.org/ns#"
   xmlns:rdf="http://www.w3.org/1999/02/22-rdf-syntax-ns#"
   xmlns:svg="http://www.w3.org/2000/svg"
   xmlns="http://www.w3.org/2000/svg"
   xmlns:sodipodi="http://sodipodi.sourceforge.net/DTD/sodipodi-0.dtd"
   xmlns:inkscape="http://www.inkscape.org/namespaces/inkscape"
   version="1.0"
   width="561.83002"
   height="561.83002"
   id="svg2"
   inkscape:version="0.47 r22583"
   sodipodi:docname="lemmling-cartoon-squirrel.svg">
  <metadata
     id="metadata3362">
    <rdf:RDF>
      <cc:Work
         rdf:about="">
        <dc:format>image/svg+xml</dc:format>
        <dc:type
           rdf:resource="http://purl.org/dc/dcmitype/StillImage" />
      </cc:Work>
    </rdf:RDF>
  </metadata>
  <sodipodi:namedview
     pagecolor="#ffffff"
     bordercolor="#666666"
     borderopacity="1"
     objecttolerance="10"
     gridtolerance="10"
     guidetolerance="10"
     inkscape:pageopacity="0"
     inkscape:pageshadow="2"
     inkscape:window-width="640"
     inkscape:window-height="504"
     id="namedview3360"
     showgrid="false"
     inkscape:zoom="0.42005588"
     inkscape:cx="211.46075"
     inkscape:cy="280.915"
     inkscape:window-x="0"
     inkscape:window-y="24"
     inkscape:window-maximized="0"
     inkscape:current-layer="svg2" />
  <defs
     id="defs4" />
  <g
     transform="translate(-71.800664,-219.79537)"
     id="layer1">
    <path
       d="m 562.12585,467.85346 c -1.38834,78.86909 -54.3252,113.15123 -55.19934,79.84418 -1.07509,-42.11394 -19.21366,-151.35439 -90.41475,-117.85768 -85.15112,40.05953 -8.38979,284.06876 -33.04471,284.06876 -98.61966,0 -178.65881,-110.23276 -178.65881,-246.05526 0,-135.82251 80.03915,-246.05526 178.65881,-246.05526 98.61966,0 181.01928,111.95989 178.6588,246.05526 z"
       id="path3584"
       style="fill:#784421;fill-opacity:1;fill-rule:nonzero;stroke:#000000;stroke-width:4;stroke-linecap:round;stroke-linejoin:round;stroke-miterlimit:4;stroke-opacity:1" />
    <path
       d="m 513.875,299.0625 c 22.8765,41.38319 34.22305,93.29003 35.25,147.78125 0.94863,50.33543 -12.76359,97.88114 -38.1875,111.34375 11.87414,3.80705 49.79916,-11.47465 51.1875,-90.34375 1.14098,-64.81739 -17.52418,-124.45196 -48.25,-168.78125 z m -86.09375,103.5 c -7.31224,0.13644 -15.38111,2.09416 -24.28125,6.28125 -85.15111,40.05952 -8.37633,284.0625 -33.03125,284.0625 -50.79129,10e-6 -96.64884,-29.24123 -129.1875,-76.15625 32.64541,59.02396 84.1951,97.15627 142.1875,97.15625 24.65492,0 -52.11986,-244.00298 33.03125,-284.0625 26.39662,-12.41835 45.51147,-5.21836 59.15625,10.90625 -10.18,-21.95813 -25.47926,-38.60539 -47.875,-38.1875 z"
       id="path3604"
       style="fill:#000000;fill-opacity:0.31372549;fill-rule:nonzero;stroke:none" />
    <path
       d="m 513.68958,561.9649 a 121.49766,121.49766 0 1 1 -242.99531,0 121.49766,121.49766 0 1 1 242.99531,0 z"
       transform="matrix(1.342838,0,0,1.3440264,-220.24254,-146.05974)"
       id="path2385"
       style="fill:#784421;fill-opacity:1;fill-rule:nonzero;stroke:#000000;stroke-width:2.9774487;stroke-linecap:round;stroke-linejoin:round;stroke-miterlimit:4;stroke-opacity:1;stroke-dasharray:none" />
    <path
       d="m 306.40177,445.94189 c -17.35679,0 -34.07438,2.73776 -49.76894,7.77016 14.11842,-3.3002 29.0082,-5.0821 44.39759,-5.0821 42.21549,0 80.71474,13.27641 109.69308,35.07069 -28.28547,-23.57598 -64.66281,-37.75875 -104.32173,-37.75875 z m 154.5103,110.71419 c 2.14089,8.72024 3.27317,17.72396 3.27317,26.96453 10e-6,74.51766 -73.0951,134.99065 -163.15482,134.99065 -75.31179,2e-5 -138.72977,-42.28167 -157.48973,-99.70996 5.00088,85.64756 76.04201,153.63899 162.86108,153.63902 90.05973,0 163.15484,-73.15978 163.15482,-163.29922 0,-18.3897 -3.03667,-36.08601 -8.64452,-52.58502 z"
       id="path3276"
       style="fill:#000000;fill-opacity:0.31372549;fill-rule:nonzero;stroke:none" />
    <path
       d="m 306.40177,445.94189 c -27.82504,0 -54.03103,6.96839 -76.96141,19.27839 10.86027,37.96606 42.59325,73.08142 80.06673,73.08143 36.48216,2e-5 67.57701,-33.26622 79.22744,-70.05738 -24.17062,-14.17652 -52.31285,-22.30244 -82.33276,-22.30244 z"
       id="path3236"
       style="fill:#000000;fill-opacity:0.31372549;fill-rule:nonzero;stroke:none" />
    <path
       d="m 418.19253,309.91934 c -19.80954,0.005 -60.05051,10.54222 -67.09427,37.87047 -0.10673,0.21368 -0.32188,0.97458 -0.54474,2.13547 -12.74558,-7.7852 -27.72428,-12.31301 -43.73839,-12.31301 -16.71287,-1e-5 -32.25346,4.93505 -45.34991,13.35803 -0.26917,-1.70642 -0.59209,-2.91178 -0.72632,-3.18049 -7.04379,-27.32824 -47.28125,-37.8418 -67.09427,-37.84775 -3.15844,-9.6e-4 -5.76917,0.27028 -7.67182,0.7724 -10.63554,1.4801 -22.27278,5.72489 -21.42658,8.04208 7.80334,-1.32368 11.74845,0.19733 11.6212,1.45393 -0.23884,2.35852 -4.9423,2.98763 -3.42735,11.49519 2.85185,-4.13012 6.82389,-5.54168 9.94158,-6.20195 3.20265,20.08152 17.20169,55.15833 43.39791,56.9761 2.24671,0.1559 4.35215,0.15389 6.33265,0.11359 -6.18342,11.71832 -9.6919,25.06777 -9.6919,39.23354 0,46.47083 37.66506,100.32153 84.09481,100.32154 46.42976,-10e-6 84.14022,-53.85068 84.14022,-100.32154 -1e-5,-14.15241 -3.51939,-27.47776 -9.6919,-39.18811 1.42656,-0.0124 2.93878,-0.0511 4.49413,-0.15902 26.11648,-1.81224 40.11671,-36.68341 43.37522,-56.79436 2.97515,0.73319 6.53421,2.23606 9.14716,6.02021 1.51495,-8.50756 -3.18851,-9.13667 -3.42734,-11.49519 -0.12726,-1.2566 3.81784,-2.77761 11.6212,-1.45393 0.80122,-2.19405 -9.58817,-6.12409 -19.72427,-7.79219 -1.92563,-0.68211 -4.88663,-1.04596 -8.55702,-1.04501 z"
       id="path3573"
       style="fill:#784421;fill-opacity:1;fill-rule:evenodd;stroke:#000000;stroke-width:3.99999976;stroke-linecap:butt;stroke-linejoin:round;stroke-miterlimit:4;stroke-opacity:1;stroke-dasharray:none" />
    <path
       d="m 338.8921,559.28524 c -13.93794,-13.94467 -38.75286,-14.65936 -53.50955,-1.54188 -10.39332,9.10216 -14.53647,23.09383 -15.89245,36.34364 -0.96117,9.55595 -0.3906,19.79818 4.51084,28.31166 4.91528,6.32182 13.48454,7.65507 21.00674,8.03152 14.98844,0.66841 30.82915,-2.94742 42.81723,-12.43727 14.43849,-12.39061 17.80011,-35.46397 7.20028,-51.27072 -1.7272,-2.70474 -3.81703,-5.19385 -6.13309,-7.43695 z"
       id="path3619"
       style="fill:#000000;fill-opacity:0.31372549;fill-rule:nonzero;stroke:none" />
    <path
       d="m 440.03557,422.84064 a 49.10268,49.10268 0 1 1 -98.20536,0 49.10268,49.10268 0 1 1 98.20536,0 z"
       transform="matrix(0.6283794,0,0,0.6289354,12.8815,321.60065)"
       id="path3242"
       style="fill:#000000;fill-opacity:0.31372549;fill-rule:nonzero;stroke:none" />
    <path
       d="m 333.8921,549.28524 c -13.93794,-13.94467 -38.75286,-14.65936 -53.50955,-1.54188 -10.39332,9.10216 -14.53647,23.09383 -15.89245,36.34364 -0.96117,9.55595 -0.3906,19.79818 4.51084,28.31166 4.91528,6.32182 13.48454,7.65507 21.00674,8.03152 14.98844,0.66841 30.82915,-2.94742 42.81723,-12.43727 14.43849,-12.39061 17.80011,-35.46397 7.20028,-51.27072 -1.7272,-2.70474 -3.81703,-5.19385 -6.13309,-7.43695 z"
       id="path2383"
       style="fill:#a05a2c;fill-opacity:1;fill-rule:nonzero;stroke:#000000;stroke-width:3.99999976;stroke-linecap:round;stroke-linejoin:round;stroke-miterlimit:4;stroke-opacity:1" />
    <path
       d="m 302.45471,538.52142 c 2.96719,0.70466 5.84397,1.79848 8.53529,3.31372 2.61314,1.41589 5.08021,3.10446 7.28535,5.07565 13.33617,11.39457 16.08876,32.69746 6.35089,47.26367 -8.28347,11.3864 -21.45158,18.51383 -34.92215,21.63339 -5.46417,1.23415 -11.68406,2.08596 -17.00169,0.0607 4.91324,3.38456 11.42455,4.27195 17.30127,4.56606 14.98844,0.6684 30.83098,-2.95172 42.81907,-12.44158 14.43849,-12.3906 17.80391,-35.46707 7.20408,-51.27382 -1.7272,-2.70474 -3.81703,-5.19315 -6.13309,-7.43625 -8.15463,-8.15855 -20.03065,-11.78094 -31.43902,-10.76159 z"
       id="path3250"
       style="fill:#000000;fill-opacity:0.31372549;fill-rule:nonzero;stroke:none" />
    <path
       d="m 334.2646,545.77833 c 2.74682,-8.53373 16.6178,-16.43134 20.72698,-13.45614 4.10917,2.97521 4.42666,10.05799 3.70042,11.10486 -0.72626,1.04686 -8.1404,-2.1675 -12.81867,1.69923 -4.67826,3.86674 -7.01836,7.16842 -7.01836,7.16842 l -4.59037,-6.51637 z"
       id="path3239"
       style="fill:#502d16;fill-opacity:1;fill-rule:evenodd;stroke:#000000;stroke-width:4;stroke-linecap:butt;stroke-linejoin:miter;stroke-miterlimit:4;stroke-opacity:1;stroke-dasharray:none" />
    <path
       d="m 357.81726,536.02502 c 0.0894,0.9339 -0.0412,1.70797 -0.28785,2.00379 -0.71359,0.85594 -7.81592,0.0169 -12.3745,3.54779 -4.55858,3.5309 -6.85587,6.23337 -6.85587,6.23337 l -3.63515,-3.05534 c -0.14532,0.34091 -0.29326,0.68111 -0.40387,1.02475 l 4.59298,6.51628 c 0,0 2.3433,-3.30668 7.02157,-7.17343 4.67827,-3.86673 12.0912,-0.65145 12.81746,-1.69832 0.49833,-0.71833 0.49754,-4.27383 -0.87477,-7.39889 z"
       id="path3263"
       style="fill:#000000;fill-opacity:0.31372549;fill-rule:evenodd;stroke:none" />
    <path
       d="m 337.45716,545.82521 c -13.68559,-13.55063 -36.37801,-17.05604 -52.33895,-6.88203 -3.61195,1.98559 -2.51326,6.97817 -2.48148,6.89547 6.03222,-4.76652 12.28056,0.48117 20.49742,6.37466 10.04956,7.20798 21.0957,18.26347 29.20632,29.0162 5.67566,7.52455 9.7413,14.91404 6.48789,20.07945 0.16743,0.052 4.89401,1.3841 7.04991,-3.01598 10.8814,-20.51614 4.73001,-40.21797 -8.42111,-52.46777 z"
       id="path3201"
       style="fill:#502d16;fill-opacity:1;fill-rule:nonzero;stroke:#000000;stroke-width:4;stroke-linecap:round;stroke-linejoin:round;stroke-miterlimit:4;stroke-opacity:1" />
    <path
       d="m 336.38482,544.31721 c 4.33445,11.26123 3.76669,21.91512 -1.74149,32.1962 -1.24948,2.33216 -3.16837,1.57804 -4.78498,1.5428 0.84991,1.05848 1.68158,2.12152 2.47852,3.17809 5.67566,7.52455 9.7446,14.91118 6.4912,20.07659 0.16742,0.052 4.8937,1.38475 7.0496,-3.01533 9.96674,-18.79162 5.59715,-39.24198 -9.49285,-53.97835 z"
       id="path3269"
       style="fill:#000000;fill-opacity:0.31372549;fill-rule:nonzero;stroke:none" />
    <path
       d="m 440.03557,422.84064 a 49.10268,49.10268 0 1 1 -98.20536,0 49.10268,49.10268 0 1 1 98.20536,0 z"
       transform="matrix(0.5441925,-0.3141897,0.3144677,0.544674,-92.270041,473.77816)"
       id="path3159"
       style="fill:#784421;fill-opacity:1;fill-rule:nonzero;stroke:#000000;stroke-width:6.36276722;stroke-linecap:round;stroke-linejoin:round;stroke-miterlimit:4;stroke-opacity:1;stroke-dasharray:none" />
    <path
       d="m 440.03557,422.84064 a 49.10268,49.10268 0 1 1 -98.20536,0 49.10268,49.10268 0 1 1 98.20536,0 z"
       transform="matrix(0.6283794,0,0,0.6289354,128.64156,322.07585)"
       id="path3244"
       style="fill:#000000;fill-opacity:0.31372549;fill-rule:nonzero;stroke:none" />
    <path
       d="m 440.03557,422.84064 a 49.10268,49.10268 0 1 1 -98.20536,0 49.10268,49.10268 0 1 1 98.20536,0 z"
       transform="matrix(0.4443313,0.4443313,-0.4447245,0.4447245,383.64744,219.51007)"
       id="path3161"
       style="fill:#784421;fill-opacity:1;fill-rule:nonzero;stroke:#000000;stroke-width:6.36276722;stroke-linecap:round;stroke-linejoin:round;stroke-miterlimit:4;stroke-opacity:1;stroke-dasharray:none" />
    <path
       d="m 385.46136,679.46649 c -40.83018,0 -73.98198,33.18113 -73.98198,74.04745 0,8.44937 1.42026,16.54247 4.02851,24.10847 l 139.86498,0 c 2.60825,-7.566 4.02851,-15.6591 4.02851,-24.10847 0,-40.86632 -33.10983,-74.04747 -73.94002,-74.04745 z"
       id="path3163"
       style="fill:#784421;fill-opacity:1;fill-rule:nonzero;stroke:#000000;stroke-width:3.99999976;stroke-linecap:round;stroke-linejoin:round;stroke-miterlimit:4;stroke-opacity:1;stroke-dasharray:none" />
    <path
       d="m 237.49739,679.46649 c -40.83018,0 -73.94001,33.18113 -73.94001,74.04745 0,8.44937 1.42025,16.54247 4.02851,24.10847 l 139.86497,0 c 2.60824,-7.566 4.02852,-15.6591 4.02852,-24.10847 0,-40.86632 -33.15181,-74.04747 -73.98199,-74.04745 z"
       id="path3165"
       style="fill:#784421;fill-opacity:1;fill-rule:nonzero;stroke:#000000;stroke-width:3.99999976;stroke-linecap:round;stroke-linejoin:round;stroke-miterlimit:4;stroke-opacity:1;stroke-dasharray:none" />
    <path
       d="m 371.41771,413.3978 a 9.442825,9.442825 0 1 1 -18.88565,0 9.442825,9.442825 0 1 1 18.88565,0 z"
       transform="matrix(2.9094824,0,0,2.9120571,-776.76162,-788.7806)"
       id="path3177"
       style="fill:#ffffff;fill-opacity:1;fill-rule:nonzero;stroke:#000000;stroke-width:1.37420702;stroke-linecap:round;stroke-linejoin:round;stroke-miterlimit:4;stroke-opacity:1;stroke-dasharray:none" />
    <path
       d="m 371.41771,413.3978 a 9.442825,9.442825 0 1 1 -18.88565,0 9.442825,9.442825 0 1 1 18.88565,0 z"
       transform="matrix(2.9094824,0,0,2.9120571,-715.89675,-788.7806)"
       id="path3179"
       style="fill:#ffffff;fill-opacity:1;fill-rule:nonzero;stroke:#000000;stroke-width:1.37420702;stroke-linecap:round;stroke-linejoin:round;stroke-miterlimit:4;stroke-opacity:1;stroke-dasharray:none" />
    <path
       d="m 377.08343,426.93253 a 6.60998,6.60998 0 1 1 -13.21996,0 6.60998,6.60998 0 1 1 13.21996,0 z"
       transform="matrix(1.342838,0,0,1.3440264,-210.96802,-155.36677)"
       id="path3181"
       style="fill:#000000;fill-opacity:1;fill-rule:nonzero;stroke:none" />
    <path
       d="m 377.08343,426.93253 a 6.60998,6.60998 0 1 1 -13.21996,0 6.60998,6.60998 0 1 1 13.21996,0 z"
       transform="matrix(1.342838,0,0,1.3440264,-170.36715,-155.36677)"
       id="path3183"
       style="fill:#000000;fill-opacity:1;fill-rule:nonzero;stroke:none" />
    <path
       d="m 292.62658,467.84617 c 4.48313,-4.78623 23.51634,-5.82565 27.49647,0.59827 3.98013,6.42393 -5.97748,19.74319 -13.74823,19.14491 -7.74787,-0.59652 -17.94244,-15.26541 -13.74824,-19.74318 z"
       id="path3192"
       style="fill:#000000;fill-opacity:1;fill-rule:evenodd;stroke:none" />
    <path
       d="m 242.58413,370.21448 c -2.9587,-42.72774 -46.91667,-52.45781 -49.03005,-47.38125 -2.11335,5.07657 8.0308,62.18787 49.03005,47.38125 z"
       id="path3216"
       style="fill:#502d16;fill-opacity:1;fill-rule:evenodd;stroke:#000000;stroke-width:3.99999976;stroke-linecap:butt;stroke-linejoin:round;stroke-miterlimit:4;stroke-opacity:1;stroke-dasharray:none" />
    <path
       d="m 367.85553,370.21448 c 2.9587,-42.72774 46.91667,-52.45781 49.03004,-47.38125 2.11336,5.07657 -8.03078,62.18787 -49.03004,47.38125 z"
       id="path3218"
       style="fill:#502d16;fill-opacity:1;fill-rule:evenodd;stroke:#000000;stroke-width:3.99999976;stroke-linecap:butt;stroke-linejoin:round;stroke-miterlimit:4;stroke-opacity:1;stroke-dasharray:none" />
    <path
       d="m 354,671.86218 a 17.5,17.5 0 1 1 -35,0 17.5,17.5 0 1 1 35,0 z"
       transform="matrix(1.1318206,0,0,1.3440264,-169.71346,-146.73176)"
       id="path3220"
       style="fill:#502d16;fill-opacity:1;fill-rule:nonzero;stroke:#000000;stroke-width:2.9774487;stroke-linecap:round;stroke-linejoin:round;stroke-miterlimit:4;stroke-opacity:1;stroke-dasharray:none" />
    <path
       d="m 354,671.86218 a 17.5,17.5 0 1 1 -35,0 17.5,17.5 0 1 1 35,0 z"
       transform="matrix(1.1318206,0,0,1.3440264,-120.02845,-146.73176)"
       id="path3224"
       style="fill:#502d16;fill-opacity:1;fill-rule:nonzero;stroke:#000000;stroke-width:2.9774487;stroke-linecap:round;stroke-linejoin:round;stroke-miterlimit:4;stroke-opacity:1;stroke-dasharray:none" />
    <path
       d="m 354,671.86218 a 17.5,17.5 0 1 1 -35,0 17.5,17.5 0 1 1 35,0 z"
       transform="matrix(1.1318206,0,0,1.3440264,-143.52812,-146.73176)"
       id="path3222"
       style="fill:#502d16;fill-opacity:1;fill-rule:nonzero;stroke:#000000;stroke-width:2.9774487;stroke-linecap:round;stroke-linejoin:round;stroke-miterlimit:4;stroke-opacity:1;stroke-dasharray:none" />
    <path
       d="m 354,671.86218 a 17.5,17.5 0 1 1 -35,0 17.5,17.5 0 1 1 35,0 z"
       transform="matrix(1.1318206,0,0,1.3440264,-17.30134,-146.73176)"
       id="path3226"
       style="fill:#502d16;fill-opacity:1;fill-rule:nonzero;stroke:#000000;stroke-width:2.9774487;stroke-linecap:round;stroke-linejoin:round;stroke-miterlimit:4;stroke-opacity:1;stroke-dasharray:none" />
    <path
       d="m 354,671.86218 a 17.5,17.5 0 1 1 -35,0 17.5,17.5 0 1 1 35,0 z"
       transform="matrix(1.1318206,0,0,1.3440264,32.383668,-146.73176)"
       id="path3228"
       style="fill:#502d16;fill-opacity:1;fill-rule:nonzero;stroke:#000000;stroke-width:2.9774487;stroke-linecap:round;stroke-linejoin:round;stroke-miterlimit:4;stroke-opacity:1;stroke-dasharray:none" />
    <path
       d="m 354,671.86218 a 17.5,17.5 0 1 1 -35,0 17.5,17.5 0 1 1 35,0 z"
       transform="matrix(1.1318206,0,0,1.3440264,8.8840029,-146.73176)"
       id="path3230"
       style="fill:#502d16;fill-opacity:1;fill-rule:nonzero;stroke:#000000;stroke-width:2.9774487;stroke-linecap:round;stroke-linejoin:round;stroke-miterlimit:4;stroke-opacity:1;stroke-dasharray:none" />
    <path
       d="m 384.32834,389.24079 c 1.53207,6.33652 2.34997,12.97579 2.34997,19.78238 0,46.47087 -37.70745,100.29798 -84.1372,100.29798 -33.84109,-2e-5 -62.99362,-28.61173 -76.33195,-62.11922 10.32905,38.68689 42.51479,74.97145 80.61224,74.97147 46.42976,2e-5 84.1372,-53.86911 84.1372,-100.33998 0,-11.5639 -2.36095,-22.5634 -6.5883,-32.59263 l -0.042,0 z"
       id="path3246"
       style="fill:#000000;fill-opacity:0.31372549;fill-rule:nonzero;stroke:none" />
    <path
       d="m 354,671.86218 a 17.5,17.5 0 1 1 -35,0 17.5,17.5 0 1 1 35,0 z"
       transform="matrix(0.3032692,-0.5257427,0.5983439,0.3457597,-246.201,542.46598)"
       id="path3264"
       style="fill:#502d16;fill-opacity:1;fill-rule:nonzero;stroke:#000000;stroke-width:5.67029381;stroke-linecap:round;stroke-linejoin:round;stroke-miterlimit:4;stroke-opacity:1;stroke-dasharray:none" />
    <path
       d="m 354,671.86218 a 17.5,17.5 0 1 1 -35,0 17.5,17.5 0 1 1 35,0 z"
       transform="matrix(0.3032692,-0.5257427,0.5983439,0.3457597,-232.88799,519.38675)"
       id="path3266"
       style="fill:#502d16;fill-opacity:1;fill-rule:nonzero;stroke:#000000;stroke-width:5.67029381;stroke-linecap:round;stroke-linejoin:round;stroke-miterlimit:4;stroke-opacity:1;stroke-dasharray:none" />
    <path
       d="m 354,671.86218 a 17.5,17.5 0 1 1 -35,0 17.5,17.5 0 1 1 35,0 z"
       transform="matrix(0.3032692,-0.5257427,0.5983439,0.3457597,-233.83475,534.19759)"
       id="path3268"
       style="fill:#502d16;fill-opacity:1;fill-rule:nonzero;stroke:#000000;stroke-width:5.67029381;stroke-linecap:round;stroke-linejoin:round;stroke-miterlimit:4;stroke-opacity:1;stroke-dasharray:none" />
    <path
       d="m 354,671.86218 a 17.5,17.5 0 1 1 -35,0 17.5,17.5 0 1 1 35,0 z"
       transform="matrix(-0.1568634,-0.5863203,-0.667445,0.1791154,862.79387,673.93594)"
       id="path3270"
       style="fill:#502d16;fill-opacity:1;fill-rule:nonzero;stroke:#000000;stroke-width:5.67029381;stroke-linecap:round;stroke-linejoin:round;stroke-miterlimit:4;stroke-opacity:1;stroke-dasharray:none" />
    <path
       d="m 354,671.86218 a 17.5,17.5 0 1 1 -35,0 17.5,17.5 0 1 1 35,0 z"
       transform="matrix(-0.1568634,-0.5863203,-0.667445,0.1791154,855.90788,648.1975)"
       id="path3272"
       style="fill:#502d16;fill-opacity:1;fill-rule:nonzero;stroke:#000000;stroke-width:5.67029381;stroke-linecap:round;stroke-linejoin:round;stroke-miterlimit:4;stroke-opacity:1;stroke-dasharray:none" />
    <path
       d="m 354,671.86218 a 17.5,17.5 0 1 1 -35,0 17.5,17.5 0 1 1 35,0 z"
       transform="matrix(-0.1568634,-0.5863203,-0.667445,0.1791154,852.98906,662.74872)"
       id="path3274"
       style="fill:#502d16;fill-opacity:1;fill-rule:nonzero;stroke:#000000;stroke-width:5.67029381;stroke-linecap:round;stroke-linejoin:round;stroke-miterlimit:4;stroke-opacity:1;stroke-dasharray:none" />
  </g>
</svg>
