<?xml version="1.0" encoding="UTF-8" standalone="no"?>
<!-- Created with Inkscape (http://www.inkscape.org/) -->

<svg
   xmlns:dc="http://purl.org/dc/elements/1.1/"
   xmlns:cc="http://creativecommons.org/ns#"
   xmlns:rdf="http://www.w3.org/1999/02/22-rdf-syntax-ns#"
   xmlns:svg="http://www.w3.org/2000/svg"
   xmlns="http://www.w3.org/2000/svg"
   xmlns:sodipodi="http://sodipodi.sourceforge.net/DTD/sodipodi-0.dtd"
   xmlns:inkscape="http://www.inkscape.org/namespaces/inkscape"
   version="1.0"
   width="504.60999"
   height="504.60999"
   id="svg2"
   inkscape:version="0.47 r22583"
   sodipodi:docname="lemmling-cartoon-giraffe.svg">
  <metadata
     id="metadata3109">
    <rdf:RDF>
      <cc:Work
         rdf:about="">
        <dc:format>image/svg+xml</dc:format>
        <dc:type
           rdf:resource="http://purl.org/dc/dcmitype/StillImage" />
      </cc:Work>
    </rdf:RDF>
  </metadata>
  <sodipodi:namedview
     pagecolor="#ffffff"
     bordercolor="#666666"
     borderopacity="1"
     objecttolerance="10"
     gridtolerance="10"
     guidetolerance="10"
     inkscape:pageopacity="0"
     inkscape:pageshadow="2"
     inkscape:window-width="1280"
     inkscape:window-height="923"
     id="namedview3107"
     showgrid="false"
     inkscape:zoom="0.46768793"
     inkscape:cx="134.47844"
     inkscape:cy="252.30499"
     inkscape:window-x="0"
     inkscape:window-y="24"
     inkscape:window-maximized="1"
     inkscape:current-layer="svg2" />
  <defs
     id="defs4" />
  <g
     transform="translate(-98.900037,-178.057)"
     id="layer1">
    <path
       d="m 441.29462,560.70587 c 0.0148,49.72803 -40.29355,90.04842 -90.02158,90.04842 -49.72803,0 -90.0364,-40.32039 -90.02158,-90.04842 -0.0148,-49.72803 40.29355,-90.04842 90.02158,-90.04842 49.72803,0 90.0364,40.32039 90.02158,90.04842 z"
       transform="matrix(1.2167832,0,0,1.2167832,-76.150099,-121.55162)"
       id="path2383"
       style="fill:#ffcc00;fill-opacity:1;fill-rule:nonzero;stroke:#000000;stroke-width:3.28735638;stroke-linecap:round;stroke-linejoin:round;stroke-miterlimit:4;stroke-opacity:1;stroke-dasharray:none" />
    <path
       d="m 93.338093,349.0455 a 18.031223,15.556349 0 1 1 -36.062447,0 18.031223,15.556349 0 1 1 36.062447,0 z"
       transform="matrix(0.4247339,-0.2447311,0.4879048,0.846765,78.433639,337.30162)"
       id="path3242"
       style="fill:#784421;fill-opacity:1;fill-rule:nonzero;stroke:none" />
    <path
       d="m 454.1875,523.125 c 0.0768,1.68161 0.125,3.39329 0.125,5.09375 0,60.46428 -49.06696,109.53125 -109.53125,109.53125 -47.26217,0 -87.5912,-29.99927 -102.9375,-71.96875 2.65351,58.11219 50.67363,104.46875 109.4375,104.46875 60.46429,0 109.53125,-49.06697 109.53125,-109.53125 0,-13.20218 -2.33815,-25.87003 -6.625,-37.59375 z"
       id="path3221"
       style="fill:#000000;fill-opacity:0.31372549;fill-rule:nonzero;stroke:none" />
    <path
       d="m 359.45331,671.27549 c 0,9.09078 14.66533,9.38135 32.73511,9.38135 18.06978,0 32.73512,0.69349 32.73512,-9.38135 0,-17.71594 -14.66534,-32.0941 -32.73512,-32.0941 -18.06978,0 -32.73511,14.37816 -32.73511,32.0941 z"
       id="path3172"
       style="fill:#784421;fill-opacity:1;fill-rule:nonzero;stroke:#000000;stroke-width:3.99999976;stroke-linecap:round;stroke-linejoin:round;stroke-miterlimit:4;stroke-opacity:1" />
    <path
       d="m 404.77885,680.0559 c 0,-16.36756 -9.44283,-26.43991 -9.44283,-26.43991 0,0 3.77713,13.84948 3.14761,26.43991 l 6.29522,0 z"
       id="path3174"
       style="fill:#000000;fill-opacity:0.31372549;fill-rule:evenodd;stroke:#000000;stroke-width:4;stroke-linecap:butt;stroke-linejoin:round;stroke-miterlimit:4;stroke-opacity:1;stroke-dasharray:none" />
    <path
       d="m 298.73628,487.34467 c 24.5,-37.90099 20,-128.73267 20,-128.73267 l 60,-3.26733 c 0,0 -1.5,91.48515 23.5,130.0396"
       id="path2399"
       style="fill:#ffcc00;fill-opacity:1;fill-rule:evenodd;stroke:#000000;stroke-width:4;stroke-linecap:round;stroke-linejoin:round;stroke-miterlimit:4;stroke-opacity:1;stroke-dasharray:none" />
    <path
       d="m 93.338093,349.0455 a 18.031223,15.556349 0 1 1 -36.062447,0 18.031223,15.556349 0 1 1 36.062447,0 z"
       transform="matrix(0.5834777,0,0,0.9545455,319.84184,61.24961)"
       id="path3244"
       style="fill:#784421;fill-opacity:1;fill-rule:nonzero;stroke:none" />
    <path
       d="m 162,177.28125 -17.15625,0.9375 L 102,180.5625 c 0,0 0.24111,4.85453 0.3125,12.5625 13.15896,8.25632 26.41989,13.0625 35.71875,13.0625 3.3283,0 7.10526,-0.5723 11.15625,-1.65625 6.18631,33.34103 17.66752,80.34255 36.03125,102.5 l -1,0.34375 1.28125,-0.0312 c -17.207,-26.53627 -21.83352,-78.1521 -23.0625,-107.75 -0.13915,-3.3512 -0.24539,-6.4361 -0.3125,-9.15625 -0.051,-2.17381 -0.0751,-4.09727 -0.0937,-5.78125 -0.0171,-1.35694 -0.0272,-2.37691 -0.0312,-3.375 -0.005,-1.55014 -0.006,-1.74795 0,-2.40625 0.002,-1.04455 0,-1.59375 0,-1.59375 z"
       transform="translate(216.72685,178.058)"
       id="path3214"
       style="fill:#000000;fill-opacity:0.31372549;fill-rule:evenodd;stroke:none" />
    <path
       d="m 351.26753,208.56586 c -22.78984,0 -41.27805,6.96787 -54.875,18.59375 -0.57066,-0.42629 -1.34339,-0.8054 -2.34375,-1.25 -55.50788,-10.60661 -74.60539,25.09315 -75.3125,30.75 -0.70711,5.65685 38.51535,14.48465 59.375,-6.375 0.27075,-0.27075 0.45453,-0.45474 0.71875,-0.71875 -6.17132,12.02374 -9.40625,25.96974 -9.40625,40.84375 0,45.17448 56.1255,81.84375 81.84375,81.84375 26.71661,0 81.84375,-36.66927 81.84375,-81.84375 0,-15.04123 -3.46305,-29.13504 -9.9375,-41.25 0.40783,0.40733 0.70122,0.70122 1.125,1.125 20.85965,20.85965 60.08211,12.03185 59.375,6.375 -0.70711,-5.65685 -19.77337,-41.35661 -75.28125,-30.75 -1.17282,0.52125 -2.0848,0.95218 -2.65625,1.46875 -13.73546,-11.74564 -32.20698,-18.8125 -54.46875,-18.8125 z"
       id="path3155"
       style="fill:#ffcc00;fill-opacity:1;fill-rule:nonzero;stroke:#000000;stroke-width:4;stroke-linecap:round;stroke-linejoin:round;stroke-miterlimit:4;stroke-opacity:1" />
    <path
       d="m 347.6435,278.41325 c 0.004,12.51895 -10.14383,22.66953 -22.66277,22.66953 -12.51895,0 -22.66651,-10.15058 -22.66278,-22.66953 -0.004,-12.51894 10.14383,-22.66952 22.66278,-22.66952 12.51894,0 22.6665,10.15058 22.66277,22.66952 z"
       id="path3157"
       style="fill:#ffffff;fill-opacity:1;fill-rule:nonzero;stroke:#000000;stroke-width:3.99999952;stroke-linecap:round;stroke-linejoin:round;stroke-miterlimit:4;stroke-opacity:1;stroke-dasharray:none" />
    <path
       d="m 400.3757,278.41325 c 0.004,12.51895 -10.14383,22.66953 -22.66277,22.66953 -12.51895,0 -22.66651,-10.15058 -22.66278,-22.66953 -0.004,-12.51894 10.14383,-22.66952 22.66278,-22.66952 12.51894,0 22.6665,10.15058 22.66277,22.66952 z"
       id="path3159"
       style="fill:#ffffff;fill-opacity:1;fill-rule:nonzero;stroke:#000000;stroke-width:3.99999952;stroke-linecap:round;stroke-linejoin:round;stroke-miterlimit:4;stroke-opacity:1;stroke-dasharray:none" />
    <path
       d="m 380.23101,282.41325 c 10e-4,4.17298 -3.38127,7.55651 -7.55425,7.55651 -4.17298,0 -7.5555,-3.38353 -7.55425,-7.55651 -10e-4,-4.17298 3.38127,-7.5565 7.55425,-7.5565 4.17298,0 7.5555,3.38352 7.55425,7.5565 z"
       id="path3161"
       style="fill:#000000;fill-opacity:1;fill-rule:nonzero;stroke:none" />
    <path
       d="m 338.20067,282.41325 c 10e-4,4.17298 -3.38127,7.55651 -7.55425,7.55651 -4.17298,0 -7.5555,-3.38353 -7.55425,-7.55651 -0.001,-4.17298 3.38127,-7.5565 7.55425,-7.5565 4.17298,0 7.5555,3.38352 7.55425,7.5565 z"
       id="path3163"
       style="fill:#000000;fill-opacity:1;fill-rule:nonzero;stroke:none" />
    <path
       d="m 425.6875,251.49017 c 1.75462,7.63243 2.625,15.72251 2.625,24.125 0,45.17449 -55.12714,81.84375 -81.84375,81.84375 -20.70581,2e-5 -61.09673,-23.75565 -76.0625,-56.59375 7.61581,40.24628 57.1719,71.37501 80.875,71.375 26.71661,0 81.84375,-36.6693 81.84375,-81.84375 0,-14.08051 -2.41267,-27.33197 -7.4375,-38.90625 z"
       id="path3231"
       style="fill:#000000;fill-opacity:0.31372549;fill-rule:nonzero;stroke:none" />
    <path
       d="m 344.4555,671.27549 c 0,9.09078 -14.66533,9.38135 -32.73511,9.38135 -18.06978,0 -32.73512,0.69349 -32.73512,-9.38135 0,-17.71594 14.66534,-32.0941 32.73512,-32.0941 18.06978,0 32.73511,14.37816 32.73511,32.0941 z"
       id="path3329"
       style="fill:#784421;fill-opacity:1;fill-rule:nonzero;stroke:#000000;stroke-width:3.99999976;stroke-linecap:round;stroke-linejoin:round;stroke-miterlimit:4;stroke-opacity:1" />
    <path
       d="m 299.12996,680.0559 c 0,-16.36756 9.44283,-26.43991 9.44283,-26.43991 0,0 -3.77713,13.84948 -3.14761,26.43991 l -6.29522,0 z"
       id="path3331"
       style="fill:#000000;fill-opacity:0.31372549;fill-rule:evenodd;stroke:#000000;stroke-width:4;stroke-linecap:butt;stroke-linejoin:round;stroke-miterlimit:4;stroke-opacity:1;stroke-dasharray:none" />
    <path
       d="m 367.86847,343.04459 c -2.29272,3.97309 -6.50025,5.8386 -9.39677,4.16629 -2.89654,-1.67231 -3.38472,-6.2489 -1.09029,-10.22099 2.29273,-3.9731 6.50026,-5.83861 9.39679,-4.1663 2.89653,1.67231 3.38471,6.2489 1.09027,10.221 z"
       id="path2398"
       style="fill:#000000;fill-opacity:1;fill-rule:nonzero;stroke:none" />
    <path
       d="m 335.13142,343.04459 c 2.29272,3.97309 6.50025,5.8386 9.39677,4.16629 2.89654,-1.67231 3.38472,-6.2489 1.09029,-10.22099 -2.29273,-3.9731 -6.50026,-5.83861 -9.39679,-4.1663 -2.89653,1.67231 -3.38471,6.2489 -1.09027,10.221 z"
       id="path2412"
       style="fill:#000000;fill-opacity:1;fill-rule:nonzero;stroke:none" />
    <path
       d="m 317.51803,224.48441 c 5.65685,-10.25305 -6.01041,-22.62742 -6.01041,-22.62742 l 17.32411,-4.24264 c 0,0 -2.47487,15.55634 6.71752,21.2132"
       id="path3224"
       style="fill:#ffcc00;fill-opacity:1;fill-rule:evenodd;stroke:#000000;stroke-width:4;stroke-linecap:round;stroke-linejoin:miter;stroke-miterlimit:4;stroke-opacity:1;stroke-dasharray:none" />
    <path
       d="m 82.37794,-127.96103 a 15.379573,15.379573 0 1 1 -30.759146,0 15.379573,15.379573 0 1 1 30.759146,0 z"
       transform="translate(251.73628,323.3986)"
       id="path3186"
       style="fill:#784421;fill-opacity:1;fill-rule:nonzero;stroke:#000000;stroke-width:4;stroke-linecap:round;stroke-linejoin:round;stroke-miterlimit:4;stroke-opacity:1;stroke-dasharray:none" />
    <path
       d="m 418.58739,232.50248 c 35.78161,-4.56749 52.52347,16.96496 53.83655,20.22745 1.31309,3.26248 -35.12506,10.11372 -53.83655,-20.22745 z"
       id="path3190"
       style="fill:#d4aa00;fill-opacity:1;fill-rule:evenodd;stroke:#000000;stroke-width:3.99999976;stroke-linecap:butt;stroke-linejoin:round;stroke-miterlimit:4;stroke-opacity:1;stroke-dasharray:none" />
    <path
       d="m 384.69317,224.48441 c -5.65685,-10.25305 6.01041,-22.62742 6.01041,-22.62742 l -17.32411,-4.24264 c 0,0 2.47487,15.55634 -6.71752,21.2132"
       id="path3228"
       style="fill:#ffcc00;fill-opacity:1;fill-rule:evenodd;stroke:#000000;stroke-width:4;stroke-linecap:round;stroke-linejoin:miter;stroke-miterlimit:4;stroke-opacity:1;stroke-dasharray:none" />
    <path
       d="m 82.37794,-127.96103 a 15.379573,15.379573 0 1 1 -30.759146,0 15.379573,15.379573 0 1 1 30.759146,0 z"
       transform="translate(315.73628,323.3986)"
       id="path3222"
       style="fill:#784421;fill-opacity:1;fill-rule:nonzero;stroke:#000000;stroke-width:4;stroke-linecap:round;stroke-linejoin:round;stroke-miterlimit:4;stroke-opacity:1;stroke-dasharray:none" />
    <path
       d="m 93.338093,349.0455 a 18.031223,15.556349 0 1 1 -36.062447,0 18.031223,15.556349 0 1 1 36.062447,0 z"
       transform="matrix(0.7236651,0.1774259,-0.3247149,1.324411,330.7245,54.997956)"
       id="path3230"
       style="fill:#784421;fill-opacity:1;fill-rule:nonzero;stroke:none" />
    <path
       d="m 93.338093,349.0455 a 18.031223,15.556349 0 1 1 -36.062447,0 18.031223,15.556349 0 1 1 36.062447,0 z"
       transform="matrix(1.3529412,0,0,1.659091,231.86725,-11.336083)"
       id="path3232"
       style="fill:#784421;fill-opacity:1;fill-rule:nonzero;stroke:none" />
    <path
       d="m 93.338093,349.0455 a 18.031223,15.556349 0 1 1 -36.062447,0 18.031223,15.556349 0 1 1 36.062447,0 z"
       transform="matrix(0.4464393,-0.1488131,0.3018538,0.9055614,288.46403,217.27829)"
       id="path3234"
       style="fill:#784421;fill-opacity:1;fill-rule:nonzero;stroke:none" />
    <path
       d="m 93.338093,349.0455 a 18.031223,15.556349 0 1 1 -36.062447,0 18.031223,15.556349 0 1 1 36.062447,0 z"
       transform="matrix(0.6666667,0,0,0.9545455,359.07713,257.24961)"
       id="path3236"
       style="fill:#784421;fill-opacity:1;fill-rule:nonzero;stroke:none" />
    <path
       d="m 93.338093,349.0455 a 18.031223,15.556349 0 1 1 -36.062447,0 18.031223,15.556349 0 1 1 36.062447,0 z"
       transform="matrix(1.0588236,0,0,1.3636364,296.79628,35.576016)"
       id="path3238"
       style="fill:#784421;fill-opacity:1;fill-rule:nonzero;stroke:none" />
    <path
       d="m 93.338093,349.0455 a 18.031223,15.556349 0 1 1 -36.062447,0 18.031223,15.556349 0 1 1 36.062447,0 z"
       transform="matrix(0.7254902,0,0,1.3636364,279.11862,-35.448371)"
       id="path3240"
       style="fill:#784421;fill-opacity:1;fill-rule:nonzero;stroke:none" />
    <path
       d="m 283.45849,232.50248 c -35.78161,-4.56749 -52.52347,16.96496 -53.83655,20.22745 -1.31309,3.26248 35.12506,10.11372 53.83655,-20.22745 z"
       id="path3246"
       style="fill:#d4aa00;fill-opacity:1;fill-rule:evenodd;stroke:#000000;stroke-width:3.99999976;stroke-linecap:butt;stroke-linejoin:round;stroke-miterlimit:4;stroke-opacity:1;stroke-dasharray:none" />
  </g>
</svg>
