<?xml version="1.0" encoding="UTF-8" standalone="no"?>
<!-- Created with Inkscape (http://www.inkscape.org/) -->

<svg
   xmlns:dc="http://purl.org/dc/elements/1.1/"
   xmlns:cc="http://creativecommons.org/ns#"
   xmlns:rdf="http://www.w3.org/1999/02/22-rdf-syntax-ns#"
   xmlns:svg="http://www.w3.org/2000/svg"
   xmlns="http://www.w3.org/2000/svg"
   xmlns:xlink="http://www.w3.org/1999/xlink"
   xmlns:sodipodi="http://sodipodi.sourceforge.net/DTD/sodipodi-0.dtd"
   xmlns:inkscape="http://www.inkscape.org/namespaces/inkscape"
   version="1.0"
   width="370.10001"
   height="370.10001"
   id="svg2"
   inkscape:version="0.47 r22583"
   sodipodi:docname="lemmling-cartoon-penguin.svg">
  <metadata
     id="metadata3289">
    <rdf:RDF>
      <cc:Work
         rdf:about="">
        <dc:format>image/svg+xml</dc:format>
        <dc:type
           rdf:resource="http://purl.org/dc/dcmitype/StillImage" />
      </cc:Work>
    </rdf:RDF>
  </metadata>
  <sodipodi:namedview
     pagecolor="#ffffff"
     bordercolor="#666666"
     borderopacity="1"
     objecttolerance="10"
     gridtolerance="10"
     guidetolerance="10"
     inkscape:pageopacity="0"
     inkscape:pageshadow="2"
     inkscape:window-width="640"
     inkscape:window-height="504"
     id="namedview3287"
     showgrid="false"
     inkscape:zoom="0.63766549"
     inkscape:cx="184.71401"
     inkscape:cy="185.05"
     inkscape:window-x="0"
     inkscape:window-y="24"
     inkscape:window-maximized="0"
     inkscape:current-layer="svg2" />
  <defs
     id="defs4">
    <linearGradient
       id="linearGradient4098">
      <stop
         id="stop4100"
         style="stop-color:#ffb142;stop-opacity:1"
         offset="0" />
      <stop
         id="stop4104"
         style="stop-color:#c87600;stop-opacity:1"
         offset="1" />
    </linearGradient>
    <linearGradient
       id="linearGradient3203">
      <stop
         id="stop3205"
         style="stop-color:#ffb142;stop-opacity:1"
         offset="0" />
      <stop
         id="stop4092"
         style="stop-color:#ffb141;stop-opacity:1"
         offset="0.88679248" />
      <stop
         id="stop3207"
         style="stop-color:#c87600;stop-opacity:1"
         offset="1" />
    </linearGradient>
    <linearGradient
       id="linearGradient3173">
      <stop
         id="stop3175"
         style="stop-color:#a5a5a5;stop-opacity:1"
         offset="0" />
      <stop
         id="stop3177"
         style="stop-color:#000000;stop-opacity:1"
         offset="1" />
    </linearGradient>
    <linearGradient
       x1="346.23685"
       y1="537.41357"
       x2="359.4718"
       y2="537.41357"
       id="linearGradient3211"
       xlink:href="#linearGradient4098"
       gradientUnits="userSpaceOnUse"
       gradientTransform="translate(0,-2)" />
    <radialGradient
       cx="488.9509"
       cy="582.84967"
       r="167.56416"
       fx="488.9509"
       fy="582.84967"
       id="radialGradient3475"
       xlink:href="#linearGradient3173"
       gradientUnits="userSpaceOnUse"
       gradientTransform="matrix(0,-1.4798236,1.3254777,-3.8490756e-6,-461.82595,1155.7364)" />
    <radialGradient
       cx="355.12189"
       cy="615.60382"
       r="59.254597"
       fx="355.12189"
       fy="615.60382"
       id="radialGradient3483"
       xlink:href="#linearGradient3173"
       gradientUnits="userSpaceOnUse"
       gradientTransform="matrix(-2.8421614e-8,-2.2818022,2.0267841,0,-1051.3358,1276.6775)" />
    <radialGradient
       cx="414.68207"
       cy="-8.8804731"
       r="123.54523"
       fx="414.68207"
       fy="-8.8804731"
       id="radialGradient4090"
       xlink:href="#linearGradient3203"
       gradientUnits="userSpaceOnUse"
       gradientTransform="matrix(-5.8290882e-6,0.8941855,-1.9479265,1.125115e-8,336.39141,255.17411)" />
    <radialGradient
       cx="347.67834"
       cy="652.27606"
       r="59.254597"
       fx="347.67834"
       fy="652.27606"
       id="radialGradient4126"
       xlink:href="#linearGradient3173"
       gradientUnits="userSpaceOnUse"
       gradientTransform="matrix(2.8421614e-8,-2.2818022,-2.0267841,0,1762.0945,1276.6775)" />
  </defs>
  <g
     transform="translate(-170.32933,-366.20299)"
     id="layer1">
    <path
       d="m 318.90625,673.34375 c -48.08326,4.94972 -103.23281,43.85847 -81.3125,52.34375 21.9203,8.4853 85.54168,12.02449 97.5625,2.125 6.17704,-5.08698 17.22878,-17.82688 18.53125,-29.78125 1.30423,11.95336 12.32356,24.69476 18.5,29.78125 12.02082,9.89949 75.67344,6.3603 97.59375,-2.125 21.92031,-8.48528 -33.22923,-47.39403 -81.3125,-52.34375 -24.75979,2.38648 -33.6655,10.70581 -34.78125,20.25 -1.11575,-9.54419 -10.02146,-17.86352 -34.78125,-20.25 z"
       id="path3806"
       style="fill:url(#radialGradient4090);fill-opacity:1;fill-rule:evenodd;stroke:#000000;stroke-width:5;stroke-linecap:butt;stroke-linejoin:miter;stroke-miterlimit:4;stroke-opacity:1;stroke-dasharray:none" />
    <path
       d="m 148.25,307.15625 c -23.60045,2.42945 -48.880982,13.04009 -65.9375,24.21875 25.83249,11.94683 57.41759,19.30933 91.65625,20.15625 4.38726,-5.77238 8.31756,-12.85024 9.0625,-19.6875 0.73903,6.77327 4.57719,13.78803 8.90625,19.53125 33.67611,-1.42584 64.60657,-9.14573 89.78125,-21.3125 -16.99533,-10.69111 -41.22228,-20.57115 -63.90625,-22.90625 -24.75979,2.38649 -33.6655,10.70581 -34.78125,20.25 -1.11575,-9.54418 -10.02146,-17.86352 -34.78125,-20.25 z"
       transform="translate(170.66411,366.20177)"
       id="path3194"
       style="fill:#000000;fill-opacity:0.31372549;fill-rule:evenodd;stroke:none" />
    <path
       d="m 516.8372,534.26593 a 165.56416,165.56416 0 1 1 -331.12832,0 165.56416,165.56416 0 1 1 331.12832,0 z"
       id="path2385"
       style="fill:url(#radialGradient3475);fill-opacity:1;fill-rule:nonzero;stroke:#000000;stroke-width:5;stroke-linecap:round;stroke-linejoin:miter;stroke-miterlimit:4;stroke-opacity:1;stroke-dasharray:none" />
    <path
       d="m 317.28125,424.09375 c -22.93473,0 -41.5625,21.43405 -41.5625,47.84375 0,26.40969 18.62777,47.84375 41.5625,47.84375 13.47812,0 25.43856,-7.41051 33.03125,-18.875 7.59217,11.47281 19.57866,18.875 33.0625,18.875 22.93473,0 41.56249,-21.43407 41.5625,-47.84375 0,-26.40969 -18.62777,-47.84374 -41.5625,-47.84375 -13.48227,0 -25.47019,7.40447 -33.0625,18.875 -7.59284,-11.46201 -19.55484,-18.87499 -33.03125,-18.875 z"
       id="path2387"
       style="fill:#ffffff;fill-opacity:1;fill-rule:nonzero;stroke:#000000;stroke-width:5;stroke-linecap:round;stroke-linejoin:miter;stroke-miterlimit:4;stroke-opacity:1;stroke-dasharray:none" />
    <path
       d="m 418.63184,583.05383 a 70.821175,70.821175 0 1 1 -141.64235,0 70.821175,70.821175 0 1 1 141.64235,0 z"
       transform="matrix(1.1333333,0,0,1.1333333,-41.338584,-43.746347)"
       id="path3167"
       style="fill:#ffffff;fill-opacity:1;fill-rule:nonzero;stroke:#000000;stroke-width:4.41176462;stroke-linecap:round;stroke-linejoin:miter;stroke-miterlimit:4;stroke-opacity:1;stroke-dasharray:none" />
    <path
       d="m 339.65625,122.03125 c 0.33607,4.30484 0.53125,8.64061 0.53125,13.03125 0,91.39142 -74.20233,165.5625 -165.59375,165.5625 -75.420172,0 -139.072758,-50.51292 -159.03125,-119.53125 6.659307,85.30068 78.030468,152.53125 165.03125,152.53125 91.39142,0 165.59375,-74.17108 165.59375,-165.5625 0,-15.97125 -2.30477,-31.41568 -6.53125,-46.03125 z"
       transform="translate(170.66411,366.20177)"
       id="path2411"
       style="fill:#000000;fill-opacity:0.31372549;fill-rule:nonzero;stroke:none" />
    <path
       d="m 352.29932,506.61344 c -14.479,0 -30.21704,13.18616 -29.58752,21.51425 0.62952,8.3281 25.81039,43.02853 31.47608,43.02853 5.6657,0 27.69895,-34.00642 27.06943,-43.72254 -0.62952,-9.71611 -19.51517,-21.51426 -28.95799,-20.82024 z"
       id="path3393"
       style="fill:#000000;fill-opacity:0.31372549;fill-rule:evenodd;stroke:none" />
    <path
       d="m 350.01399,498.27178 c -14.479,0 -30.21704,11.96091 -29.58752,19.51516 0.62952,7.55426 25.81039,39.03034 31.47608,39.03034 5.6657,0 27.69895,-30.84656 27.06943,-39.65986 -0.62952,-8.8133 -19.51517,-19.51517 -28.95799,-18.88564 z"
       id="path2391"
       style="fill:url(#linearGradient3211);fill-opacity:1;fill-rule:evenodd;stroke:#000000;stroke-width:5;stroke-linecap:butt;stroke-linejoin:miter;stroke-miterlimit:4;stroke-opacity:1;stroke-dasharray:none" />
    <path
       d="m 340.57116,487.36658 a 10.387106,10.387106 0 1 1 -20.77421,0 10.387106,10.387106 0 1 1 20.77421,0 z"
       transform="translate(2.4772587,-7)"
       id="path3163"
       style="fill:#000000;fill-opacity:1;fill-rule:nonzero;stroke:#000000;stroke-width:5;stroke-linecap:round;stroke-linejoin:miter;stroke-miterlimit:4;stroke-opacity:1;stroke-dasharray:none" />
    <path
       d="m 340.57116,487.36658 a 10.387106,10.387106 0 1 1 -20.77421,0 10.387106,10.387106 0 1 1 20.77421,0 z"
       transform="translate(39.659858,-7)"
       id="path3165"
       style="fill:#000000;fill-opacity:1;fill-rule:nonzero;stroke:#000000;stroke-width:5;stroke-linecap:round;stroke-linejoin:miter;stroke-miterlimit:4;stroke-opacity:1;stroke-dasharray:none" />
    <path
       d="m 226.40068,497.24676 c 48.1112,17.30003 -14.16343,94.14271 37.81914,161.19179 9.60838,12.39326 -57.86796,2.09077 -81.72278,-66.58505 -23.19831,-66.78576 -1.13236,-107.53908 43.90364,-94.60674 z"
       id="path3169"
       style="fill:#ffffff;fill-opacity:1;fill-rule:evenodd;stroke:#000000;stroke-width:5;stroke-linecap:butt;stroke-linejoin:miter;stroke-miterlimit:4;stroke-opacity:1;stroke-dasharray:none" />
    <path
       d="m 226.40068,497.24676 c 48.1112,17.30003 -42.58837,102.12367 37.81914,161.19179 22.62647,16.62162 -57.86796,2.09077 -81.72278,-66.58505 -23.19831,-66.78576 -1.13236,-107.53908 43.90364,-94.60674 z"
       id="path3793"
       style="fill:url(#radialGradient3483);fill-opacity:1;fill-rule:evenodd;stroke:#000000;stroke-width:5;stroke-linecap:butt;stroke-linejoin:miter;stroke-miterlimit:4;stroke-opacity:1;stroke-dasharray:none" />
    <path
       d="m 484.35799,497.24676 c -48.1112,17.30003 14.16343,94.14271 -37.81914,161.19179 -9.60838,12.39326 57.86796,2.09077 81.72278,-66.58505 23.19831,-66.78576 1.13236,-107.53908 -43.90364,-94.60674 z"
       id="path3800"
       style="fill:#ffffff;fill-opacity:1;fill-rule:evenodd;stroke:#000000;stroke-width:5;stroke-linecap:butt;stroke-linejoin:miter;stroke-miterlimit:4;stroke-opacity:1;stroke-dasharray:none" />
    <path
       d="m 484.35799,497.24676 c -48.1112,17.30003 42.58837,102.12367 -37.81914,161.19179 -22.62647,16.62162 57.86796,2.09077 81.72278,-66.58505 23.19831,-66.78576 1.13236,-107.53908 -43.90364,-94.60674 z"
       id="path3802"
       style="fill:url(#radialGradient4126);fill-opacity:1;fill-rule:evenodd;stroke:#000000;stroke-width:5;stroke-linecap:butt;stroke-linejoin:miter;stroke-miterlimit:4;stroke-opacity:1;stroke-dasharray:none" />
  </g>
</svg>
