<?xml version="1.0" encoding="UTF-8" standalone="no"?>
<!-- Created with Inkscape (http://www.inkscape.org/) -->
<svg
   xmlns:svg="http://www.w3.org/2000/svg"
   xmlns="http://www.w3.org/2000/svg"
   version="1.0"
   width="223.0735"
   height="298.60114"
   id="svg2">
  <defs
     id="defs4" />
  <g
     transform="translate(-239.73628,-384.06586)"
     id="layer1">
    <path
       d="M 441.29462,560.70587 C 441.30944,610.4339 401.00107,650.75429 351.27304,650.75429 C 301.54501,650.75429 261.23664,610.4339 261.25146,560.70587 C 261.23664,510.97784 301.54501,470.65745 351.27304,470.65745 C 401.00107,470.65745 441.30944,510.97784 441.29462,560.70587 z"
       transform="matrix(1.2167832,0,0,1.2167832,-76.150099,-121.55162)"
       id="path2383"
       style="opacity:1;fill:#784421;fill-opacity:1;fill-rule:nonzero;stroke:#000000;stroke-width:3.28735638;stroke-linecap:round;stroke-linejoin:round;stroke-miterlimit:4;stroke-dasharray:none;stroke-opacity:1" />
    <path
       d="M 454.1875,523.125 C 454.26429,524.80661 454.3125,526.51829 454.3125,528.21875 C 454.3125,588.68303 405.24554,637.75 344.78125,637.75 C 297.51908,637.75 257.19005,607.75073 241.84375,565.78125 C 244.49726,623.89344 292.51738,670.25 351.28125,670.25 C 411.74554,670.25 460.8125,621.18303 460.8125,560.71875 C 460.8125,547.51657 458.47435,534.84872 454.1875,523.125 z"
       id="path3221"
       style="opacity:1;fill:#000000;fill-opacity:0.31372549;fill-rule:nonzero;stroke:none;stroke-width:4;stroke-linecap:round;stroke-linejoin:round;stroke-miterlimit:4;stroke-dasharray:none;stroke-opacity:1" />
    <path
       d="M 359.45331,671.27549 C 359.45331,680.36627 374.11864,680.65684 392.18842,680.65684 C 410.2582,680.65684 424.92354,681.35033 424.92354,671.27549 C 424.92354,653.55955 410.2582,639.18139 392.18842,639.18139 C 374.11864,639.18139 359.45331,653.55955 359.45331,671.27549 z"
       id="path3172"
       style="fill:#502d16;fill-opacity:1;fill-rule:nonzero;stroke:#000000;stroke-width:3.99999976;stroke-linecap:round;stroke-linejoin:round;stroke-miterlimit:4;stroke-opacity:1" />
    <path
       d="M 435.90825,525.42049 C 435.90825,570.59497 380.78706,607.2583 354.07045,607.2583 C 328.3522,607.2583 272.23265,570.59497 272.23265,525.42049 C 272.23265,480.24603 296.85768,443.58269 354.07045,443.58269 C 411.29304,443.58269 435.90825,480.24603 435.90825,525.42049 z"
       id="path3236"
       style="fill:#000000;fill-opacity:0.31372549;fill-rule:nonzero;stroke:none;stroke-width:4;stroke-linecap:round;stroke-linejoin:round;stroke-miterlimit:4;stroke-opacity:1" />
    <path
       d="M 332.68687,584.91435 C 323.34888,603.29912 326.78919,609.66308 328.26361,612.13795 C 329.73803,614.61283 335.26708,594.7623 338.09308,598.34938 C 341.44327,602.60183 338.58455,614.96639 339.5675,624.15877 C 340.55044,633.35116 344.51839,643.998 345.46518,640.42223 C 347.43108,632.99761 349.88843,607.54177 354.80317,614.61284 C 359.7179,621.6839 364.42118,637.42905 366.59853,631.5834 C 368.45064,626.61099 360.70085,605.774 364.14116,601.53136 C 367.58148,597.28872 372.98768,614.61284 374.95359,609.66309 C 376.91947,604.71334 378.88536,593.39963 372.00474,585.2679 C 365.12411,577.13618 332.68687,584.56079 332.68687,584.91435 z"
       id="path3203"
       style="fill:#502d16;fill-opacity:1;fill-rule:evenodd;stroke:#000000;stroke-width:4;stroke-linecap:butt;stroke-linejoin:miter;stroke-miterlimit:4;stroke-dasharray:none;stroke-opacity:1" />
    <path
       d="M 404.77885,680.0559 C 404.77885,663.68834 395.33602,653.61599 395.33602,653.61599 C 395.33602,653.61599 399.11315,667.46547 398.48363,680.0559 L 404.77885,680.0559 z"
       id="path3174"
       style="fill:#000000;fill-opacity:0.31372549;fill-rule:evenodd;stroke:#000000;stroke-width:4;stroke-linecap:butt;stroke-linejoin:round;stroke-miterlimit:4;stroke-dasharray:none;stroke-opacity:1" />
    <path
       d="M 108.875,46.34375 C 78.74575,46.954339 57.943326,57.997019 45.25,75.09375 C 21.18556,72.505958 1.1875,98.71875 1.1875,98.71875 C 1.1875,98.718752 20.07863,108.16507 33.25,100.25 C 30.850771,108.96172 29.6875,118.35595 29.6875,128.15625 C 29.6875,173.33073 85.813002,210 111.53125,210 C 138.24786,210 193.375,173.33073 193.375,128.15625 C 193.375,118.35595 192.21111,108.96172 189.8125,100.25 C 202.98387,108.16507 221.84375,98.718749 221.84375,98.71875 C 221.84375,98.71875 201.87253,72.51419 177.8125,75.09375 C 164.75084,57.498762 143.10482,46.34375 111.53125,46.34375 C 110.6373,46.34375 109.75307,46.325955 108.875,46.34375 z"
       transform="translate(239.73628,384.06586)"
       id="path3155"
       style="fill:#784421;fill-opacity:1;fill-rule:nonzero;stroke:#000000;stroke-width:4;stroke-linecap:round;stroke-linejoin:round;stroke-miterlimit:4;stroke-opacity:1" />
    <path
       d="M 441.29462,560.70587 C 441.30944,610.4339 401.00107,650.75429 351.27304,650.75429 C 301.54501,650.75429 261.23664,610.4339 261.25146,560.70587 C 261.23664,510.97784 301.54501,470.65745 351.27304,470.65745 C 401.00107,470.65745 441.30944,510.97784 441.29462,560.70587 z"
       transform="matrix(0.2517482,0,0,0.2517482,236.54837,359.07889)"
       id="path3157"
       style="opacity:1;fill:#ffffff;fill-opacity:1;fill-rule:nonzero;stroke:#000000;stroke-width:15.88889027;stroke-linecap:round;stroke-linejoin:round;stroke-miterlimit:4;stroke-dasharray:none;stroke-opacity:1" />
    <path
       d="M 441.29462,560.70587 C 441.30944,610.4339 401.00107,650.75429 351.27304,650.75429 C 301.54501,650.75429 261.23664,610.4339 261.25146,560.70587 C 261.23664,510.97784 301.54501,470.65745 351.27304,470.65745 C 401.00107,470.65745 441.30944,510.97784 441.29462,560.70587 z"
       transform="matrix(0.2517482,0,0,0.2517482,289.28057,359.07889)"
       id="path3159"
       style="opacity:1;fill:#ffffff;fill-opacity:1;fill-rule:nonzero;stroke:#000000;stroke-width:15.88889027;stroke-linecap:round;stroke-linejoin:round;stroke-miterlimit:4;stroke-dasharray:none;stroke-opacity:1" />
    <path
       d="M 441.29462,560.70587 C 441.30944,610.4339 401.00107,650.75429 351.27304,650.75429 C 301.54501,650.75429 261.23664,610.4339 261.25146,560.70587 C 261.23664,510.97784 301.54501,470.65745 351.27304,470.65745 C 401.00107,470.65745 441.30944,510.97784 441.29462,560.70587 z"
       transform="matrix(8.3916033e-2,0,0,8.3916033e-2,343.19932,457.18337)"
       id="path3161"
       style="opacity:1;fill:#000000;fill-opacity:1;fill-rule:nonzero;stroke:none;stroke-width:47.66669083;stroke-linecap:round;stroke-linejoin:round;stroke-miterlimit:4;stroke-dasharray:none;stroke-opacity:1" />
    <path
       d="M 441.29462,560.70587 C 441.30944,610.4339 401.00107,650.75429 351.27304,650.75429 C 301.54501,650.75429 261.23664,610.4339 261.25146,560.70587 C 261.23664,510.97784 301.54501,470.65745 351.27304,470.65745 C 401.00107,470.65745 441.30944,510.97784 441.29462,560.70587 z"
       transform="matrix(8.3916033e-2,0,0,8.3916033e-2,301.16898,457.18337)"
       id="path3163"
       style="opacity:1;fill:#000000;fill-opacity:1;fill-rule:nonzero;stroke:none;stroke-width:47.66669083;stroke-linecap:round;stroke-linejoin:round;stroke-miterlimit:4;stroke-dasharray:none;stroke-opacity:1" />
    <path
       d="M 357.25127,429.20532 C 373.46269,385.61343 412.16144,432.30005 423.25736,424.09872 C 434.75736,415.59872 425.25736,392.09872 429.25736,386.59872 C 433.25736,381.09872 451.86828,419.65663 444.25736,434.09872 C 436.80525,448.23946 405.24339,447.0348 384.56497,446.89161 C 372.89099,446.81567 354.77639,436.7764 357.25127,429.20532 z"
       id="path3179"
       style="fill:#502d16;fill-opacity:1;fill-rule:evenodd;stroke:#000000;stroke-width:4;stroke-linecap:butt;stroke-linejoin:miter;stroke-miterlimit:4;stroke-dasharray:none;stroke-opacity:1" />
    <path
       d="M 190.09375,101.34375 L 188.21875,104 C 188.46763,107.07548 188.5625,110.20264 188.5625,113.375 C 188.5625,158.54949 133.43536,195.21875 106.71875,195.21875 C 86.012942,195.21877 45.62202,171.4631 30.65625,138.625 C 38.27206,178.87128 87.82815,210.00001 111.53125,210 C 138.24786,210 193.375,173.3307 193.375,128.15625 C 193.375,118.7647 192.29962,109.74599 190.09375,101.34375 z"
       transform="translate(239.73628,384.06586)"
       id="path3231"
       style="fill:#000000;fill-opacity:0.31372549;fill-rule:nonzero;stroke:none;stroke-width:4;stroke-linecap:round;stroke-linejoin:round;stroke-miterlimit:4;stroke-opacity:1" />
    <path
       d="M 344.4555,671.27549 C 344.4555,680.36627 329.79017,680.65684 311.72039,680.65684 C 293.65061,680.65684 278.98527,681.35033 278.98527,671.27549 C 278.98527,653.55955 293.65061,639.18139 311.72039,639.18139 C 329.79017,639.18139 344.4555,653.55955 344.4555,671.27549 z"
       id="path3329"
       style="fill:#502d16;fill-opacity:1;fill-rule:nonzero;stroke:#000000;stroke-width:3.99999976;stroke-linecap:round;stroke-linejoin:round;stroke-miterlimit:4;stroke-opacity:1" />
    <path
       d="M 299.12996,680.0559 C 299.12996,663.68834 308.57279,653.61599 308.57279,653.61599 C 308.57279,653.61599 304.79566,667.46547 305.42518,680.0559 L 299.12996,680.0559 z"
       id="path3331"
       style="fill:#000000;fill-opacity:0.31372549;fill-rule:evenodd;stroke:#000000;stroke-width:4;stroke-linecap:butt;stroke-linejoin:round;stroke-miterlimit:4;stroke-dasharray:none;stroke-opacity:1" />
    <path
       d="M 367.86847,564.86692 C 365.57575,568.84001 361.36822,570.70552 358.4717,569.03321 C 355.57516,567.3609 355.08698,562.78431 357.38141,558.81222 C 359.67414,554.83912 363.88167,552.97361 366.7782,554.64592 C 369.67473,556.31823 370.16291,560.89482 367.86847,564.86692 z"
       id="path2398"
       style="opacity:1;fill:#000000;fill-opacity:1;fill-rule:nonzero;stroke:none;stroke-width:47.66669083;stroke-linecap:round;stroke-linejoin:round;stroke-miterlimit:4;stroke-dasharray:none;stroke-opacity:1" />
    <path
       d="M 335.13142,564.86692 C 337.42414,568.84001 341.63167,570.70552 344.52819,569.03321 C 347.42473,567.3609 347.91291,562.78431 345.61848,558.81222 C 343.32575,554.83912 339.11822,552.97361 336.22169,554.64592 C 333.32516,556.31823 332.83698,560.89482 335.13142,564.86692 z"
       id="path2412"
       style="opacity:1;fill:#000000;fill-opacity:1;fill-rule:nonzero;stroke:none;stroke-width:47.66669083;stroke-linecap:round;stroke-linejoin:round;stroke-miterlimit:4;stroke-dasharray:none;stroke-opacity:1" />
    <path
       d="M 344.83735,429.20532 C 328.62593,385.61343 289.92718,432.30005 278.83126,424.09872 C 267.33126,415.59872 276.83126,392.09872 272.83126,386.59872 C 268.83126,381.09872 250.22034,419.65663 257.83126,434.09872 C 265.28337,448.23946 296.84523,447.0348 317.52365,446.89161 C 329.19763,446.81567 347.31223,436.7764 344.83735,429.20532 z"
       id="path2399"
       style="fill:#502d16;fill-opacity:1;fill-rule:evenodd;stroke:#000000;stroke-width:4;stroke-linecap:butt;stroke-linejoin:miter;stroke-miterlimit:4;stroke-dasharray:none;stroke-opacity:1" />
  </g>
</svg>
