<?xml version="1.0" encoding="UTF-8" standalone="no"?>
<!-- Created with Inkscape (http://www.inkscape.org/) -->
<svg
   xmlns:svg="http://www.w3.org/2000/svg"
   xmlns="http://www.w3.org/2000/svg"
   version="1.0"
   width="269.79742"
   height="257.63879"
   id="svg2">
  <defs
     id="defs4" />
  <path
     d="M 243.76589,129.56938 C 243.78392,190.07761 194.73738,239.13879 134.22914,239.13879 C 73.720914,239.13879 24.674367,190.07761 24.6924,129.56938 C 24.674367,69.06115 73.720914,19.999978 134.22914,19.999978 C 194.73738,19.999978 243.78392,69.06115 243.76589,129.56938 z"
     id="path2383"
     style="fill:#939dac;fill-opacity:1;fill-rule:nonzero;stroke:#000000;stroke-width:4;stroke-linecap:round;stroke-linejoin:round;stroke-miterlimit:4;stroke-dasharray:none;stroke-opacity:1" />
  <path
     d="M 243.34375,139.15625 C 222.50947,184.85244 176.40807,216.625 122.90625,216.625 C 92.579322,216.625 64.655381,206.41424 42.34375,189.25 C 61.877736,219.28088 95.722245,239.125 134.21875,239.125 C 191.49754,239.125 238.5044,195.17692 243.34375,139.15625 z"
     id="path3353"
     style="fill:#000000;fill-opacity:0.31372549;fill-rule:nonzero;stroke:none;stroke-width:4;stroke-linecap:round;stroke-linejoin:round;stroke-miterlimit:4;stroke-dasharray:none;stroke-opacity:1" />
  <path
     d="M 50.172352,230.06939 C 50.165592,252.74941 68.549322,255.6388 91.229142,255.6388 C 113.90896,255.6388 132.29269,252.74941 132.28593,230.06939 C 132.29269,207.38936 113.13616,194.86995 91.229142,188.99998 C 57.148242,179.86803 50.165592,207.38936 50.172352,230.06939 z"
     id="path3245"
     style="fill:#939dac;fill-opacity:1;fill-rule:nonzero;stroke:#000000;stroke-width:3.99999976;stroke-linecap:round;stroke-linejoin:round;stroke-miterlimit:4;stroke-dasharray:none;stroke-opacity:1" />
  <path
     d="M 123.18726,242.85935 C 124.83098,248.98628 119.93693,251.13429 113.64117,252.82124 C 107.3454,254.50818 102.03303,255.09497 100.39306,248.96703 C 98.749352,242.84011 102.52132,236.50447 108.81709,234.81752 C 115.11285,233.13058 121.54729,236.73142 123.18726,242.85935 z"
     id="path3239"
     style="fill:#ffffff;fill-opacity:1;fill-rule:nonzero;stroke:#000000;stroke-width:3.99999976;stroke-linecap:round;stroke-linejoin:round;stroke-miterlimit:4;stroke-dasharray:none;stroke-opacity:1" />
  <path
     d="M 225.27263,104.56941 C 225.28687,152.3762 186.53587,191.13881 138.72915,191.13881 C 90.922422,191.13881 52.171422,152.3762 52.185672,104.56941 C 52.171422,56.76261 90.922422,18 138.72915,18 C 186.53587,18 225.28687,56.76261 225.27263,104.56941 z"
     id="path3307"
     style="fill:#000000;fill-opacity:0.31372549;fill-rule:nonzero;stroke:none;stroke-width:4;stroke-linecap:round;stroke-linejoin:round;stroke-miterlimit:4;stroke-dasharray:none;stroke-opacity:1" />
  <path
     d="M 265.51118,90.10303 C 256.55848,123.54419 229.44807,145.33971 204.9649,138.77947 C 180.48172,132.21922 167.90118,99.78854 176.86849,66.35129 C 185.8212,32.910123 206.84936,33.813847 231.33254,40.374094 C 255.81571,46.934339 274.4785,56.66577 265.51118,90.10303 z"
     id="path2400"
     style="fill:#939dac;fill-opacity:1;fill-rule:nonzero;stroke:#000000;stroke-width:4;stroke-linecap:round;stroke-linejoin:round;stroke-miterlimit:4;stroke-dasharray:none;stroke-opacity:1" />
  <path
     d="M 4.2862494,90.10303 C 13.238954,123.54419 40.349365,145.33971 64.832532,138.77947 C 89.315709,132.21922 101.89625,99.78854 92.928943,66.35129 C 83.976235,32.910123 62.948069,33.813847 38.464892,40.374094 C 13.981725,46.934339 -4.6810636,56.66577 4.2862494,90.10303 z"
     id="path3218"
     style="fill:#939dac;fill-opacity:1;fill-rule:nonzero;stroke:#000000;stroke-width:4;stroke-linecap:round;stroke-linejoin:round;stroke-miterlimit:4;stroke-dasharray:none;stroke-opacity:1" />
  <path
     d="M 198.94239,38.17938 C 189.19876,41.152669 181.45896,49.262603 176.87989,66.36688 C 167.91258,99.80413 180.49046,132.21289 204.97364,138.77313 C 207.64108,139.48787 210.33321,139.83495 213.03614,139.89813 C 219.71715,127.61737 223.50935,113.519 223.50489,98.55438 C 223.51189,75.06215 214.13161,53.77737 198.94239,38.17938 z"
     id="path3309"
     style="fill:#000000;fill-opacity:0.31372549;fill-rule:nonzero;stroke:none;stroke-width:4;stroke-linecap:round;stroke-linejoin:round;stroke-miterlimit:4;stroke-dasharray:none;stroke-opacity:1" />
  <path
     d="M 205.16114,43.24188 C 190.3923,43.088346 178.53488,49.876076 172.37989,72.86688 C 167.41146,91.39313 169.04046,109.5939 175.66114,123.27313 C 180.62582,99.79505 202.85832,70.70858 235.72364,69.27313 C 249.05165,68.69101 264.53211,77.31956 260.03614,66.80438 C 255.54017,56.2892 241.62433,50.834386 226.81739,46.86688 C 219.1664,44.816803 211.87425,43.311668 205.16114,43.24188 z"
     id="path3314"
     style="fill:#000000;fill-opacity:0.31372549;fill-rule:nonzero;stroke:none;stroke-width:4;stroke-linecap:round;stroke-linejoin:round;stroke-miterlimit:4;stroke-dasharray:none;stroke-opacity:1" />
  <path
     d="M 65.150252,43.24188 C 79.919092,43.088346 91.776512,49.876076 97.931502,72.86688 C 102.89993,91.39313 101.27093,109.5939 94.650252,123.27313 C 89.685572,99.79505 67.453072,70.70858 34.587752,69.27313 C 21.259742,68.69101 5.7792824,77.31956 10.275252,66.80438 C 14.771222,56.2892 28.687062,50.834386 43.494002,46.86688 C 51.144992,44.816803 58.437142,43.311668 65.150252,43.24188 z"
     id="path3321"
     style="fill:#000000;fill-opacity:0.31372549;fill-rule:nonzero;stroke:none;stroke-width:4;stroke-linecap:round;stroke-linejoin:round;stroke-miterlimit:4;stroke-dasharray:none;stroke-opacity:1" />
  <path
     d="M 220.77263,88.56941 C 220.78687,136.3762 182.03587,175.13881 134.22915,175.13881 C 86.422422,175.13881 47.671422,136.3762 47.685672,88.56941 C 47.671422,40.76261 63.763075,2 134.22915,2 C 206.10881,2 220.78687,40.76261 220.77263,88.56941 z"
     id="path2398"
     style="fill:#939dac;fill-opacity:1;fill-rule:nonzero;stroke:#000000;stroke-width:4;stroke-linecap:round;stroke-linejoin:round;stroke-miterlimit:4;stroke-dasharray:none;stroke-opacity:1" />
  <path
     d="M 130.59961,72.0991 C 130.60334,84.61805 120.45578,94.76863 107.93684,94.76863 C 95.417892,94.76863 85.270332,84.61805 85.274062,72.0991 C 85.270332,59.58016 95.417892,49.42958 107.93684,49.42958 C 120.45578,49.42958 130.60334,59.58016 130.59961,72.0991 z"
     id="path3157"
     style="fill:#ffffff;fill-opacity:1;fill-rule:nonzero;stroke:#000000;stroke-width:3.99999952;stroke-linecap:round;stroke-linejoin:round;stroke-miterlimit:4;stroke-dasharray:none;stroke-opacity:1" />
  <path
     d="M 183.33181,72.0991 C 183.33554,84.61805 173.18798,94.76863 160.66904,94.76863 C 148.15009,94.76863 138.00253,84.61805 138.00626,72.0991 C 138.00253,59.58016 148.15009,49.42958 160.66904,49.42958 C 173.18798,49.42958 183.33554,59.58016 183.33181,72.0991 z"
     id="path3159"
     style="fill:#ffffff;fill-opacity:1;fill-rule:nonzero;stroke:#000000;stroke-width:3.99999952;stroke-linecap:round;stroke-linejoin:round;stroke-miterlimit:4;stroke-dasharray:none;stroke-opacity:1" />
  <path
     d="M 163.18712,76.0991 C 163.18837,80.27208 159.80585,83.65561 155.63287,83.65561 C 151.45989,83.65561 148.07737,80.27208 148.07862,76.0991 C 148.07737,71.92612 151.45989,68.5426 155.63287,68.5426 C 159.80585,68.5426 163.18837,71.92612 163.18712,76.0991 z"
     id="path3161"
     style="fill:#000000;fill-opacity:1;fill-rule:nonzero;stroke:none;stroke-width:47.66669083;stroke-linecap:round;stroke-linejoin:round;stroke-miterlimit:4;stroke-dasharray:none;stroke-opacity:1" />
  <path
     d="M 121.15678,76.0991 C 121.15803,80.27208 117.77551,83.65561 113.60253,83.65561 C 109.42955,83.65561 106.04703,80.27208 106.04828,76.0991 C 106.04703,71.92612 109.42955,68.5426 113.60253,68.5426 C 117.77551,68.5426 121.15803,71.92612 121.15678,76.0991 z"
     id="path3163"
     style="fill:#000000;fill-opacity:1;fill-rule:nonzero;stroke:none;stroke-width:47.66669083;stroke-linecap:round;stroke-linejoin:round;stroke-miterlimit:4;stroke-dasharray:none;stroke-opacity:1" />
  <path
     d="M 224.28593,230.06939 C 224.29269,252.74941 205.90896,255.6388 183.22914,255.6388 C 160.54932,255.6388 142.16559,252.74941 142.17235,230.06939 C 142.16559,207.38936 161.32212,194.86995 183.22914,188.99998 C 217.31004,179.86803 224.29269,207.38936 224.28593,230.06939 z"
     id="path3220"
     style="fill:#939dac;fill-opacity:1;fill-rule:nonzero;stroke:#000000;stroke-width:3.99999976;stroke-linecap:round;stroke-linejoin:round;stroke-miterlimit:4;stroke-dasharray:none;stroke-opacity:1" />
  <path
     d="M 104.22364,193.49188 C 109.84127,200.85378 113.289,210.04649 113.28614,221.39813 C 113.2929,248.22075 94.903461,251.64812 72.223642,251.64813 C 68.713898,251.64813 65.319135,251.54213 62.067392,251.30438 C 69.507288,254.91485 79.818759,255.64813 91.223642,255.64813 C 113.90346,255.64814 132.2929,252.7344 132.28614,230.05438 C 132.29152,212.02963 120.18713,200.44397 104.22364,193.49188 z"
     id="path3297"
     style="fill:#000000;fill-opacity:0.31372549;fill-rule:nonzero;stroke:none;stroke-width:3.99999976;stroke-linecap:round;stroke-linejoin:round;stroke-miterlimit:4;stroke-dasharray:none;stroke-opacity:1" />
  <path
     d="M 157.45516,220.49509 C 157.45987,236.28271 144.66299,249.0836 128.8756,249.0836 C 113.08822,249.0836 100.29134,236.28271 100.29604,220.49509 C 100.29134,204.70747 113.08822,191.90658 128.8756,191.90658 C 144.66299,191.90658 157.45987,204.70747 157.45516,220.49509 z"
     id="path2404"
     style="fill:#939dac;fill-opacity:1;fill-rule:nonzero;stroke:#000000;stroke-width:4;stroke-linecap:round;stroke-linejoin:round;stroke-miterlimit:4;stroke-dasharray:none;stroke-opacity:1" />
  <path
     d="M 81.746072,249.49765 C 80.106112,255.62558 74.793732,255.03879 68.497972,253.35186 C 62.202202,251.6649 57.308162,249.51689 58.951872,243.38995 C 60.591842,237.26204 67.026282,233.66119 73.322052,235.34814 C 79.617802,237.03508 83.389772,243.37072 81.746072,249.49765 z"
     id="path3241"
     style="fill:#ffffff;fill-opacity:1;fill-rule:nonzero;stroke:#000000;stroke-width:3.99999976;stroke-linecap:round;stroke-linejoin:round;stroke-miterlimit:4;stroke-dasharray:none;stroke-opacity:1" />
  <path
     d="M 219.25489,72.46063 C 214.32427,120.03892 174.10886,157.14813 125.22364,157.14813 C 98.572644,157.14813 74.502751,146.10733 57.317392,128.36688 C 71.717049,156.16104 100.75877,175.14813 134.22364,175.14813 C 182.03036,175.14813 220.80037,136.36117 220.78614,88.55438 C 220.78778,83.05044 220.23555,77.67947 219.25489,72.46063 z"
     id="path3302"
     style="fill:#000000;fill-opacity:0.31372549;fill-rule:nonzero;stroke:none;stroke-width:4;stroke-linecap:round;stroke-linejoin:round;stroke-miterlimit:4;stroke-dasharray:none;stroke-opacity:1" />
  <path
     d="M 157.39224,218.99188 L 111.71129,218.99188 C 119.37304,155.70583 104.34864,124.24188 104.34864,124.24188 C 104.34864,124.24188 164.75489,124.24188 164.75489,124.24188 C 164.75489,124.24188 149.73049,156.41293 157.39224,218.99188 z"
     id="path3188"
     style="fill:#939dac;fill-opacity:1;fill-rule:evenodd;stroke:none;stroke-width:4;stroke-linecap:round;stroke-linejoin:miter;stroke-miterlimit:4;stroke-dasharray:none;stroke-opacity:1" />
  <path
     d="M 164.75489,124.24188 C 164.75489,124.24188 149.73049,156.41293 157.39224,218.99188 M 111.71129,218.99188 C 119.37304,155.70583 104.34864,124.24188 104.34864,124.24188"
     id="path3183"
     style="fill:none;fill-opacity:0.75;fill-rule:evenodd;stroke:#000000;stroke-width:4;stroke-linecap:round;stroke-linejoin:miter;stroke-miterlimit:4;stroke-dasharray:none;stroke-opacity:1" />
  <path
     d="M 187.44007,131.7751 C 193.95978,136.98263 193.49263,165.29176 189.6266,169.98791 C 185.76058,174.68406 162.77031,146.40539 166.69969,137.69849 C 170.83366,128.53824 181.30635,126.87587 187.44007,131.7751 z"
     id="path3190"
     style="fill:#ffffff;fill-opacity:1;fill-rule:evenodd;stroke:#000000;stroke-width:4;stroke-linecap:butt;stroke-linejoin:round;stroke-miterlimit:4;stroke-dasharray:none;stroke-opacity:1" />
  <path
     d="M 118.69239,113.03052 C 133.19239,98.53052 149.69239,112.53052 149.69239,112.53052"
     id="path3192"
     style="fill:none;fill-opacity:0.75;fill-rule:evenodd;stroke:#000000;stroke-width:4;stroke-linecap:round;stroke-linejoin:miter;stroke-miterlimit:4;stroke-dasharray:none;stroke-opacity:1" />
  <path
     d="M 123.65615,135.53054 C 133.51264,127.64482 144.72865,135.25861 144.72865,135.25861"
     id="path3194"
     style="fill:none;fill-opacity:0.75;fill-rule:evenodd;stroke:#000000;stroke-width:4;stroke-linecap:round;stroke-linejoin:miter;stroke-miterlimit:4;stroke-dasharray:none;stroke-opacity:1" />
  <path
     d="M 125.31074,158.03054 C 133.61939,152.34958 143.07407,157.83464 143.07407,157.83464"
     id="path3196"
     style="fill:none;fill-opacity:0.75;fill-rule:evenodd;stroke:#000000;stroke-width:4;stroke-linecap:round;stroke-linejoin:miter;stroke-miterlimit:4;stroke-dasharray:none;stroke-opacity:1" />
  <path
     d="M 80.764562,131.7751 C 74.244852,136.98263 74.712002,165.29176 78.578032,169.98791 C 82.444052,174.68406 105.43432,146.40539 101.50494,137.69849 C 97.370972,128.53824 86.898282,126.87587 80.764562,131.7751 z"
     id="path3214"
     style="fill:#ffffff;fill-opacity:1;fill-rule:evenodd;stroke:#000000;stroke-width:4;stroke-linecap:butt;stroke-linejoin:round;stroke-miterlimit:4;stroke-dasharray:none;stroke-opacity:1" />
  <path
     d="M 216.18726,242.85935 C 217.83098,248.98628 212.93693,251.13429 206.64117,252.82124 C 200.3454,254.50818 195.03303,255.09497 193.39306,248.96703 C 191.74935,242.84011 195.52132,236.50447 201.81709,234.81752 C 208.11285,233.13058 214.54729,236.73142 216.18726,242.85935 z"
     id="path3235"
     style="fill:#ffffff;fill-opacity:1;fill-rule:nonzero;stroke:#000000;stroke-width:3.99999976;stroke-linecap:round;stroke-linejoin:round;stroke-miterlimit:4;stroke-dasharray:none;stroke-opacity:1" />
  <path
     d="M 174.74607,249.49765 C 173.10611,255.62558 167.79373,255.03879 161.49797,253.35186 C 155.2022,251.6649 150.30816,249.51689 151.95187,243.38995 C 153.59184,237.26204 160.02628,233.66119 166.32205,235.34814 C 172.6178,237.03508 176.38977,243.37072 174.74607,249.49765 z"
     id="path3237"
     style="fill:#ffffff;fill-opacity:1;fill-rule:nonzero;stroke:#000000;stroke-width:3.99999976;stroke-linecap:round;stroke-linejoin:round;stroke-miterlimit:4;stroke-dasharray:none;stroke-opacity:1" />
  <path
     d="M 195.02829,248.48705 C 195.03023,254.83064 189.747,255.63879 183.22915,255.63879 C 176.71129,255.63879 171.42806,254.83064 171.43,248.48705 C 171.42806,242.14347 176.71129,236.99997 183.22915,236.99997 C 189.747,236.99997 195.03023,242.14347 195.02829,248.48705 z"
     id="path3224"
     style="fill:#ffffff;fill-opacity:1;fill-rule:nonzero;stroke:#000000;stroke-width:4;stroke-linecap:round;stroke-linejoin:round;stroke-miterlimit:4;stroke-dasharray:none;stroke-opacity:1" />
  <path
     d="M 102.02829,248.48705 C 102.03023,254.83064 96.747002,255.63879 90.229152,255.63879 C 83.711292,255.63879 78.428062,254.83064 78.430002,248.48705 C 78.428062,242.14347 83.711292,236.99997 90.229152,236.99997 C 96.747002,236.99997 102.03023,242.14347 102.02829,248.48705 z"
     id="path3243"
     style="fill:#ffffff;fill-opacity:1;fill-rule:nonzero;stroke:#000000;stroke-width:4;stroke-linecap:round;stroke-linejoin:round;stroke-miterlimit:4;stroke-dasharray:none;stroke-opacity:1" />
  <path
     d="M 155.31739,209.61688 C 154.90622,225.0418 142.27989,237.42938 126.75489,237.42938 C 114.81031,237.42937 104.58915,230.08412 100.31739,219.67938 C 100.30987,219.95057 100.28606,220.21886 100.28614,220.49188 C 100.28144,236.2795 113.09251,249.08564 128.87989,249.08563 C 144.66728,249.08563 157.4471,236.27951 157.44239,220.49188 C 157.44354,216.63876 156.69867,212.97152 155.31739,209.61688 z"
     id="path3287"
     style="fill:#000000;fill-opacity:0.31372549;fill-rule:nonzero;stroke:none;stroke-width:4;stroke-linecap:round;stroke-linejoin:round;stroke-miterlimit:4;stroke-dasharray:none;stroke-opacity:1" />
  <path
     d="M 201.75,187.8125 C 212.31132,195.96507 215.09809,212.48434 215.09375,227.0625 C 215.10074,250.531 196.08604,253.53125 172.625,253.53125 C 167.53412,253.53125 162.67966,253.3665 158.15625,252.90625 C 165.09133,255.12615 173.77877,255.625 183.21875,255.625 C 205.89857,255.625 224.28801,252.74251 224.28125,230.0625 C 224.28655,212.29356 219.9954,191.57005 201.75,187.8125 z"
     id="path3358"
     style="fill:#000000;fill-opacity:0.31372549;fill-rule:nonzero;stroke:none;stroke-width:3.99999976;stroke-linecap:round;stroke-linejoin:round;stroke-miterlimit:4;stroke-dasharray:none;stroke-opacity:1" />
  <path
     d="M 94.65625,130.46875 C 95.432833,131.31212 96.159289,132.28354 96.78125,133.375 C 101.32595,141.35035 82.821744,169.65892 77.5625,168.03125 C 77.868021,168.87702 78.19104,169.54878 78.5625,170 C 82.428519,174.69614 105.42938,146.3944 101.5,137.6875 C 99.933087,134.21546 97.463042,131.83739 94.65625,130.46875 z"
     id="path3363"
     style="fill:#000000;fill-opacity:0.31372549;fill-rule:evenodd;stroke:none;stroke-width:4;stroke-linecap:butt;stroke-linejoin:round;stroke-miterlimit:4;stroke-dasharray:none;stroke-opacity:1" />
</svg>
