<?xml version="1.0" encoding="UTF-8" standalone="no"?>
<!-- Created with Inkscape (http://www.inkscape.org/) -->

<svg
   xmlns:dc="http://purl.org/dc/elements/1.1/"
   xmlns:cc="http://creativecommons.org/ns#"
   xmlns:rdf="http://www.w3.org/1999/02/22-rdf-syntax-ns#"
   xmlns:svg="http://www.w3.org/2000/svg"
   xmlns="http://www.w3.org/2000/svg"
   xmlns:sodipodi="http://sodipodi.sourceforge.net/DTD/sodipodi-0.dtd"
   xmlns:inkscape="http://www.inkscape.org/namespaces/inkscape"
   version="1.0"
   width="254.27"
   height="254.27"
   id="svg2"
   inkscape:version="0.47 r22583"
   sodipodi:docname="lemmling-cartoon-cow.svg">
  <metadata
     id="metadata2963">
    <rdf:RDF>
      <cc:Work
         rdf:about="">
        <dc:format>image/svg+xml</dc:format>
        <dc:type
           rdf:resource="http://purl.org/dc/dcmitype/StillImage" />
      </cc:Work>
    </rdf:RDF>
  </metadata>
  <sodipodi:namedview
     pagecolor="#ffffff"
     bordercolor="#666666"
     borderopacity="1"
     objecttolerance="10"
     gridtolerance="10"
     guidetolerance="10"
     inkscape:pageopacity="0"
     inkscape:pageshadow="2"
     inkscape:window-width="640"
     inkscape:window-height="504"
     id="namedview2961"
     showgrid="false"
     inkscape:zoom="0.92814723"
     inkscape:cx="112.3302"
     inkscape:cy="127.135"
     inkscape:window-x="0"
     inkscape:window-y="24"
     inkscape:window-maximized="0"
     inkscape:current-layer="svg2" />
  <defs
     id="defs4" />
  <g
     transform="translate(-224.1169,-428.39699)"
     id="layer1">
    <path
       d="m 441.29462,560.70587 c 0.0148,49.72803 -40.29355,90.04842 -90.02158,90.04842 -49.72803,0 -90.0364,-40.32039 -90.02158,-90.04842 -0.0148,-49.72803 40.29355,-90.04842 90.02158,-90.04842 49.72803,0 90.0364,40.32039 90.02158,90.04842 z"
       transform="matrix(1.2167832,0,0,1.2167832,-76.150099,-121.55162)"
       id="path2383"
       style="fill:#ffffff;fill-opacity:1;fill-rule:nonzero;stroke:#000000;stroke-width:3.28735638;stroke-linecap:round;stroke-linejoin:round;stroke-miterlimit:4;stroke-opacity:1;stroke-dasharray:none" />
    <path
       d="m 441.08808,500.81586 c -5.40118,6.5541 -6.24204,17.00939 -4.56036,21.04543 1.24066,2.97759 9.47404,4.44202 17.34784,5.17662 -3.08352,-9.3702 -7.40519,-18.18122 -12.78748,-26.22205 z m -193.41461,29.39582 c -2.86756,9.71753 -4.40946,19.98109 -4.40629,30.62834 -0.002,5.56181 0.42338,11.02622 1.23253,16.36182 8.18155,4.7505 18.80139,20.38833 27.85515,21.56926 11.33927,1.47903 8.87421,-21.69251 1.97205,-23.17155 -6.90216,-1.47903 -9.86023,-12.32529 -10.35324,-24.15756 -0.33107,-7.94562 -4.68127,-15.67012 -16.3002,-21.23031 z m 211.53278,27.7319 c -2.91511,1.35717 -5.62341,3.39137 -7.88818,6.31671 -11.83228,15.28336 -21.69251,4.93011 -33.52479,10.35324 -11.83228,5.42313 -3.94409,19.22745 0.49301,32.53876 3.21228,9.63684 -2.6052,28.82146 4.40629,34.75732 22.43604,-19.79772 36.58491,-48.79433 36.5753,-81.06959 2.8e-4,-0.97361 -0.005,-1.92901 -0.0308,-2.89644 -0.009,0.004 -0.0221,-0.004 -0.0308,0 z m -146.91745,9.27478 c 4.93012,15.28336 -5.91614,9.86023 -7.88818,20.21347 -1.97205,10.35324 33.03177,13.31131 38.94791,34.51081 5.91614,21.1995 32.53877,9.86023 32.04575,-1.97205 -0.49301,-11.83227 -17.74841,-17.2554 -13.31131,-24.15756 4.43711,-6.90216 13.31131,-21.1995 13.31131,-21.1995 l -63.10548,-7.39517 z"
       id="path3173"
       style="fill:#4d4d4d;fill-opacity:1;fill-rule:evenodd;stroke:none" />
    <path
       d="m 454.1875,523.125 c 0.0768,1.68161 0.125,3.39329 0.125,5.09375 0,60.46428 -49.06696,109.53125 -109.53125,109.53125 -47.26217,0 -87.5912,-29.99927 -102.9375,-71.96875 2.65351,58.11219 50.67363,104.46875 109.4375,104.46875 60.46429,0 109.53125,-49.06697 109.53125,-109.53125 0,-13.20218 -2.33815,-25.87003 -6.625,-37.59375 z"
       id="path3221"
       style="fill:#000000;fill-opacity:0.31372549;fill-rule:nonzero;stroke:none" />
    <path
       d="m 359.45331,671.27549 c 0,9.09078 14.66533,9.38135 32.73511,9.38135 18.06978,0 32.73512,0.69349 32.73512,-9.38135 0,-17.71594 -14.66534,-32.0941 -32.73512,-32.0941 -18.06978,0 -32.73511,14.37816 -32.73511,32.0941 z"
       id="path3172"
       style="fill:#333333;fill-opacity:1;fill-rule:nonzero;stroke:#000000;stroke-width:3.99999976;stroke-linecap:round;stroke-linejoin:round;stroke-miterlimit:4;stroke-opacity:1" />
    <path
       d="m 435.90825,525.42049 c 0,45.17448 -55.12119,81.83781 -81.8378,81.83781 -25.71825,0 -81.8378,-36.66333 -81.8378,-81.83781 0,-45.17446 24.62503,-81.8378 81.8378,-81.8378 57.22259,0 81.8378,36.66334 81.8378,81.8378 z"
       id="path3236"
       style="fill:#000000;fill-opacity:0.31372549;fill-rule:nonzero;stroke:none" />
    <path
       d="m 404.77885,680.0559 c 0,-16.36756 -9.44283,-26.43991 -9.44283,-26.43991 0,0 3.77713,13.84948 3.14761,26.43991 l 6.29522,0 z"
       id="path3174"
       style="fill:#000000;fill-opacity:0.31372549;fill-rule:evenodd;stroke:#000000;stroke-width:4;stroke-linecap:butt;stroke-linejoin:round;stroke-miterlimit:4;stroke-opacity:1;stroke-dasharray:none" />
    <path
       d="m 108.875,46.34375 c -30.12925,0.610589 -50.931674,11.653269 -63.625,28.75 -24.06444,-2.587792 -44.0625,23.625 -44.0625,23.625 0,2e-6 18.89113,9.44632 32.0625,1.53125 -2.399229,8.71172 -3.5625,18.10595 -3.5625,27.90625 0,45.17448 56.125502,81.84375 81.84375,81.84375 26.71661,0 81.84375,-36.66927 81.84375,-81.84375 0,-9.8003 -1.16389,-19.19453 -3.5625,-27.90625 13.17137,7.91507 32.03125,-1.531251 32.03125,-1.53125 0,0 -19.97122,-26.20456 -44.03125,-23.625 -13.06166,-17.594988 -34.70768,-28.75 -66.28125,-28.75 -0.89395,0 -1.77818,-0.01779 -2.65625,0 z"
       transform="translate(239.73628,384.06586)"
       id="path3155"
       style="fill:#ffffff;fill-opacity:1;fill-rule:nonzero;stroke:#000000;stroke-width:4;stroke-linecap:round;stroke-linejoin:round;stroke-miterlimit:4;stroke-opacity:1" />
    <path
       d="m 365.48628,432.37836 c 25.72095,17.92613 -3.04956,17.14231 -8.75,23.28125 -6.5,7 -9,17 -1.5,23.5 7.5,6.5 46,17.50001 51.5,-0.5 2.83534,-9.27929 -0.56613,-20.80215 -2.34375,-30.96875 -10.01754,-7.86146 -22.90449,-13.24222 -38.90625,-15.3125 z"
       id="path3185"
       style="fill:#4d4d4d;fill-opacity:1;fill-rule:evenodd;stroke:none" />
    <path
       d="m 441.29462,560.70587 c 0.0148,49.72803 -40.29355,90.04842 -90.02158,90.04842 -49.72803,0 -90.0364,-40.32039 -90.02158,-90.04842 -0.0148,-49.72803 40.29355,-90.04842 90.02158,-90.04842 49.72803,0 90.0364,40.32039 90.02158,90.04842 z"
       transform="matrix(0.2517482,0,0,0.2517482,236.54837,359.07889)"
       id="path3157"
       style="fill:#ffffff;fill-opacity:1;fill-rule:nonzero;stroke:#000000;stroke-width:15.88889027;stroke-linecap:round;stroke-linejoin:round;stroke-miterlimit:4;stroke-opacity:1;stroke-dasharray:none" />
    <path
       d="m 441.29462,560.70587 c 0.0148,49.72803 -40.29355,90.04842 -90.02158,90.04842 -49.72803,0 -90.0364,-40.32039 -90.02158,-90.04842 -0.0148,-49.72803 40.29355,-90.04842 90.02158,-90.04842 49.72803,0 90.0364,40.32039 90.02158,90.04842 z"
       transform="matrix(0.2517482,0,0,0.2517482,289.28057,359.07889)"
       id="path3159"
       style="fill:#ffffff;fill-opacity:1;fill-rule:nonzero;stroke:#000000;stroke-width:15.88889027;stroke-linecap:round;stroke-linejoin:round;stroke-miterlimit:4;stroke-opacity:1;stroke-dasharray:none" />
    <path
       d="m 441.29462,560.70587 c 0.0148,49.72803 -40.29355,90.04842 -90.02158,90.04842 -49.72803,0 -90.0364,-40.32039 -90.02158,-90.04842 -0.0148,-49.72803 40.29355,-90.04842 90.02158,-90.04842 49.72803,0 90.0364,40.32039 90.02158,90.04842 z"
       transform="matrix(0.08391603,0,0,0.08391603,343.19932,457.18337)"
       id="path3161"
       style="fill:#000000;fill-opacity:1;fill-rule:nonzero;stroke:none" />
    <path
       d="m 441.29462,560.70587 c 0.0148,49.72803 -40.29355,90.04842 -90.02158,90.04842 -49.72803,0 -90.0364,-40.32039 -90.02158,-90.04842 -0.0148,-49.72803 40.29355,-90.04842 90.02158,-90.04842 49.72803,0 90.0364,40.32039 90.02158,90.04842 z"
       transform="matrix(0.08391603,0,0,0.08391603,301.16898,457.18337)"
       id="path3163"
       style="fill:#000000;fill-opacity:1;fill-rule:nonzero;stroke:none" />
    <path
       d="m 111.53125,159.59375 c -19.862065,0 -35.968753,13.216 -35.96875,29.5 0,3.01956 0.564111,5.94363 1.59375,8.6875 C 89.867882,205.52467 102.5506,210 111.53125,210 c 9.19823,0 21.75693,-4.33121 34.28125,-11.875 1.11318,-2.84275 1.71875,-5.88658 1.71875,-9.03125 0,-16.284 -16.13793,-29.5 -36,-29.5 z"
       transform="translate(239.73628,384.06586)"
       id="path3210"
       style="fill:#ffd5e5;fill-opacity:1;fill-rule:nonzero;stroke:#000000;stroke-width:4;stroke-linecap:round;stroke-linejoin:round;stroke-miterlimit:4;stroke-opacity:1;stroke-dasharray:none" />
    <path
       d="M 190.09375,101.34375 188.21875,104 c 0.24888,3.07548 0.34375,6.20264 0.34375,9.375 0,45.17449 -55.12714,81.84375 -81.84375,81.84375 -20.705808,2e-5 -61.09673,-23.75565 -76.0625,-56.59375 7.61581,40.24628 57.1719,71.37501 80.875,71.375 26.71661,0 81.84375,-36.6693 81.84375,-81.84375 0,-9.39155 -1.07538,-18.41026 -3.28125,-26.8125 z"
       transform="translate(239.73628,384.06586)"
       id="path3231"
       style="fill:#000000;fill-opacity:0.31372549;fill-rule:nonzero;stroke:none" />
    <path
       d="m 344.4555,671.27549 c 0,9.09078 -14.66533,9.38135 -32.73511,9.38135 -18.06978,0 -32.73512,0.69349 -32.73512,-9.38135 0,-17.71594 14.66534,-32.0941 32.73512,-32.0941 18.06978,0 32.73511,14.37816 32.73511,32.0941 z"
       id="path3329"
       style="fill:#333333;fill-opacity:1;fill-rule:nonzero;stroke:#000000;stroke-width:3.99999976;stroke-linecap:round;stroke-linejoin:round;stroke-miterlimit:4;stroke-opacity:1" />
    <path
       d="m 299.12996,680.0559 c 0,-16.36756 9.44283,-26.43991 9.44283,-26.43991 0,0 -3.77713,13.84948 -3.14761,26.43991 l -6.29522,0 z"
       id="path3331"
       style="fill:#000000;fill-opacity:0.31372549;fill-rule:evenodd;stroke:#000000;stroke-width:4;stroke-linecap:butt;stroke-linejoin:round;stroke-miterlimit:4;stroke-opacity:1;stroke-dasharray:none" />
    <path
       d="m 367.86847,568.86692 c -2.29272,3.97309 -6.50025,5.8386 -9.39677,4.16629 -2.89654,-1.67231 -3.38472,-6.2489 -1.09029,-10.22099 2.29273,-3.9731 6.50026,-5.83861 9.39679,-4.1663 2.89653,1.67231 3.38471,6.2489 1.09027,10.221 z"
       id="path2398"
       style="fill:#000000;fill-opacity:1;fill-rule:nonzero;stroke:none" />
    <path
       d="m 335.13142,568.86692 c 2.29272,3.97309 6.50025,5.8386 9.39677,4.16629 2.89654,-1.67231 3.38472,-6.2489 1.09029,-10.22099 -2.29273,-3.9731 -6.50026,-5.83861 -9.39679,-4.1663 -2.89653,1.67231 -3.38471,6.2489 -1.09027,10.221 z"
       id="path2412"
       style="fill:#000000;fill-opacity:1;fill-rule:nonzero;stroke:none" />
    <path
       d="m 292.23628,460.667 c -7.3329,-1.32806 -15.5,-21.5 -12.5,-25.5 3,-4 26.3741,4.46627 27,13.5 0.55216,7.96942 -5.38595,13.65064 -14.5,12 z"
       id="path2399"
       style="fill:#333333;fill-opacity:1;fill-rule:evenodd;stroke:#000000;stroke-width:4;stroke-linecap:butt;stroke-linejoin:miter;stroke-miterlimit:4;stroke-opacity:1;stroke-dasharray:none" />
    <path
       d="m 409.13453,460.667 c 7.3329,-1.32806 15.5,-21.5 12.5,-25.5 -3,-4 -26.3741,4.46627 -27,13.5 -0.55216,7.96942 5.38595,13.65064 14.5,12 z"
       id="path3171"
       style="fill:#333333;fill-opacity:1;fill-rule:evenodd;stroke:#000000;stroke-width:4;stroke-linecap:butt;stroke-linejoin:miter;stroke-miterlimit:4;stroke-opacity:1;stroke-dasharray:none" />
  </g>
</svg>
