<?xml version="1.0" encoding="UTF-8" standalone="no"?>
<!-- Created with Inkscape (http://www.inkscape.org/) -->
<svg
   xmlns:svg="http://www.w3.org/2000/svg"
   xmlns="http://www.w3.org/2000/svg"
   version="1.0"
   width="248.20137"
   height="291.28238"
   id="svg2">
  <defs
     id="defs4" />
  <g
     transform="translate(-228.58052,-391.38463)"
     id="layer1">
    <path
       d="M 441.29462,560.70587 C 441.30944,610.4339 401.00107,650.75429 351.27304,650.75429 C 301.54501,650.75429 261.23664,610.4339 261.25146,560.70587 C 261.23664,510.97784 301.54501,470.65745 351.27304,470.65745 C 401.00107,470.65745 441.30944,510.97784 441.29462,560.70587 z"
       transform="matrix(1.2167832,0,0,1.2167832,-76.150099,-121.55162)"
       id="path2383"
       style="opacity:1;fill:#c8beb7;fill-opacity:1;fill-rule:nonzero;stroke:#000000;stroke-width:3.28735638;stroke-linecap:round;stroke-linejoin:round;stroke-miterlimit:4;stroke-dasharray:none;stroke-opacity:1" />
    <path
       d="M 454.1875,523.125 C 454.26429,524.80661 454.3125,526.51829 454.3125,528.21875 C 454.3125,588.68303 405.24554,637.75 344.78125,637.75 C 297.51908,637.75 257.19005,607.75073 241.84375,565.78125 C 244.49726,623.89344 292.51738,670.25 351.28125,670.25 C 411.74554,670.25 460.8125,621.18303 460.8125,560.71875 C 460.8125,547.51657 458.47435,534.84872 454.1875,523.125 z"
       id="path3221"
       style="opacity:1;fill:#000000;fill-opacity:0.31372549;fill-rule:nonzero;stroke:none;stroke-width:4;stroke-linecap:round;stroke-linejoin:round;stroke-miterlimit:4;stroke-dasharray:none;stroke-opacity:1" />
    <path
       d="M 359.45331,671.27549 C 359.45331,680.36627 374.11864,680.65684 392.18842,680.65684 C 410.2582,680.65684 424.92354,681.35033 424.92354,671.27549 C 424.92354,653.55955 410.2582,639.18139 392.18842,639.18139 C 374.11864,639.18139 359.45331,653.55955 359.45331,671.27549 z"
       id="path3172"
       style="fill:#6c5d53;fill-opacity:1;fill-rule:nonzero;stroke:#000000;stroke-width:3.99999976;stroke-linecap:round;stroke-linejoin:round;stroke-miterlimit:4;stroke-opacity:1" />
    <path
       d="M 435.90825,525.42049 C 435.90825,570.59497 380.78706,607.2583 354.07045,607.2583 C 328.3522,607.2583 272.23265,570.59497 272.23265,525.42049 C 272.23265,480.24603 296.85768,443.58269 354.07045,443.58269 C 411.29304,443.58269 435.90825,480.24603 435.90825,525.42049 z"
       id="path3236"
       style="fill:#000000;fill-opacity:0.31372549;fill-rule:nonzero;stroke:none;stroke-width:4;stroke-linecap:round;stroke-linejoin:round;stroke-miterlimit:4;stroke-opacity:1" />
    <path
       d="M 318.63052,579.05039 C 326.38189,596.98371 329.99342,602.37744 329.76361,612.63795 C 329.65893,617.31164 338.94885,605.00164 339.59308,598.84938 C 339.11987,607.73498 340.79166,610.16309 341.77461,619.35547 C 342.75755,628.54786 346.01839,644.498 346.96518,640.92223 C 348.93108,633.49761 349.85139,618.10342 355.24251,613.34507 C 357.68237,622.53745 370.15714,637.97191 368.09853,632.0834 C 363.10022,617.78607 361.26243,610.93205 365.64116,602.03136 C 373.47612,611.54557 377.95844,615.48382 376.45359,610.16309 C 373.91429,601.18481 377.52902,588.85158 384.11134,583.64658 C 392.46681,577.03945 318.63052,578.69683 318.63052,579.05039 z"
       id="path3203"
       style="fill:#6c5d53;fill-opacity:1;fill-rule:evenodd;stroke:#000000;stroke-width:4;stroke-linecap:butt;stroke-linejoin:round;stroke-miterlimit:4;stroke-dasharray:none;stroke-opacity:1" />
    <path
       d="M 404.77885,680.0559 C 404.77885,663.68834 395.33602,653.61599 395.33602,653.61599 C 395.33602,653.61599 399.11315,667.46547 398.48363,680.0559 L 404.77885,680.0559 z"
       id="path3174"
       style="fill:#000000;fill-opacity:0.31372549;fill-rule:evenodd;stroke:#000000;stroke-width:4;stroke-linecap:butt;stroke-linejoin:round;stroke-miterlimit:4;stroke-dasharray:none;stroke-opacity:1" />
    <path
       d="M 108.875,46.34375 C 78.74575,46.954339 57.943326,57.997019 45.25,75.09375 C 21.18556,72.505958 1.1875,98.71875 1.1875,98.71875 C 1.1875,98.718752 20.07863,108.16507 33.25,100.25 C 30.850771,108.96172 29.6875,118.35595 29.6875,128.15625 C 29.6875,173.33073 85.813002,210 111.53125,210 C 138.24786,210 193.375,173.33073 193.375,128.15625 C 193.375,118.35595 192.21111,108.96172 189.8125,100.25 C 202.98387,108.16507 221.84375,98.718749 221.84375,98.71875 C 221.84375,98.71875 201.87253,72.51419 177.8125,75.09375 C 164.75084,57.498762 143.10482,46.34375 111.53125,46.34375 C 110.6373,46.34375 109.75307,46.325955 108.875,46.34375 z"
       transform="translate(239.73628,384.06586)"
       id="path3155"
       style="fill:#c8beb7;fill-opacity:1;fill-rule:nonzero;stroke:#000000;stroke-width:4;stroke-linecap:round;stroke-linejoin:round;stroke-miterlimit:4;stroke-opacity:1" />
    <path
       d="M 441.29462,560.70587 C 441.30944,610.4339 401.00107,650.75429 351.27304,650.75429 C 301.54501,650.75429 261.23664,610.4339 261.25146,560.70587 C 261.23664,510.97784 301.54501,470.65745 351.27304,470.65745 C 401.00107,470.65745 441.30944,510.97784 441.29462,560.70587 z"
       transform="matrix(0.2517482,0,0,0.2517482,236.54837,359.07889)"
       id="path3157"
       style="opacity:1;fill:#ffffff;fill-opacity:1;fill-rule:nonzero;stroke:#000000;stroke-width:15.88889027;stroke-linecap:round;stroke-linejoin:round;stroke-miterlimit:4;stroke-dasharray:none;stroke-opacity:1" />
    <path
       d="M 441.29462,560.70587 C 441.30944,610.4339 401.00107,650.75429 351.27304,650.75429 C 301.54501,650.75429 261.23664,610.4339 261.25146,560.70587 C 261.23664,510.97784 301.54501,470.65745 351.27304,470.65745 C 401.00107,470.65745 441.30944,510.97784 441.29462,560.70587 z"
       transform="matrix(0.2517482,0,0,0.2517482,289.28057,359.07889)"
       id="path3159"
       style="opacity:1;fill:#ffffff;fill-opacity:1;fill-rule:nonzero;stroke:#000000;stroke-width:15.88889027;stroke-linecap:round;stroke-linejoin:round;stroke-miterlimit:4;stroke-dasharray:none;stroke-opacity:1" />
    <path
       d="M 441.29462,560.70587 C 441.30944,610.4339 401.00107,650.75429 351.27304,650.75429 C 301.54501,650.75429 261.23664,610.4339 261.25146,560.70587 C 261.23664,510.97784 301.54501,470.65745 351.27304,470.65745 C 401.00107,470.65745 441.30944,510.97784 441.29462,560.70587 z"
       transform="matrix(8.3916033e-2,0,0,8.3916033e-2,343.19932,457.18337)"
       id="path3161"
       style="opacity:1;fill:#000000;fill-opacity:1;fill-rule:nonzero;stroke:none;stroke-width:47.66669083;stroke-linecap:round;stroke-linejoin:round;stroke-miterlimit:4;stroke-dasharray:none;stroke-opacity:1" />
    <path
       d="M 441.29462,560.70587 C 441.30944,610.4339 401.00107,650.75429 351.27304,650.75429 C 301.54501,650.75429 261.23664,610.4339 261.25146,560.70587 C 261.23664,510.97784 301.54501,470.65745 351.27304,470.65745 C 401.00107,470.65745 441.30944,510.97784 441.29462,560.70587 z"
       transform="matrix(8.3916033e-2,0,0,8.3916033e-2,301.16898,457.18337)"
       id="path3163"
       style="opacity:1;fill:#000000;fill-opacity:1;fill-rule:nonzero;stroke:none;stroke-width:47.66669083;stroke-linecap:round;stroke-linejoin:round;stroke-miterlimit:4;stroke-dasharray:none;stroke-opacity:1" />
    <path
       d="M 372.76056,441.61916 C 370.76741,431.22528 385.34366,405.2052 415.45581,395.50104 C 436.17229,388.8248 471.43479,396.73297 474.78189,436.73099 C 461.30205,413.68723 437.40403,408.18975 426.07604,413.67647 C 403.34379,424.68685 413.59614,448.15188 402.71349,454.33392 C 392.58261,460.08891 374.82668,452.39355 372.76056,441.61916 z"
       id="path3179"
       style="fill:#6c5d53;fill-opacity:1;fill-rule:evenodd;stroke:#000000;stroke-width:4;stroke-linecap:butt;stroke-linejoin:round;stroke-miterlimit:4;stroke-dasharray:none;stroke-opacity:1" />
    <path
       d="M 190.09375,101.34375 L 188.21875,104 C 188.46763,107.07548 188.5625,110.20264 188.5625,113.375 C 188.5625,158.54949 133.43536,195.21875 106.71875,195.21875 C 86.012942,195.21877 45.62202,171.4631 30.65625,138.625 C 38.27206,178.87128 87.82815,210.00001 111.53125,210 C 138.24786,210 193.375,173.3307 193.375,128.15625 C 193.375,118.7647 192.29962,109.74599 190.09375,101.34375 z"
       transform="translate(239.73628,384.06586)"
       id="path3231"
       style="fill:#000000;fill-opacity:0.31372549;fill-rule:nonzero;stroke:none;stroke-width:4;stroke-linecap:round;stroke-linejoin:round;stroke-miterlimit:4;stroke-opacity:1" />
    <path
       d="M 344.4555,671.27549 C 344.4555,680.36627 329.79017,680.65684 311.72039,680.65684 C 293.65061,680.65684 278.98527,681.35033 278.98527,671.27549 C 278.98527,653.55955 293.65061,639.18139 311.72039,639.18139 C 329.79017,639.18139 344.4555,653.55955 344.4555,671.27549 z"
       id="path3329"
       style="fill:#6c5d53;fill-opacity:1;fill-rule:nonzero;stroke:#000000;stroke-width:3.99999976;stroke-linecap:round;stroke-linejoin:round;stroke-miterlimit:4;stroke-opacity:1" />
    <path
       d="M 299.12996,680.0559 C 299.12996,663.68834 308.57279,653.61599 308.57279,653.61599 C 308.57279,653.61599 304.79566,667.46547 305.42518,680.0559 L 299.12996,680.0559 z"
       id="path3331"
       style="fill:#000000;fill-opacity:0.31372549;fill-rule:evenodd;stroke:#000000;stroke-width:4;stroke-linecap:butt;stroke-linejoin:round;stroke-miterlimit:4;stroke-dasharray:none;stroke-opacity:1" />
    <path
       d="M 367.86847,564.86692 C 365.57575,568.84001 361.36822,570.70552 358.4717,569.03321 C 355.57516,567.3609 355.08698,562.78431 357.38141,558.81222 C 359.67414,554.83912 363.88167,552.97361 366.7782,554.64592 C 369.67473,556.31823 370.16291,560.89482 367.86847,564.86692 z"
       id="path2398"
       style="opacity:1;fill:#000000;fill-opacity:1;fill-rule:nonzero;stroke:none;stroke-width:47.66669083;stroke-linecap:round;stroke-linejoin:round;stroke-miterlimit:4;stroke-dasharray:none;stroke-opacity:1" />
    <path
       d="M 335.13142,564.86692 C 337.42414,568.84001 341.63167,570.70552 344.52819,569.03321 C 347.42473,567.3609 347.91291,562.78431 345.61848,558.81222 C 343.32575,554.83912 339.11822,552.97361 336.22169,554.64592 C 333.32516,556.31823 332.83698,560.89482 335.13142,564.86692 z"
       id="path2412"
       style="opacity:1;fill:#000000;fill-opacity:1;fill-rule:nonzero;stroke:none;stroke-width:47.66669083;stroke-linecap:round;stroke-linejoin:round;stroke-miterlimit:4;stroke-dasharray:none;stroke-opacity:1" />
    <path
       d="M 332.60185,441.61916 C 334.595,431.22528 320.01875,405.2052 289.9066,395.50104 C 269.19012,388.8248 233.92762,396.73297 230.58052,436.73099 C 244.06036,413.68723 267.95838,408.18975 279.28637,413.67647 C 302.01862,424.68685 291.76627,448.15188 302.64892,454.33392 C 312.7798,460.08891 330.53573,452.39355 332.60185,441.61916 z"
       id="path3173"
       style="fill:#6c5d53;fill-opacity:1;fill-rule:evenodd;stroke:#000000;stroke-width:4;stroke-linecap:butt;stroke-linejoin:round;stroke-miterlimit:4;stroke-dasharray:none;stroke-opacity:1" />
  </g>
</svg>
