<?xml version="1.0" encoding="UTF-8" standalone="no"?>
<!-- Created with Inkscape (http://www.inkscape.org/) -->
<svg
   xmlns:svg="http://www.w3.org/2000/svg"
   xmlns="http://www.w3.org/2000/svg"
   version="1.0"
   width="246.99532"
   height="333.5603"
   id="svg2">
  <defs
     id="defs4" />
  <g
     transform="translate(-241.96358,-357.13801)"
     id="layer1">
    <path
       d="M 513.68958,561.9649 A 121.49766,121.49766 0 1 1 270.69427,561.9649 A 121.49766,121.49766 0 1 1 513.68958,561.9649 z"
       transform="translate(-26.730683,0)"
       id="path2385"
       style="fill:#784421;fill-opacity:1;fill-rule:nonzero;stroke:#000000;stroke-width:4;stroke-linecap:round;stroke-linejoin:round;stroke-miterlimit:4;stroke-dasharray:none;stroke-opacity:1" />
    <path
       d="M 150.21875,103.21875 C 125.71361,103.21875 102.90493,110.47385 83.8125,122.96875 C 92.463691,153.45071 120.47721,175.8125 153.71875,175.8125 C 185.49184,175.8125 212.51814,155.39116 222.40625,126.96875 C 202.22034,112.02956 177.24123,103.21875 150.21875,103.21875 z"
       transform="translate(215.23291,337.26301)"
       id="path3302"
       style="fill:#000000;fill-opacity:0.31372549;fill-rule:nonzero;stroke:none;stroke-width:4.00000048;stroke-linecap:round;stroke-linejoin:round;stroke-miterlimit:4;stroke-dasharray:none;stroke-opacity:1" />
    <path
       d="M 440.03557,422.84064 A 49.10268,49.10268 0 1 1 341.83021,422.84064 A 49.10268,49.10268 0 1 1 440.03557,422.84064 z"
       transform="matrix(0.4679487,0,0,0.4679487,153.39139,345.79121)"
       id="path3242"
       style="fill:#000000;fill-opacity:0.31372549;fill-rule:nonzero;stroke:none;stroke-width:8.54794598;stroke-linecap:round;stroke-linejoin:round;stroke-miterlimit:4;stroke-dasharray:none;stroke-opacity:1" />
    <path
       d="M 379.99236,531.79116 C 370.31777,515.03428 352.66073,507.12048 348.3497,509.60945 C 343.65196,512.32169 342.09075,531.33115 351.76534,548.08803 C 359.26166,561.07204 369.45486,569.98356 377.29192,571.23886 C 373.39589,576.80123 373.26476,585.32611 377.56222,592.76953 C 379.2146,595.63154 381.31323,598.00011 383.68295,599.80845 C 382.7739,592.83143 385.29394,586.24881 390.77157,583.0863 C 396.24843,579.92424 403.21033,581.03416 408.79769,585.30845 C 408.41674,582.35122 407.4421,579.3355 405.78923,576.47265 C 401.49178,569.02924 394.0237,564.89175 387.25122,565.48886 C 390.08262,558.07412 387.48868,544.77516 379.99236,531.79116 z"
       id="path3310"
       style="fill:#b7bec8;fill-opacity:1;fill-rule:nonzero;stroke:#000000;stroke-width:4;stroke-linecap:butt;stroke-linejoin:round;stroke-miterlimit:4;stroke-dasharray:none;stroke-opacity:1" />
    <path
       d="M 365.45682,440.46875 C 352.53137,440.46875 340.08192,442.50573 328.39432,446.25 C 338.90819,443.79455 349.99648,442.46875 361.45682,442.46875 C 392.89434,442.46875 421.5644,452.34684 443.14432,468.5625 C 422.08038,451.02119 394.99048,440.46875 365.45682,440.46875 z M 480.51932,522.84375 C 482.11362,529.3319 482.95682,536.03096 482.95682,542.90625 C 482.95683,598.34985 428.52353,643.34375 361.45682,643.34375 C 305.37278,643.34377 258.14595,611.88479 244.17557,569.15625 C 247.89968,632.88086 300.80341,683.46873 365.45682,683.46875 C 432.52353,683.46875 486.95683,629.03546 486.95682,561.96875 C 486.95682,548.2862 484.69544,535.11956 480.51932,522.84375 z"
       id="path3276"
       style="fill:#000000;fill-opacity:0.31372549;fill-rule:nonzero;stroke:none;stroke-width:4;stroke-linecap:round;stroke-linejoin:round;stroke-miterlimit:4;stroke-dasharray:none;stroke-opacity:1" />
    <path
       d="M 97.5625,21.875 C 86.50713,21.875 77.531247,30.850879 77.53125,41.90625 C 77.53125,49.060838 81.289232,55.332464 86.9375,58.875 C 80.966425,69.429182 77.531251,81.610047 77.53125,94.59375 C 77.53125,134.72818 110.08432,167.3125 150.21875,167.3125 C 190.35318,167.3125 222.93751,134.72818 222.9375,94.59375 C 222.9375,81.610047 219.50232,69.429182 213.53125,58.875 C 219.16693,55.329891 222.9375,49.051283 222.9375,41.90625 C 222.9375,30.85088 213.96161,21.875 202.90625,21.875 C 195.76122,21.875 189.51386,25.645571 185.96875,31.28125 C 175.40913,25.301886 163.21215,21.875 150.21875,21.875 C 137.22881,21.875 125.05768,25.304847 114.5,31.28125 C 110.95489,25.645571 104.70753,21.875 97.5625,21.875 z"
       transform="translate(215.23291,337.26301)"
       id="path2479"
       style="fill:#784421;fill-opacity:1;fill-rule:nonzero;stroke:#000000;stroke-width:4.00000048;stroke-linecap:round;stroke-linejoin:round;stroke-miterlimit:4;stroke-dasharray:none;stroke-opacity:1" />
    <path
       d="M 424.33182,614.21875 C 393.92593,614.21875 369.23807,638.90661 369.23807,669.3125 C 369.23807,675.59911 370.29573,681.62064 372.23807,687.25 L 476.39432,687.25 C 478.33666,681.62065 479.39432,675.59911 479.39432,669.3125 C 479.39432,638.90661 454.73771,614.21874 424.33182,614.21875 z"
       id="path3163"
       style="fill:#784421;fill-opacity:1;fill-rule:nonzero;stroke:#000000;stroke-width:4;stroke-linecap:round;stroke-linejoin:round;stroke-miterlimit:4;stroke-dasharray:none;stroke-opacity:1" />
    <path
       d="M 314.14432,614.21875 C 283.73843,614.21875 259.08183,638.90661 259.08182,669.3125 C 259.08182,675.59911 260.13948,681.62064 262.08182,687.25 L 366.23807,687.25 C 368.18041,681.62065 369.23807,675.59911 369.23807,669.3125 C 369.23807,638.90661 344.5502,614.21874 314.14432,614.21875 z"
       id="path3165"
       style="fill:#784421;fill-opacity:1;fill-rule:nonzero;stroke:#000000;stroke-width:4;stroke-linecap:round;stroke-linejoin:round;stroke-miterlimit:4;stroke-dasharray:none;stroke-opacity:1" />
    <path
       d="M 371.41771,413.3978 A 9.4428234,9.4428234 0 1 1 352.53206,413.3978 A 9.4428234,9.4428234 0 1 1 371.41771,413.3978 z"
       transform="matrix(2.1666666,0,0,2.1666666,-441.16569,-478.20554)"
       id="path3177"
       style="fill:#ffffff;fill-opacity:1;fill-rule:nonzero;stroke:#000000;stroke-width:1.84615386;stroke-linecap:round;stroke-linejoin:round;stroke-miterlimit:4;stroke-dasharray:none;stroke-opacity:1" />
    <path
       d="M 371.41771,413.3978 A 9.4428234,9.4428234 0 1 1 352.53206,413.3978 A 9.4428234,9.4428234 0 1 1 371.41771,413.3978 z"
       transform="matrix(2.1666666,0,0,2.1666666,-395.84014,-478.20554)"
       id="path3179"
       style="fill:#ffffff;fill-opacity:1;fill-rule:nonzero;stroke:#000000;stroke-width:1.84615386;stroke-linecap:round;stroke-linejoin:round;stroke-miterlimit:4;stroke-dasharray:none;stroke-opacity:1" />
    <path
       d="M 377.08343,426.93253 A 6.6099763,6.6099763 0 1 1 363.86347,426.93253 A 6.6099763,6.6099763 0 1 1 377.08343,426.93253 z"
       transform="translate(13.005549,-5.5105236)"
       id="path3183"
       style="fill:#000000;fill-opacity:1;fill-rule:nonzero;stroke:none;stroke-width:4;stroke-linecap:round;stroke-linejoin:round;stroke-miterlimit:4;stroke-dasharray:none;stroke-opacity:1" />
    <path
       d="M 349.50895,461.22847 C 354.72421,455.66553 376.61993,455.64071 381.49585,461.92384 C 386.12597,467.89024 374.54219,484.87096 365.50241,484.17559 C 356.48923,483.48227 344.62979,466.4329 349.50895,461.22847 z"
       id="path3192"
       style="fill:#000000;fill-opacity:1;fill-rule:evenodd;stroke:none;stroke-width:1px;stroke-linecap:butt;stroke-linejoin:miter;stroke-opacity:1" />
    <path
       d="M 354,671.86218 A 17.5,17.5 0 1 1 319,671.86218 A 17.5,17.5 0 1 1 354,671.86218 z"
       transform="matrix(0.8428571,0,0,1,10.897888,-0.5)"
       id="path3220"
       style="fill:#502d16;fill-opacity:1;fill-rule:nonzero;stroke:#000000;stroke-width:4;stroke-linecap:round;stroke-linejoin:round;stroke-miterlimit:4;stroke-dasharray:none;stroke-opacity:1" />
    <path
       d="M 354,671.86218 A 17.5,17.5 0 1 1 319,671.86218 A 17.5,17.5 0 1 1 354,671.86218 z"
       transform="matrix(0.8428571,0,0,1,47.897888,-0.5)"
       id="path3224"
       style="fill:#502d16;fill-opacity:1;fill-rule:nonzero;stroke:#000000;stroke-width:4;stroke-linecap:round;stroke-linejoin:round;stroke-miterlimit:4;stroke-dasharray:none;stroke-opacity:1" />
    <path
       d="M 354,671.86218 A 17.5,17.5 0 1 1 319,671.86218 A 17.5,17.5 0 1 1 354,671.86218 z"
       transform="matrix(0.8428571,0,0,1,30.397888,-0.5)"
       id="path3222"
       style="fill:#502d16;fill-opacity:1;fill-rule:nonzero;stroke:#000000;stroke-width:4;stroke-linecap:round;stroke-linejoin:round;stroke-miterlimit:4;stroke-dasharray:none;stroke-opacity:1" />
    <path
       d="M 354,671.86218 A 17.5,17.5 0 1 1 319,671.86218 A 17.5,17.5 0 1 1 354,671.86218 z"
       transform="matrix(0.8428571,0,0,1,124.39789,-0.5)"
       id="path3226"
       style="fill:#502d16;fill-opacity:1;fill-rule:nonzero;stroke:#000000;stroke-width:4;stroke-linecap:round;stroke-linejoin:round;stroke-miterlimit:4;stroke-dasharray:none;stroke-opacity:1" />
    <path
       d="M 354,671.86218 A 17.5,17.5 0 1 1 319,671.86218 A 17.5,17.5 0 1 1 354,671.86218 z"
       transform="matrix(0.8428571,0,0,1,161.39789,-0.5)"
       id="path3228"
       style="fill:#502d16;fill-opacity:1;fill-rule:nonzero;stroke:#000000;stroke-width:4;stroke-linecap:round;stroke-linejoin:round;stroke-miterlimit:4;stroke-dasharray:none;stroke-opacity:1" />
    <path
       d="M 354,671.86218 A 17.5,17.5 0 1 1 319,671.86218 A 17.5,17.5 0 1 1 354,671.86218 z"
       transform="matrix(0.8428571,0,0,1,143.89789,-0.5)"
       id="path3230"
       style="fill:#502d16;fill-opacity:1;fill-rule:nonzero;stroke:#000000;stroke-width:4;stroke-linecap:round;stroke-linejoin:round;stroke-miterlimit:4;stroke-dasharray:none;stroke-opacity:1" />
    <path
       d="M 122.84375,158.125 C 125.91243,161.58163 128.94539,165.7109 131.65625,170.40625 C 140.86775,186.36104 143.10987,202.3365 136.65625,206.0625 C 130.20263,209.78851 117.49275,199.86104 108.28125,183.90625 C 106.47398,180.77597 104.94494,177.66404 103.6875,174.625 C 104.73988,179.88843 106.68339,185.51773 109.8125,190.9375 C 117.30882,203.9215 127.50669,212.83845 135.34375,214.09375 C 131.44772,219.65612 131.29629,228.18158 135.59375,235.625 C 137.24614,238.48701 139.34903,240.84791 141.71875,242.65625 C 140.80969,235.67923 143.33487,229.10001 148.8125,225.9375 C 154.28937,222.77544 161.25639,223.88196 166.84375,228.15625 C 166.4628,225.19902 165.46537,222.2066 163.8125,219.34375 C 159.51505,211.90034 152.05373,207.74664 145.28125,208.34375 C 148.11265,200.92901 145.52757,187.64025 138.03125,174.65625 C 133.88058,167.46707 128.24871,161.9356 122.84375,158.125 z"
       transform="translate(241.96358,357.13801)"
       id="path3348"
       style="fill:#000000;fill-opacity:0.31372549;fill-rule:nonzero;stroke:none;stroke-width:4;stroke-linecap:butt;stroke-linejoin:round;stroke-miterlimit:4;stroke-dasharray:none;stroke-opacity:1" />
    <path
       d="M 440.03557,422.84064 A 49.10268,49.10268 0 1 1 341.83021,422.84064 A 49.10268,49.10268 0 1 1 440.03557,422.84064 z"
       transform="matrix(0.4679487,0,0,0.4679487,217.45205,346.14477)"
       id="path3244"
       style="fill:#000000;fill-opacity:0.31372549;fill-rule:nonzero;stroke:none;stroke-width:8.54794598;stroke-linecap:round;stroke-linejoin:round;stroke-miterlimit:4;stroke-dasharray:none;stroke-opacity:1" />
    <path
       d="M 440.03557,422.84064 A 49.10268,49.10268 0 1 1 341.83021,422.84064 A 49.10268,49.10268 0 1 1 440.03557,422.84064 z"
       transform="matrix(0.4052555,-0.2339743,0.2339743,0.4052555,75.173487,459.09716)"
       id="path3159"
       style="fill:#784421;fill-opacity:1;fill-rule:nonzero;stroke:#000000;stroke-width:8.54794598;stroke-linecap:round;stroke-linejoin:round;stroke-miterlimit:4;stroke-dasharray:none;stroke-opacity:1" />
    <path
       d="M 440.03557,422.84064 A 49.10268,49.10268 0 1 1 341.83021,422.84064 A 49.10268,49.10268 0 1 1 440.03557,422.84064 z"
       transform="matrix(0.4052555,0.2339743,-0.2339743,0.4052555,337.17715,276.16062)"
       id="path3161"
       style="fill:#784421;fill-opacity:1;fill-rule:nonzero;stroke:#000000;stroke-width:8.54794598;stroke-linecap:round;stroke-linejoin:round;stroke-miterlimit:4;stroke-dasharray:none;stroke-opacity:1" />
    <path
       d="M 354,671.86218 A 17.5,17.5 0 1 1 319,671.86218 A 17.5,17.5 0 1 1 354,671.86218 z"
       transform="matrix(0.2259419,-0.3913429,0.4453844,0.2571429,-39.451827,510.25836)"
       id="path3264"
       style="fill:#502d16;fill-opacity:1;fill-rule:nonzero;stroke:#000000;stroke-width:7.6176548;stroke-linecap:round;stroke-linejoin:round;stroke-miterlimit:4;stroke-dasharray:none;stroke-opacity:1" />
    <path
       d="M 354,671.86218 A 17.5,17.5 0 1 1 319,671.86218 A 17.5,17.5 0 1 1 354,671.86218 z"
       transform="matrix(0.2259419,-0.3913429,0.4453844,0.2571429,-29.533357,493.07906)"
       id="path3266"
       style="fill:#502d16;fill-opacity:1;fill-rule:nonzero;stroke:#000000;stroke-width:7.6176548;stroke-linecap:round;stroke-linejoin:round;stroke-miterlimit:4;stroke-dasharray:none;stroke-opacity:1" />
    <path
       d="M 354,671.86218 A 17.5,17.5 0 1 1 319,671.86218 A 17.5,17.5 0 1 1 354,671.86218 z"
       transform="matrix(0.2259419,-0.3913429,0.4453844,0.2571429,-30.242469,504.10152)"
       id="path3268"
       style="fill:#502d16;fill-opacity:1;fill-rule:nonzero;stroke:#000000;stroke-width:7.6176548;stroke-linecap:round;stroke-linejoin:round;stroke-miterlimit:4;stroke-dasharray:none;stroke-opacity:1" />
    <path
       d="M 354,671.86218 A 17.5,17.5 0 1 1 319,671.86218 A 17.5,17.5 0 1 1 354,671.86218 z"
       transform="matrix(-0.2259419,-0.3913429,-0.4453844,0.2571429,769.41564,510.69587)"
       id="path3270"
       style="fill:#502d16;fill-opacity:1;fill-rule:nonzero;stroke:#000000;stroke-width:7.6176548;stroke-linecap:round;stroke-linejoin:round;stroke-miterlimit:4;stroke-dasharray:none;stroke-opacity:1" />
    <path
       d="M 354,671.86218 A 17.5,17.5 0 1 1 319,671.86218 A 17.5,17.5 0 1 1 354,671.86218 z"
       transform="matrix(-0.2259419,-0.3913429,-0.4453844,0.2571429,759.49718,493.51658)"
       id="path3272"
       style="fill:#502d16;fill-opacity:1;fill-rule:nonzero;stroke:#000000;stroke-width:7.6176548;stroke-linecap:round;stroke-linejoin:round;stroke-miterlimit:4;stroke-dasharray:none;stroke-opacity:1" />
    <path
       d="M 354,671.86218 A 17.5,17.5 0 1 1 319,671.86218 A 17.5,17.5 0 1 1 354,671.86218 z"
       transform="matrix(-0.2259419,-0.3913429,-0.4453844,0.2571429,760.20629,504.53904)"
       id="path3274"
       style="fill:#502d16;fill-opacity:1;fill-rule:nonzero;stroke:#000000;stroke-width:7.6176548;stroke-linecap:round;stroke-linejoin:round;stroke-miterlimit:4;stroke-dasharray:none;stroke-opacity:1" />
    <path
       d="M 418.38019,367.63601 C 414.36263,367.63601 410.85467,369.75223 408.85299,372.91548 C 414.99647,377.05352 420.28628,382.33747 424.42063,388.48377 C 427.57388,386.48005 429.67532,382.94184 429.67532,378.93161 C 429.67532,372.69818 424.61336,367.63601 418.38019,367.63601 z"
       id="path2483"
       style="fill:#502d16;fill-opacity:1;fill-rule:nonzero;stroke:#000000;stroke-width:3.99999976;stroke-linecap:round;stroke-linejoin:round;stroke-miterlimit:4;stroke-dasharray:none;stroke-opacity:1" />
    <path
       d="M 377.08343,426.93253 A 6.6099763,6.6099763 0 1 1 363.86347,426.93253 A 6.6099763,6.6099763 0 1 1 377.08343,426.93253 z"
       transform="translate(-21.408717,-5.5105236)"
       id="path2515"
       style="fill:#000000;fill-opacity:1;fill-rule:nonzero;stroke:none;stroke-width:4;stroke-linecap:round;stroke-linejoin:round;stroke-miterlimit:4;stroke-dasharray:none;stroke-opacity:1" />
    <path
       d="M 312.74542,367.63601 C 316.76298,367.63601 320.27094,369.75223 322.27262,372.91548 C 316.12914,377.05352 310.83933,382.33747 306.70498,388.48377 C 303.55173,386.48005 301.45029,382.94184 301.45029,378.93161 C 301.45029,372.69818 306.51225,367.63601 312.74542,367.63601 z"
       id="path2523"
       style="fill:#502d16;fill-opacity:1;fill-rule:nonzero;stroke:#000000;stroke-width:3.99999976;stroke-linecap:round;stroke-linejoin:round;stroke-miterlimit:4;stroke-dasharray:none;stroke-opacity:1" />
    <path
       d="M 217.8125,67.8125 C 218.55447,71.963694 218.9375,76.229892 218.9375,80.59375 C 218.93751,120.72818 186.35318,153.3125 146.21875,153.3125 C 115.58041,153.3125 89.380029,134.30974 78.6875,107.46875 C 84.769671,141.46835 114.47932,167.3125 150.21875,167.3125 C 190.35318,167.3125 222.93751,134.72818 222.9375,94.59375 C 222.9375,85.131264 221.11355,76.103231 217.8125,67.8125 z"
       transform="translate(215.23291,337.26301)"
       id="path2525"
       style="fill:#000000;fill-opacity:0.31372549;fill-rule:nonzero;stroke:none;stroke-width:4.00000048;stroke-linecap:round;stroke-linejoin:round;stroke-miterlimit:4;stroke-dasharray:none;stroke-opacity:1" />
    <path
       d="M 121.75,165.8103 A 3.5,3.5 0 1 1 114.75,165.8103 A 3.5,3.5 0 1 1 121.75,165.8103 z"
       transform="translate(240.69581,356.90578)"
       id="path3346"
       style="opacity:1;fill:#000000;fill-opacity:1;fill-rule:nonzero;stroke:none;stroke-width:4;stroke-linecap:round;stroke-linejoin:round;stroke-miterlimit:4;stroke-dasharray:none;stroke-opacity:1" />
  </g>
</svg>
