<?xml version="1.0" encoding="UTF-8" standalone="no"?>
<!-- Created with Inkscape (http://www.inkscape.org/) -->

<svg
   xmlns:dc="http://purl.org/dc/elements/1.1/"
   xmlns:cc="http://creativecommons.org/ns#"
   xmlns:rdf="http://www.w3.org/1999/02/22-rdf-syntax-ns#"
   xmlns:svg="http://www.w3.org/2000/svg"
   xmlns="http://www.w3.org/2000/svg"
   xmlns:sodipodi="http://sodipodi.sourceforge.net/DTD/sodipodi-0.dtd"
   xmlns:inkscape="http://www.inkscape.org/namespaces/inkscape"
   version="1.0"
   width="333.56"
   height="333.5603"
   id="svg2"
   inkscape:version="0.47 r22583"
   sodipodi:docname="lemmling-cartoon-bear.svg">
  <metadata
     id="metadata40">
    <rdf:RDF>
      <cc:Work
         rdf:about="">
        <dc:format>image/svg+xml</dc:format>
        <dc:type
           rdf:resource="http://purl.org/dc/dcmitype/StillImage" />
      </cc:Work>
    </rdf:RDF>
  </metadata>
  <sodipodi:namedview
     pagecolor="#ffffff"
     bordercolor="#666666"
     borderopacity="1"
     objecttolerance="10"
     gridtolerance="10"
     guidetolerance="10"
     inkscape:pageopacity="0"
     inkscape:pageshadow="2"
     inkscape:window-width="1280"
     inkscape:window-height="923"
     id="namedview38"
     showgrid="false"
     inkscape:zoom="0.70751825"
     inkscape:cx="123.49766"
     inkscape:cy="166.78016"
     inkscape:window-x="0"
     inkscape:window-y="24"
     inkscape:window-maximized="1"
     inkscape:current-layer="svg2" />
  <defs
     id="defs4" />
  <g
     transform="translate(-198.68124,-357.13801)"
     id="layer1">
    <path
       d="m 513.68958,561.9649 a 121.49766,121.49766 0 1 1 -242.99531,0 121.49766,121.49766 0 1 1 242.99531,0 z"
       transform="translate(-26.730683,0)"
       id="path2385"
       style="fill:#784421;fill-opacity:1;fill-rule:nonzero;stroke:#000000;stroke-width:4;stroke-linecap:round;stroke-linejoin:round;stroke-miterlimit:4;stroke-opacity:1;stroke-dasharray:none" />
    <path
       d="m 150.21875,103.21875 c -24.50514,0 -47.31382,7.2551 -66.40625,19.75 8.651191,30.48196 36.66471,52.84375 69.90625,52.84375 31.77309,0 58.79939,-20.42134 68.6875,-48.84375 -20.18591,-14.93919 -45.16502,-23.75 -72.1875,-23.75 z"
       transform="translate(215.23291,337.26301)"
       id="path3302"
       style="fill:#000000;fill-opacity:0.31372549;fill-rule:nonzero;stroke:none" />
    <path
       d="m 440.03557,422.84064 a 49.10268,49.10268 0 1 1 -98.20536,0 49.10268,49.10268 0 1 1 98.20536,0 z"
       transform="matrix(0.4679487,0,0,0.4679487,153.39139,345.79121)"
       id="path3242"
       style="fill:#000000;fill-opacity:0.31372549;fill-rule:nonzero;stroke:none" />
    <path
       d="m 379.99236,531.79116 c -9.67459,-16.75688 -27.33163,-24.67068 -31.64266,-22.18171 -4.69774,2.71224 -6.25895,21.7217 3.41564,38.47858 7.49632,12.98401 17.68952,21.89553 25.52658,23.15083 -3.89603,5.56237 -4.02716,14.08725 0.2703,21.53067 1.65238,2.86201 3.75101,5.23058 6.12073,7.03892 -0.90905,-6.97702 1.61099,-13.55964 7.08862,-16.72215 5.47686,-3.16206 12.43876,-2.05214 18.02612,2.22215 -0.38095,-2.95723 -1.35559,-5.97295 -3.00846,-8.8358 -4.29745,-7.44341 -11.76553,-11.5809 -18.53801,-10.98379 2.8314,-7.41474 0.23746,-20.7137 -7.25886,-33.6977 z"
       id="path3310"
       style="fill:#b7bec8;fill-opacity:1;fill-rule:nonzero;stroke:#000000;stroke-width:4;stroke-linecap:butt;stroke-linejoin:round;stroke-miterlimit:4;stroke-opacity:1;stroke-dasharray:none" />
    <path
       d="m 365.45682,440.46875 c -12.92545,0 -25.3749,2.03698 -37.0625,5.78125 10.51387,-2.45545 21.60216,-3.78125 33.0625,-3.78125 31.43752,0 60.10758,9.87809 81.6875,26.09375 -21.06394,-17.54131 -48.15384,-28.09375 -77.6875,-28.09375 z m 115.0625,82.375 c 1.5943,6.48815 2.4375,13.18721 2.4375,20.0625 1e-5,55.4436 -54.43329,100.4375 -121.5,100.4375 -56.08404,2e-5 -103.31087,-31.45896 -117.28125,-74.1875 3.72411,63.72461 56.62784,114.31248 121.28125,114.3125 67.06671,0 121.50001,-54.43329 121.5,-121.5 0,-13.68255 -2.26138,-26.84919 -6.4375,-39.125 z"
       id="path3276"
       style="fill:#000000;fill-opacity:0.31372549;fill-rule:nonzero;stroke:none" />
    <path
       d="m 97.5625,21.875 c -11.05537,0 -20.031253,8.975879 -20.03125,20.03125 0,7.154588 3.757982,13.426214 9.40625,16.96875 -5.971075,10.554182 -9.406249,22.735047 -9.40625,35.71875 0,40.13443 32.55307,72.71875 72.6875,72.71875 40.13443,0 72.71876,-32.58432 72.71875,-72.71875 0,-12.983703 -3.43518,-25.164568 -9.40625,-35.71875 5.63568,-3.545109 9.40625,-9.823717 9.40625,-16.96875 0,-11.05537 -8.97589,-20.03125 -20.03125,-20.03125 -7.14503,0 -13.39239,3.770571 -16.9375,9.40625 -10.55962,-5.979364 -22.7566,-9.40625 -35.75,-9.40625 -12.98994,0 -25.16107,3.429847 -35.71875,9.40625 C 110.95489,25.645571 104.70753,21.875 97.5625,21.875 z"
       transform="translate(215.23291,337.26301)"
       id="path2479"
       style="fill:#784421;fill-opacity:1;fill-rule:nonzero;stroke:#000000;stroke-width:4.00000048;stroke-linecap:round;stroke-linejoin:round;stroke-miterlimit:4;stroke-opacity:1;stroke-dasharray:none" />
    <path
       d="m 424.33182,614.21875 c -30.40589,0 -55.09375,24.68786 -55.09375,55.09375 0,6.28661 1.05766,12.30814 3,17.9375 l 104.15625,0 c 1.94234,-5.62935 3,-11.65089 3,-17.9375 0,-30.40589 -24.65661,-55.09376 -55.0625,-55.09375 z"
       id="path3163"
       style="fill:#784421;fill-opacity:1;fill-rule:nonzero;stroke:#000000;stroke-width:4;stroke-linecap:round;stroke-linejoin:round;stroke-miterlimit:4;stroke-opacity:1;stroke-dasharray:none" />
    <path
       d="m 314.14432,614.21875 c -30.40589,0 -55.06249,24.68786 -55.0625,55.09375 0,6.28661 1.05766,12.30814 3,17.9375 l 104.15625,0 c 1.94234,-5.62935 3,-11.65089 3,-17.9375 0,-30.40589 -24.68787,-55.09376 -55.09375,-55.09375 z"
       id="path3165"
       style="fill:#784421;fill-opacity:1;fill-rule:nonzero;stroke:#000000;stroke-width:4;stroke-linecap:round;stroke-linejoin:round;stroke-miterlimit:4;stroke-opacity:1;stroke-dasharray:none" />
    <path
       d="m 371.41771,413.3978 a 9.442825,9.442825 0 1 1 -18.88565,0 9.442825,9.442825 0 1 1 18.88565,0 z"
       transform="matrix(2.1666666,0,0,2.1666666,-441.16569,-478.20554)"
       id="path3177"
       style="fill:#ffffff;fill-opacity:1;fill-rule:nonzero;stroke:#000000;stroke-width:1.84615386;stroke-linecap:round;stroke-linejoin:round;stroke-miterlimit:4;stroke-opacity:1;stroke-dasharray:none" />
    <path
       d="m 371.41771,413.3978 a 9.442825,9.442825 0 1 1 -18.88565,0 9.442825,9.442825 0 1 1 18.88565,0 z"
       transform="matrix(2.1666666,0,0,2.1666666,-395.84014,-478.20554)"
       id="path3179"
       style="fill:#ffffff;fill-opacity:1;fill-rule:nonzero;stroke:#000000;stroke-width:1.84615386;stroke-linecap:round;stroke-linejoin:round;stroke-miterlimit:4;stroke-opacity:1;stroke-dasharray:none" />
    <path
       d="m 377.08343,426.93253 a 6.60998,6.60998 0 1 1 -13.21996,0 6.60998,6.60998 0 1 1 13.21996,0 z"
       transform="translate(13.005549,-5.5105236)"
       id="path3183"
       style="fill:#000000;fill-opacity:1;fill-rule:nonzero;stroke:none" />
    <path
       d="m 349.50895,461.22847 c 5.21526,-5.56294 27.11098,-5.58776 31.9869,0.69537 4.63012,5.9664 -6.95366,22.94712 -15.99344,22.25175 -9.01318,-0.69332 -20.87262,-17.74269 -15.99346,-22.94712 z"
       id="path3192"
       style="fill:#000000;fill-opacity:1;fill-rule:evenodd;stroke:none" />
    <path
       d="m 354,671.86218 a 17.5,17.5 0 1 1 -35,0 17.5,17.5 0 1 1 35,0 z"
       transform="matrix(0.8428571,0,0,1,10.897888,-0.5)"
       id="path3220"
       style="fill:#502d16;fill-opacity:1;fill-rule:nonzero;stroke:#000000;stroke-width:4;stroke-linecap:round;stroke-linejoin:round;stroke-miterlimit:4;stroke-opacity:1;stroke-dasharray:none" />
    <path
       d="m 354,671.86218 a 17.5,17.5 0 1 1 -35,0 17.5,17.5 0 1 1 35,0 z"
       transform="matrix(0.8428571,0,0,1,47.897888,-0.5)"
       id="path3224"
       style="fill:#502d16;fill-opacity:1;fill-rule:nonzero;stroke:#000000;stroke-width:4;stroke-linecap:round;stroke-linejoin:round;stroke-miterlimit:4;stroke-opacity:1;stroke-dasharray:none" />
    <path
       d="m 354,671.86218 a 17.5,17.5 0 1 1 -35,0 17.5,17.5 0 1 1 35,0 z"
       transform="matrix(0.8428571,0,0,1,30.397888,-0.5)"
       id="path3222"
       style="fill:#502d16;fill-opacity:1;fill-rule:nonzero;stroke:#000000;stroke-width:4;stroke-linecap:round;stroke-linejoin:round;stroke-miterlimit:4;stroke-opacity:1;stroke-dasharray:none" />
    <path
       d="m 354,671.86218 a 17.5,17.5 0 1 1 -35,0 17.5,17.5 0 1 1 35,0 z"
       transform="matrix(0.8428571,0,0,1,124.39789,-0.5)"
       id="path3226"
       style="fill:#502d16;fill-opacity:1;fill-rule:nonzero;stroke:#000000;stroke-width:4;stroke-linecap:round;stroke-linejoin:round;stroke-miterlimit:4;stroke-opacity:1;stroke-dasharray:none" />
    <path
       d="m 354,671.86218 a 17.5,17.5 0 1 1 -35,0 17.5,17.5 0 1 1 35,0 z"
       transform="matrix(0.8428571,0,0,1,161.39789,-0.5)"
       id="path3228"
       style="fill:#502d16;fill-opacity:1;fill-rule:nonzero;stroke:#000000;stroke-width:4;stroke-linecap:round;stroke-linejoin:round;stroke-miterlimit:4;stroke-opacity:1;stroke-dasharray:none" />
    <path
       d="m 354,671.86218 a 17.5,17.5 0 1 1 -35,0 17.5,17.5 0 1 1 35,0 z"
       transform="matrix(0.8428571,0,0,1,143.89789,-0.5)"
       id="path3230"
       style="fill:#502d16;fill-opacity:1;fill-rule:nonzero;stroke:#000000;stroke-width:4;stroke-linecap:round;stroke-linejoin:round;stroke-miterlimit:4;stroke-opacity:1;stroke-dasharray:none" />
    <path
       d="m 122.84375,158.125 c 3.06868,3.45663 6.10164,7.5859 8.8125,12.28125 9.2115,15.95479 11.45362,31.93025 5,35.65625 -6.45362,3.72601 -19.1635,-6.20146 -28.375,-22.15625 -1.80727,-3.13028 -3.33631,-6.24221 -4.59375,-9.28125 1.05238,5.26343 2.99589,10.89273 6.125,16.3125 7.49632,12.984 17.69419,21.90095 25.53125,23.15625 -3.89603,5.56237 -4.04746,14.08783 0.25,21.53125 1.65239,2.86201 3.75528,5.22291 6.125,7.03125 -0.90906,-6.97702 1.61612,-13.55624 7.09375,-16.71875 5.47687,-3.16206 12.44389,-2.05554 18.03125,2.21875 -0.38095,-2.95723 -1.37838,-5.94965 -3.03125,-8.8125 -4.29745,-7.44341 -11.75877,-11.59711 -18.53125,-11 2.8314,-7.41474 0.24632,-20.7035 -7.25,-33.6875 -4.15067,-7.18918 -9.78254,-12.72065 -15.1875,-16.53125 z"
       transform="translate(241.96358,357.13801)"
       id="path3348"
       style="fill:#000000;fill-opacity:0.31372549;fill-rule:nonzero;stroke:none" />
    <path
       d="m 440.03557,422.84064 a 49.10268,49.10268 0 1 1 -98.20536,0 49.10268,49.10268 0 1 1 98.20536,0 z"
       transform="matrix(0.4679487,0,0,0.4679487,217.45205,346.14477)"
       id="path3244"
       style="fill:#000000;fill-opacity:0.31372549;fill-rule:nonzero;stroke:none" />
    <path
       d="m 440.03557,422.84064 a 49.10268,49.10268 0 1 1 -98.20536,0 49.10268,49.10268 0 1 1 98.20536,0 z"
       transform="matrix(0.4052555,-0.2339743,0.2339743,0.4052555,75.173487,459.09716)"
       id="path3159"
       style="fill:#784421;fill-opacity:1;fill-rule:nonzero;stroke:#000000;stroke-width:8.54794598;stroke-linecap:round;stroke-linejoin:round;stroke-miterlimit:4;stroke-opacity:1;stroke-dasharray:none" />
    <path
       d="m 440.03557,422.84064 a 49.10268,49.10268 0 1 1 -98.20536,0 49.10268,49.10268 0 1 1 98.20536,0 z"
       transform="matrix(0.4052555,0.2339743,-0.2339743,0.4052555,337.17715,276.16062)"
       id="path3161"
       style="fill:#784421;fill-opacity:1;fill-rule:nonzero;stroke:#000000;stroke-width:8.54794598;stroke-linecap:round;stroke-linejoin:round;stroke-miterlimit:4;stroke-opacity:1;stroke-dasharray:none" />
    <path
       d="m 354,671.86218 a 17.5,17.5 0 1 1 -35,0 17.5,17.5 0 1 1 35,0 z"
       transform="matrix(0.2259419,-0.3913429,0.4453844,0.2571429,-39.451827,510.25836)"
       id="path3264"
       style="fill:#502d16;fill-opacity:1;fill-rule:nonzero;stroke:#000000;stroke-width:7.6176548;stroke-linecap:round;stroke-linejoin:round;stroke-miterlimit:4;stroke-opacity:1;stroke-dasharray:none" />
    <path
       d="m 354,671.86218 a 17.5,17.5 0 1 1 -35,0 17.5,17.5 0 1 1 35,0 z"
       transform="matrix(0.2259419,-0.3913429,0.4453844,0.2571429,-29.533357,493.07906)"
       id="path3266"
       style="fill:#502d16;fill-opacity:1;fill-rule:nonzero;stroke:#000000;stroke-width:7.6176548;stroke-linecap:round;stroke-linejoin:round;stroke-miterlimit:4;stroke-opacity:1;stroke-dasharray:none" />
    <path
       d="m 354,671.86218 a 17.5,17.5 0 1 1 -35,0 17.5,17.5 0 1 1 35,0 z"
       transform="matrix(0.2259419,-0.3913429,0.4453844,0.2571429,-30.242469,504.10152)"
       id="path3268"
       style="fill:#502d16;fill-opacity:1;fill-rule:nonzero;stroke:#000000;stroke-width:7.6176548;stroke-linecap:round;stroke-linejoin:round;stroke-miterlimit:4;stroke-opacity:1;stroke-dasharray:none" />
    <path
       d="m 354,671.86218 a 17.5,17.5 0 1 1 -35,0 17.5,17.5 0 1 1 35,0 z"
       transform="matrix(-0.2259419,-0.3913429,-0.4453844,0.2571429,769.41564,510.69587)"
       id="path3270"
       style="fill:#502d16;fill-opacity:1;fill-rule:nonzero;stroke:#000000;stroke-width:7.6176548;stroke-linecap:round;stroke-linejoin:round;stroke-miterlimit:4;stroke-opacity:1;stroke-dasharray:none" />
    <path
       d="m 354,671.86218 a 17.5,17.5 0 1 1 -35,0 17.5,17.5 0 1 1 35,0 z"
       transform="matrix(-0.2259419,-0.3913429,-0.4453844,0.2571429,759.49718,493.51658)"
       id="path3272"
       style="fill:#502d16;fill-opacity:1;fill-rule:nonzero;stroke:#000000;stroke-width:7.6176548;stroke-linecap:round;stroke-linejoin:round;stroke-miterlimit:4;stroke-opacity:1;stroke-dasharray:none" />
    <path
       d="m 354,671.86218 a 17.5,17.5 0 1 1 -35,0 17.5,17.5 0 1 1 35,0 z"
       transform="matrix(-0.2259419,-0.3913429,-0.4453844,0.2571429,760.20629,504.53904)"
       id="path3274"
       style="fill:#502d16;fill-opacity:1;fill-rule:nonzero;stroke:#000000;stroke-width:7.6176548;stroke-linecap:round;stroke-linejoin:round;stroke-miterlimit:4;stroke-opacity:1;stroke-dasharray:none" />
    <path
       d="m 418.38019,367.63601 c -4.01756,0 -7.52552,2.11622 -9.5272,5.27947 6.14348,4.13804 11.43329,9.42199 15.56764,15.56829 3.15325,-2.00372 5.25469,-5.54193 5.25469,-9.55216 0,-6.23343 -5.06196,-11.2956 -11.29513,-11.2956 z"
       id="path2483"
       style="fill:#502d16;fill-opacity:1;fill-rule:nonzero;stroke:#000000;stroke-width:3.99999976;stroke-linecap:round;stroke-linejoin:round;stroke-miterlimit:4;stroke-opacity:1;stroke-dasharray:none" />
    <path
       d="m 377.08343,426.93253 a 6.60998,6.60998 0 1 1 -13.21996,0 6.60998,6.60998 0 1 1 13.21996,0 z"
       transform="translate(-21.408717,-5.5105236)"
       id="path2515"
       style="fill:#000000;fill-opacity:1;fill-rule:nonzero;stroke:none" />
    <path
       d="m 312.74542,367.63601 c 4.01756,0 7.52552,2.11622 9.5272,5.27947 -6.14348,4.13804 -11.43329,9.42199 -15.56764,15.56829 -3.15325,-2.00372 -5.25469,-5.54193 -5.25469,-9.55216 0,-6.23343 5.06196,-11.2956 11.29513,-11.2956 z"
       id="path2523"
       style="fill:#502d16;fill-opacity:1;fill-rule:nonzero;stroke:#000000;stroke-width:3.99999976;stroke-linecap:round;stroke-linejoin:round;stroke-miterlimit:4;stroke-opacity:1;stroke-dasharray:none" />
    <path
       d="m 217.8125,67.8125 c 0.74197,4.151194 1.125,8.417392 1.125,12.78125 1e-5,40.13443 -32.58432,72.71875 -72.71875,72.71875 -30.63834,0 -56.838721,-19.00276 -67.53125,-45.84375 6.082171,33.9996 35.79182,59.84375 71.53125,59.84375 40.13443,0 72.71876,-32.58432 72.71875,-72.71875 0,-9.462486 -1.82395,-18.490519 -5.125,-26.78125 z"
       transform="translate(215.23291,337.26301)"
       id="path2525"
       style="fill:#000000;fill-opacity:0.31372549;fill-rule:nonzero;stroke:none" />
    <path
       d="m 121.75,165.8103 a 3.5,3.5 0 1 1 -7,0 3.5,3.5 0 1 1 7,0 z"
       transform="translate(240.69581,356.90578)"
       id="path3346"
       style="fill:#000000;fill-opacity:1;fill-rule:nonzero;stroke:none" />
  </g>
</svg>
