<?xml version="1.0" encoding="UTF-8" standalone="no"?>
<!-- Created with Inkscape (http://www.inkscape.org/) -->
<svg
   xmlns:dc="http://purl.org/dc/elements/1.1/"
   xmlns:cc="http://creativecommons.org/ns#"
   xmlns:rdf="http://www.w3.org/1999/02/22-rdf-syntax-ns#"
   xmlns:svg="http://www.w3.org/2000/svg"
   xmlns="http://www.w3.org/2000/svg"
   xmlns:xlink="http://www.w3.org/1999/xlink"
   xmlns:sodipodi="http://sodipodi.sourceforge.net/DTD/sodipodi-0.dtd"
   xmlns:inkscape="http://www.inkscape.org/namespaces/inkscape"
   version="1.0"
   width="133"
   height="133"
   id="svg2670"
   xml:space="preserve"
   sodipodi:version="0.32"
   inkscape:version="0.46"
   sodipodi:docname="dark_shiny_border.svg"
   inkscape:output_extension="org.inkscape.output.svg.inkscape"><metadata
     id="metadata29"><rdf:RDF><cc:Work
         rdf:about=""><dc:format>image/svg+xml</dc:format><dc:type
           rdf:resource="http://purl.org/dc/dcmitype/StillImage" /></cc:Work></rdf:RDF></metadata><sodipodi:namedview
     inkscape:window-height="816"
     inkscape:window-width="871"
     inkscape:pageshadow="2"
     inkscape:pageopacity="0.0"
     guidetolerance="10.0"
     gridtolerance="10.0"
     objecttolerance="10.0"
     borderopacity="1.0"
     bordercolor="#666666"
     pagecolor="#ffffff"
     id="base"
     showgrid="false"
     inkscape:zoom="1"
     inkscape:cx="58.396589"
     inkscape:cy="59.642739"
     inkscape:window-x="311"
     inkscape:window-y="100"
     inkscape:current-layer="svg2670" /><defs
     id="defs2673"><linearGradient
       id="linearGradient3247"><stop
         id="stop3249"
         offset="0"
         style="stop-color:#00ff00;stop-opacity:0.627451;" /><stop
         style="stop-color:#ffff00;stop-opacity:0.627451;"
         offset="0.5"
         id="stop3253" /><stop
         id="stop3251"
         offset="1"
         style="stop-color:#ff0000;stop-opacity:0.627451;" /></linearGradient><linearGradient
       inkscape:collect="always"
       xlink:href="#linearGradient3247"
       id="linearGradient3914"
       x1="15.8125"
       y1="106.6489"
       x2="115.8125"
       y2="106.6489"
       gradientUnits="userSpaceOnUse"
       gradientTransform="translate(0.6875005,-75.958)" /><linearGradient
       id="linearGradient4757"><stop
         id="stop4759"
         style="stop-color:#f0f0f0;stop-opacity:0.627451"
         offset="0" /><stop
         id="stop4761"
         style="stop-color:#000000;stop-opacity:0"
         offset="1" /></linearGradient><radialGradient
       cx="-1.5432917"
       cy="33.262531"
       r="50.040485"
       fx="-1.5432917"
       fy="33.262531"
       id="radialGradient4763"
       xlink:href="#linearGradient4757"
       gradientUnits="userSpaceOnUse"
       gradientTransform="matrix(1.2300828,1.0979361,-1.4543213,1.6293529,81.436757,-20.868369)" /><clipPath
       id="clipPath2697"><path
         d="M 0.001,95.999 L 95.999,95.999 L 95.999,0.001 L 0.001,0.001 L 0.001,95.999 z"
         id="path2699" /></clipPath><mask
       id="mask1"><g
         transform="scale(96,96)"
         id="g2721"><image
           xlink:href="dark-bg.png"
           width="1"
           height="1"
           transform="matrix(1,0,0,-1,0,1)"
           id="image2723" /></g></mask><clipPath
       id="clipPath2725"><path
         d="M 0.001,95.999 L 95.999,95.999 L 95.999,0.001 L 0.001,0.001 L 0.001,95.999 z"
         id="path2727" /></clipPath><clipPath
       id="clipPath2755"><path
         d="M 74.414,61.488 L 74.098,62.143 C 69.072,71.392 59.272,77.674 48.015,77.674 C 36.756,77.674 26.955,71.392 21.93,62.143 L 21.617,61.492 L 7.915,68.292 L 8.473,69.446 C 16.092,83.465 30.947,92.988 48.015,92.988 C 65.08,92.988 79.937,83.465 87.556,69.446 L 88.112,68.291 L 74.414,61.488 z"
         id="path2757" /></clipPath><filter
       inkscape:collect="always"
       id="filter3391"><feGaussianBlur
         inkscape:collect="always"
         stdDeviation="1.005"
         id="feGaussianBlur3393" /></filter></defs><path
     style="opacity:1;fill:#ffffff;fill-opacity:1;fill-rule:nonzero;filter:url(#filter3391)"
     d="M 65.048587,-3.5325152 C 28.064587,-3.5325152 -1.9514129,26.483484 -1.9514129,63.467485 C -1.9514129,100.45148 28.064587,130.46748 65.048587,130.46748 C 102.03258,130.46748 132.04858,100.45148 132.04858,63.467485 C 132.04858,26.483485 102.03258,-3.5325152 65.048587,-3.5325152 z M 65.048587,-0.53251472 C 100.37658,-0.53251472 129.04858,28.139486 129.04858,63.467485 C 129.04858,98.79548 100.37658,127.46748 65.048587,127.46748 C 29.720587,127.46748 1.0485871,98.79548 1.0485871,63.467485 C 1.0485871,28.139485 29.720587,-0.53251472 65.048587,-0.53251472 z"
     id="path3180"
     transform="matrix(0.9925374,0,0,0.9925373,1.9368503,3.5061597)" /><g
     transform="matrix(1.3333611,0,0,-1.3344028,2.4986666,130.50133)"
     id="g2679"><g
       clip-path="url(#clipPath2697)"
       id="g2731"><g
         mask="url(#mask1)"
         id="g2737"><g
           clip-path="url(#clipPath2725)"
           id="g2743"><path
             d="M 48,95.999 C 74.509,95.999 95.999,74.509 95.999,48 C 95.999,21.49 74.509,0.001 48,0.001 C 21.49,0.001 0.001,21.49 0.001,48 C 0.001,74.509 21.49,95.999 48,95.999 z"
             id="path2745"
             style="fill:#000000;fill-opacity:1;fill-rule:evenodd;stroke:none" /></g></g></g><g
       clip-path="url(#clipPath2755)"
       id="g2773"><g
         id="g2779"
         style="opacity:0.76078395" /></g></g><path
     d="M 130.5,66.499998 C 130.5,101.84622 101.84622,130.5 66.499999,130.5 C 31.153775,130.5 2.4999995,101.84622 2.5,66.499998 C 2.4999995,31.153774 31.153775,2.4999982 66.499999,2.4999982 C 101.84622,2.4999982 130.5,31.153774 130.5,66.499998 L 130.5,66.499998 z"
     id="path2399"
     style="opacity:1;fill:url(#radialGradient4763);fill-opacity:1;fill-rule:nonzero" /><path
     sodipodi:type="arc"
     style="opacity:1;fill:#ff0000;fill-opacity:1;fill-rule:nonzero"
     id="path2404"
     sodipodi:cx="-27.336033"
     sodipodi:cy="51.433197"
     sodipodi:rx="28.631578"
     sodipodi:ry="46.251011"
     d="M 1.2955456,51.433197 A 28.631578,46.251011 0 0 1 0.74582478,60.452854"
     sodipodi:start="0"
     sodipodi:end="0.19627309"
     sodipodi:open="true"
     transform="translate(2.5,2.5)" /><path
     sodipodi:type="arc"
     style="opacity:1;fill:#ff0000;fill-opacity:1;fill-rule:nonzero"
     id="path2406"
     sodipodi:cx="-11.530364"
     sodipodi:cy="64.777328"
     sodipodi:rx="10.753036"
     sodipodi:ry="10.105263"
     d="M -0.77732849,64.777328 A 10.753036,10.105263 0 0 1 -0.98378471,66.74801"
     sodipodi:start="0"
     sodipodi:end="0.19627309"
     sodipodi:open="true"
     transform="translate(2.5,2.5)" /><path
     sodipodi:type="arc"
     style="opacity:1;fill:#ff0000;fill-opacity:1;fill-rule:nonzero"
     id="path3178"
     sodipodi:cx="-60.63158"
     sodipodi:cy="34.202431"
     sodipodi:rx="15.28745"
     sodipodi:ry="9.0688257"
     d="M -45.344131,34.202431 A 15.28745,9.0688257 0 0 1 -45.637647,35.970991"
     sodipodi:start="0"
     sodipodi:end="0.19627309"
     sodipodi:open="true" /><path
     style="opacity:1;fill:url(#linearGradient3914);fill-opacity:1;fill-rule:nonzero;stroke:none;stroke-width:1;stroke-linecap:round;stroke-linejoin:round;stroke-miterlimit:4;stroke-dasharray:none;stroke-opacity:1"
     d="M 65.25,11.229499 C 45.752581,11.66929 26.957258,21.96075 16.5,40.07325 L 34,50.167 C 44.357664,32.227 67.310001,26.09059 85.249997,36.44825 C 91.229998,39.9008 95.547448,44.187 98.999997,50.167 L 116.5,40.07325 C 111.18838,30.87325 104.54375,24.25988 95.343747,18.94825 C 85.856248,13.470639 75.462934,10.999132 65.25,11.229499 z"
     id="path3903" /></svg>