<!-- Created with Inkscape (http://www.inkscape.org/) --><svg xmlns:dc="http://purl.org/dc/elements/1.1/" xmlns:cc="http://creativecommons.org/ns#" xmlns:rdf="http://www.w3.org/1999/02/22-rdf-syntax-ns#" xmlns:svg="http://www.w3.org/2000/svg" xmlns="http://www.w3.org/2000/svg" xmlns:xlink="http://www.w3.org/1999/xlink" xmlns:sodipodi="http://sodipodi.sourceforge.net/DTD/sodipodi-0.dtd" xmlns:inkscape="http://www.inkscape.org/namespaces/inkscape" version="1.0" width="128" height="128" id="svg2670" xml:space="preserve" sodipodi:version="0.32" inkscape:version="0.46" sodipodi:docname="light_shiny.svg" inkscape:output_extension="org.inkscape.output.svg.inkscape"><metadata id="metadata33"><rdf:RDF><cc:Work rdf:about=""><dc:format>image/svg+xml</dc:format><dc:type rdf:resource="http://purl.org/dc/dcmitype/StillImage"/></cc:Work></rdf:RDF></metadata><sodipodi:namedview inkscape:window-height="726" inkscape:window-width="645" inkscape:pageshadow="2" inkscape:pageopacity="0.0" guidetolerance="10.0" gridtolerance="10.0" objecttolerance="10.0" borderopacity="1.0" bordercolor="#666666" pagecolor="#ffffff" id="base" showgrid="false" inkscape:zoom="3.859375" inkscape:cx="94.834008" inkscape:cy="102.8664" inkscape:window-x="596" inkscape:window-y="146" inkscape:current-layer="svg2670"/><defs id="defs2673"><linearGradient id="linearGradient3247"><stop id="stop3249" offset="0" style="stop-color:#00ff00;stop-opacity:0.627451;"/><stop style="stop-color:#ffff00;stop-opacity:0.627451;" offset="0.5" id="stop3253"/><stop id="stop3251" offset="1" style="stop-color:#ff0000;stop-opacity:0.627451;"/></linearGradient><linearGradient inkscape:collect="always" xlink:href="#linearGradient3247" id="linearGradient3914" x1="15.8125" y1="106.6489" x2="115.8125" y2="106.6489" gradientUnits="userSpaceOnUse" gradientTransform="translate(-1.8124996,-80.458)"/><linearGradient id="linearGradient4757"><stop id="stop4759" style="stop-color:#f0f0f0;stop-opacity:0.627451" offset="0"/><stop id="stop4761" style="stop-color:#000000;stop-opacity:0" offset="1"/></linearGradient><clipPath id="clipPath2697"><path d="M 0.001,95.999 L 95.999,95.999 L 95.999,0.001 L 0.001,0.001 L 0.001,95.999 z" id="path2699"/></clipPath><mask id="mask1"><g transform="scale(96,96)" id="g2721"><image xlink:href="light-bg.png" width="1" height="1" transform="matrix(1,0,0,-1,0,1)" id="image2723"/></g></mask><clipPath id="clipPath2725"><path d="M 0.001,95.999 L 95.999,95.999 L 95.999,0.001 L 0.001,0.001 L 0.001,95.999 z" id="path2727"/></clipPath><clipPath id="clipPath2755"><path d="M 74.414,61.488 L 74.098,62.143 C 69.072,71.392 59.272,77.674 48.015,77.674 C 36.756,77.674 26.955,71.392 21.93,62.143 L 21.617,61.492 L 7.915,68.292 L 8.473,69.446 C 16.092,83.465 30.947,92.988 48.015,92.988 C 65.08,92.988 79.937,83.465 87.556,69.446 L 88.112,68.291 L 74.414,61.488 z" id="path2757"/></clipPath><radialGradient cx="-1.5432917" cy="33.262531" r="50.040485" fx="-1.5432917" fy="33.262531" id="radialGradient4763" xlink:href="#linearGradient4757" gradientUnits="userSpaceOnUse" gradientTransform="matrix(0.9617803,0.8584571,-1.1371085,1.2739627,41.800249,-12.457553)"/></defs><g transform="matrix(1.3333611,0,0,-1.3333611,-1.3333611e-3,128.00133)" id="g2679"><g clip-path="url(#clipPath2697)" id="g2731"><g mask="url(#mask1)" id="g2737"><g clip-path="url(#clipPath2725)" id="g2743"><path d="M 48,95.999 C 74.509,95.999 95.999,74.509 95.999,48 C 95.999,21.49 74.509,0.001 48,0.001 C 21.49,0.001 0.001,21.49 0.001,48 C 0.001,74.509 21.49,95.999 48,95.999 z" id="path2745" style="fill:#000000;fill-opacity:1;fill-rule:evenodd;stroke:none"/></g></g></g><g clip-path="url(#clipPath2755)" id="g2773"><g id="g2779" style="opacity:0.76078395"/></g></g><path d="M 80.161943,55.854252 A 50.040485,50.040485 0 1 1 -19.919027,55.854252 A 50.040485,50.040485 0 1 1 80.161943,55.854252 z" transform="matrix(1.2789644,0,0,1.2789644,25.475727,-7.4355991)" id="path2399" style="opacity:1;fill:url(#radialGradient4763);fill-opacity:1;fill-rule:nonzero"/><path style="opacity:1;fill:url(#linearGradient3914);fill-opacity:1;fill-rule:nonzero;stroke:none;stroke-width:1;stroke-linecap:round;stroke-linejoin:round;stroke-miterlimit:4;stroke-dasharray:none;stroke-opacity:1" d="M 62.75,6.7294994 C 43.252581,7.1692904 24.457258,17.46075 14,35.57325 L 31.5,45.667 C 41.857664,27.727 64.810001,21.59059 82.749997,31.94825 C 88.729998,35.4008 93.047448,39.687 96.499997,45.667 L 114,35.57325 C 108.68838,26.37325 102.04375,19.75988 92.843747,14.44825 C 83.356248,8.9706394 72.962934,6.4991324 62.75,6.7294994 z" id="path3903"/></svg>