<?xml version="1.0" encoding="UTF-8" standalone="no"?>
<!-- Created with Inkscape (http://www.inkscape.org/) -->
<svg
   xmlns:dc="http://purl.org/dc/elements/1.1/"
   xmlns:cc="http://creativecommons.org/ns#"
   xmlns:rdf="http://www.w3.org/1999/02/22-rdf-syntax-ns#"
   xmlns:svg="http://www.w3.org/2000/svg"
   xmlns="http://www.w3.org/2000/svg"
   xmlns:xlink="http://www.w3.org/1999/xlink"
   xmlns:sodipodi="http://sodipodi.sourceforge.net/DTD/sodipodi-0.dtd"
   xmlns:inkscape="http://www.inkscape.org/namespaces/inkscape"
   version="1.0"
   width="133"
   height="133"
   id="svg2670"
   xml:space="preserve"
   sodipodi:version="0.32"
   inkscape:version="0.46"
   sodipodi:docname="transparent_border.svg"
   inkscape:output_extension="org.inkscape.output.svg.inkscape"><metadata
     id="metadata2660"><rdf:RDF><cc:Work
         rdf:about=""><dc:format>image/svg+xml</dc:format><dc:type
           rdf:resource="http://purl.org/dc/dcmitype/StillImage" /></cc:Work></rdf:RDF></metadata><sodipodi:namedview
     inkscape:window-height="726"
     inkscape:window-width="645"
     inkscape:pageshadow="2"
     inkscape:pageopacity="0.0"
     guidetolerance="10.0"
     gridtolerance="10.0"
     objecttolerance="10.0"
     borderopacity="1.0"
     bordercolor="#666666"
     pagecolor="#ffffff"
     id="base"
     showgrid="false"
     inkscape:zoom="3.7142857"
     inkscape:cx="66.5"
     inkscape:cy="66.5"
     inkscape:window-x="424"
     inkscape:window-y="170"
     inkscape:current-layer="svg2670" /><defs
     id="defs2673"><linearGradient
       id="linearGradient3247"><stop
         id="stop3249"
         offset="0"
         style="stop-color:#00ff00;stop-opacity:0.627451;" /><stop
         style="stop-color:#ffff00;stop-opacity:0.627451;"
         offset="0.5"
         id="stop3253" /><stop
         id="stop3251"
         offset="1"
         style="stop-color:#ff0000;stop-opacity:0.627451;" /></linearGradient><linearGradient
       inkscape:collect="always"
       xlink:href="#linearGradient3247"
       id="linearGradient3914"
       x1="15.8125"
       y1="106.6489"
       x2="115.8125"
       y2="106.6489"
       gradientUnits="userSpaceOnUse"
       gradientTransform="translate(0.6875021,-75.958)" /><filter
       id="filter3391"><feGaussianBlur
         inkscape:collect="always"
         stdDeviation="1.005"
         id="feGaussianBlur3393" /></filter></defs><path
     d="M 65.048587,-3.5325152 C 28.064587,-3.5325152 -1.9514129,26.483484 -1.9514129,63.467485 C -1.9514129,100.45148 28.064587,130.46748 65.048587,130.46748 C 102.03258,130.46748 132.04858,100.45148 132.04858,63.467485 C 132.04858,26.483485 102.03258,-3.5325152 65.048587,-3.5325152 z M 65.048587,-0.53251472 C 100.37658,-0.53251472 129.04858,28.139486 129.04858,63.467485 C 129.04858,98.79548 100.37658,127.46748 65.048587,127.46748 C 29.720587,127.46748 1.0485871,98.79548 1.0485871,63.467485 C 1.0485871,28.139485 29.720587,-0.53251472 65.048587,-0.53251472 z"
     transform="matrix(0.9925374,0,0,0.9925373,1.936848,3.5061564)"
     id="path3180"
     style="opacity:1;fill:#ffffff;fill-opacity:1;fill-rule:nonzero;filter:url(#filter3391)" /><path
     style="opacity:1;fill:url(#linearGradient3914);fill-opacity:1;fill-rule:nonzero;stroke:none;stroke-width:1;stroke-linecap:round;stroke-linejoin:round;stroke-miterlimit:4;stroke-dasharray:none;stroke-opacity:1"
     d="M 65.250001,11.229499 C 45.752582,11.66929 26.957259,21.96075 16.500002,40.07325 L 34.000001,50.167 C 44.357665,32.227 67.310002,26.09059 85.249998,36.44825 C 91.229999,39.9008 95.547449,44.187 98.999998,50.167 L 116.5,40.07325 C 111.18838,30.87325 104.54375,24.25988 95.343748,18.94825 C 85.856249,13.470639 75.462935,10.999132 65.250001,11.229499 z"
     id="path3903" /></svg>