<?xml version="1.0" encoding="UTF-8" standalone="no"?>
<!-- Created with Inkscape (http://www.inkscape.org/) -->
<svg
   xmlns:ns="http://creativecommons.org/ns#"
   xmlns:dc="http://purl.org/dc/elements/1.1/"
   xmlns:cc="http://web.resource.org/cc/"
   xmlns:rdf="http://www.w3.org/1999/02/22-rdf-syntax-ns#"
   xmlns:svg="http://www.w3.org/2000/svg"
   xmlns="http://www.w3.org/2000/svg"
   xmlns:xlink="http://www.w3.org/1999/xlink"
   xmlns:sodipodi="http://sodipodi.sourceforge.net/DTD/sodipodi-0.dtd"
   xmlns:inkscape="http://www.inkscape.org/namespaces/inkscape"
   width="48px"
   height="48px"
   id="svg2332"
   sodipodi:version="0.32"
   inkscape:version="0.45.1"
   sodipodi:docname="unread.svg"
   inkscape:output_extension="org.inkscape.output.svg.inkscape"
   inkscape:export-filename="/home/owner/Pictures/icons/checkgmail/checkgmail.png"
   inkscape:export-xdpi="90"
   inkscape:export-ydpi="90"
   sodipodi:docbase="/home/rob/.config/awn/applets/gmail/Themes/Tango">
  <defs
     id="defs2334">
    <linearGradient
       id="linearGradient2786"
       inkscape:collect="always">
      <stop
         id="stop2788"
         offset="0"
         style="stop-color:#fce94f;stop-opacity:1;" />
      <stop
         id="stop2790"
         offset="1"
         style="stop-color:#fce94f;stop-opacity:0;" />
    </linearGradient>
    <radialGradient
       inkscape:collect="always"
       xlink:href="#linearGradient2786"
       id="radialGradient6588"
       gradientUnits="userSpaceOnUse"
       gradientTransform="matrix(0.8014702,0,0,0.7543249,17.338235,17.228374)"
       cx="25"
       cy="22"
       fx="25"
       fy="22"
       r="17" />
    <linearGradient
       id="linearGradient1886">
      <stop
         id="stop1888"
         offset="0"
         style="stop-color:#fce94f;stop-opacity:1;" />
      <stop
         id="stop1890"
         offset="1"
         style="stop-color:white;stop-opacity:1" />
    </linearGradient>
    <linearGradient
       gradientUnits="userSpaceOnUse"
       y2="-23.197165"
       x2="-4.173214"
       y1="16.574726"
       x1="20.374401"
       id="linearGradient1892"
       xlink:href="#linearGradient1886"
       inkscape:collect="always" />
    <linearGradient
       id="linearGradient2760">
      <stop
         id="stop2762"
         offset="0"
         style="stop-color:white;stop-opacity:1;" />
      <stop
         style="stop-color:white;stop-opacity:1;"
         offset="0.36585367"
         id="stop1884" />
      <stop
         id="stop2764"
         offset="1"
         style="stop-color:#fce94f;stop-opacity:1;" />
    </linearGradient>
    <radialGradient
       gradientUnits="userSpaceOnUse"
       gradientTransform="matrix(1.928522,0,0,1.843022,-1.841365,2.4769)"
       r="15.17675"
       fy="1.09216"
       fx="4.8321624"
       cy="1.09216"
       cx="4.8321624"
       id="radialGradient2766"
       xlink:href="#linearGradient2760"
       inkscape:collect="always" />
    <linearGradient
       id="linearGradient3480">
      <stop
         style="stop-color:#919191;stop-opacity:0.52941179;"
         offset="0"
         id="stop3482" />
      <stop
         style="stop-color:#ffffff;stop-opacity:0;"
         offset="1"
         id="stop3484" />
    </linearGradient>
    <linearGradient
       id="linearGradient3472">
      <stop
         style="stop-color:#808080;stop-opacity:0.68627453;"
         offset="0"
         id="stop3474" />
      <stop
         style="stop-color:#ffffff;stop-opacity:0;"
         offset="1"
         id="stop3476" />
    </linearGradient>
    <linearGradient
       id="linearGradient3432">
      <stop
         id="stop3434"
         offset="0"
         style="stop-color:#000000;stop-opacity:0.19607843;" />
      <stop
         style="stop-color:#000000;stop-opacity:0.09803922;"
         offset="0.6517815"
         id="stop3436" />
      <stop
         id="stop3438"
         offset="1"
         style="stop-color:#000000;stop-opacity:0;" />
    </linearGradient>
    <linearGradient
       id="linearGradient3303">
      <stop
         style="stop-color:#000000;stop-opacity:0.19607843;"
         offset="0"
         id="stop3305" />
      <stop
         id="stop3311"
         offset="0.56016898"
         style="stop-color:#000000;stop-opacity:0.09803922;" />
      <stop
         style="stop-color:#000000;stop-opacity:0;"
         offset="1"
         id="stop3307" />
    </linearGradient>
    <linearGradient
       id="linearGradient3257">
      <stop
         style="stop-color:#000000;stop-opacity:0.52549022;"
         offset="0"
         id="stop3259" />
      <stop
         style="stop-color:#000000;stop-opacity:0;"
         offset="1"
         id="stop3261" />
    </linearGradient>
    <linearGradient
       id="linearGradient3171">
      <stop
         id="stop3173"
         offset="0"
         style="stop-color:#e0867d;stop-opacity:0.58823532;" />
      <stop
         style="stop-color:#d3584c;stop-opacity:0.58823532;"
         offset="0.33061773"
         id="stop3175" />
      <stop
         style="stop-color:#c31402;stop-opacity:0.58823532;"
         offset="0.5250811"
         id="stop3177" />
      <stop
         id="stop3179"
         offset="0.72312748"
         style="stop-color:#ba1201;stop-opacity:0.58823532;" />
      <stop
         id="stop3181"
         offset="1"
         style="stop-color:#b11000;stop-opacity:0.58823532;" />
    </linearGradient>
    <linearGradient
       id="linearGradient3135">
      <stop
         style="stop-color:#ffffff;stop-opacity:1;"
         offset="0"
         id="stop3137" />
      <stop
         id="stop3143"
         offset="0.65339679"
         style="stop-color:#f3f4f4;stop-opacity:1;" />
      <stop
         style="stop-color:#c9c8c8;stop-opacity:1;"
         offset="1"
         id="stop3139" />
    </linearGradient>
    <linearGradient
       id="linearGradient3052">
      <stop
         style="stop-color:#e0867d;stop-opacity:1;"
         offset="0"
         id="stop3054" />
      <stop
         id="stop3116"
         offset="0.33061773"
         style="stop-color:#d3584c;stop-opacity:1;" />
      <stop
         id="stop3062"
         offset="0.5250811"
         style="stop-color:#c31402;stop-opacity:1;" />
      <stop
         style="stop-color:#ba1201;stop-opacity:1;"
         offset="0.72312748"
         id="stop3118" />
      <stop
         style="stop-color:#b11000;stop-opacity:1;"
         offset="1"
         id="stop3056" />
    </linearGradient>
    <inkscape:perspective
       sodipodi:type="inkscape:persp3d"
       id="perspective2340"
       inkscape:vp_x="-50 : 600 : 1"
       inkscape:vp_y="0 : 1000 : 0"
       inkscape:vp_z="700 : 600 : 1"
       inkscape:persp3d-origin="300 : 400 : 1" />
    <inkscape:perspective
       inkscape:persp3d-origin="300 : 400 : 1"
       inkscape:vp_z="700 : 600 : 1"
       inkscape:vp_y="0 : 1000 : 0"
       inkscape:vp_x="-50 : 600 : 1"
       id="perspective2440"
       sodipodi:type="inkscape:persp3d" />
    <linearGradient
       inkscape:collect="always"
       xlink:href="#linearGradient3171"
       id="linearGradient3169"
       x1="4.9375"
       y1="6"
       x2="41.125484"
       y2="42.187984"
       gradientUnits="userSpaceOnUse"
       gradientTransform="translate(1.0000005,0)" />
    <linearGradient
       inkscape:collect="always"
       xlink:href="#linearGradient3052"
       id="linearGradient3223"
       gradientUnits="userSpaceOnUse"
       x1="0.99609357"
       y1="8.0039062"
       x2="37.999214"
       y2="45.007027"
       gradientTransform="translate(1.0000005,0)" />
    <radialGradient
       inkscape:collect="always"
       xlink:href="#linearGradient3432"
       id="radialGradient3464"
       cx="44.220032"
       cy="59.478352"
       fx="44.220032"
       fy="59.478352"
       r="23.980373"
       gradientTransform="matrix(-1.3842984,2.6061044e-3,-6.3632415e-4,-0.3379997,85.251566,57.275033)"
       gradientUnits="userSpaceOnUse" />
    <linearGradient
       inkscape:collect="always"
       xlink:href="#linearGradient3472"
       id="linearGradient3478"
       x1="24"
       y1="6.8125"
       x2="24"
       y2="13.005049"
       gradientUnits="userSpaceOnUse" />
    <linearGradient
       inkscape:collect="always"
       xlink:href="#linearGradient3480"
       id="linearGradient3486"
       x1="24"
       y1="39.0625"
       x2="24"
       y2="19.55814"
       gradientUnits="userSpaceOnUse" />
  </defs>
  <sodipodi:namedview
     id="base"
     pagecolor="#ffffff"
     bordercolor="#666666"
     borderopacity="1.0"
     inkscape:pageopacity="0.0"
     inkscape:pageshadow="2"
     inkscape:zoom="8"
     inkscape:cx="31.258102"
     inkscape:cy="31.37321"
     inkscape:current-layer="layer1"
     showgrid="true"
     inkscape:grid-bbox="true"
     inkscape:document-units="px"
     inkscape:window-width="1024"
     inkscape:window-height="748"
     inkscape:window-x="0"
     inkscape:window-y="20"
     showguides="true"
     inkscape:guide-bbox="true">
    <inkscape:grid
       type="xygrid"
       id="grid2464" />
  </sodipodi:namedview>
  <metadata
     id="metadata2337">
    <rdf:RDF>
      <ns:Work
         rdf:about="">
        <dc:format>image/svg+xml</dc:format>
        <dc:type
           rdf:resource="http://purl.org/dc/dcmitype/StillImage" />
      </ns:Work>
      <cc:Work
         rdf:about="">
        <dc:format>image/svg+xml</dc:format>
        <dc:type
           rdf:resource="http://purl.org/dc/dcmitype/StillImage" />
      </cc:Work>
    </rdf:RDF>
  </metadata>
  <g
     id="layer1"
     inkscape:label="Layer 1"
     inkscape:groupmode="layer">
    <rect
       style="opacity:1;fill:url(#radialGradient3464);fill-opacity:1;stroke:none;stroke-width:1.96074772000000008;stroke-linejoin:round;stroke-miterlimit:4;stroke-dasharray:none;stroke-opacity:0.01960784000000000"
       id="rect3280"
       width="46"
       height="12"
       x="1"
       y="32"
       ry="2.0013201"
       rx="2.0013201"
       inkscape:export-filename="/home/owner/Pictures/icons/checkgmail/checkgmail22.png"
       inkscape:export-xdpi="52.5"
       inkscape:export-ydpi="52.5" />
    <rect
       style="opacity:1;fill:#ffffff;fill-opacity:1;stroke:#a9372b;stroke-width:1;stroke-linejoin:round;stroke-miterlimit:4;stroke-dasharray:none;stroke-opacity:1"
       id="rect3133"
       width="47"
       height="33"
       x="0.5"
       y="6.5"
       inkscape:export-filename="/home/owner/Pictures/icons/checkgmail/checkgmail22.png"
       inkscape:export-xdpi="52.5"
       inkscape:export-ydpi="52.5" />
    <path
       inkscape:export-ydpi="52.5"
       inkscape:export-xdpi="52.5"
       inkscape:export-filename="/home/owner/Pictures/icons/checkgmail/checkgmail22.png"
       sodipodi:nodetypes="cccc"
       id="path3468"
       d="M 1,7 L 24,22 L 47,7 L 1,7 z"
       style="fill:url(#linearGradient3478);fill-rule:evenodd;stroke:#e48177;stroke-width:2;stroke-linecap:butt;stroke-linejoin:round;stroke-miterlimit:4;stroke-dasharray:none;stroke-opacity:0.82352941999999985;fill-opacity:1" />
    <path
       style="fill:url(#linearGradient3486);fill-rule:evenodd;stroke:#e48177;stroke-width:2;stroke-linecap:butt;stroke-linejoin:round;stroke-miterlimit:4;stroke-dasharray:none;stroke-opacity:0.82352941000000002;fill-opacity:1"
       d="M 24,22 L 1,39 L 47,39 L 24,22 L 24,22 z"
       id="path3470"
       sodipodi:nodetypes="ccccc"
       inkscape:export-filename="/home/owner/Pictures/icons/checkgmail/checkgmail22.png"
       inkscape:export-xdpi="52.5"
       inkscape:export-ydpi="52.5" />
    <path
       inkscape:export-ydpi="52.5"
       inkscape:export-xdpi="52.5"
       inkscape:export-filename="/home/owner/Pictures/icons/checkgmail/checkgmail22.png"
       sodipodi:nodetypes="ccccccccccccc"
       id="path3440"
       d="M 1.0000005,39.000001 L 1.0000005,7 L 11,7 L 24,18 L 37,7 L 47,7 L 47,39.000001 L 41,39.000001 L 41,13 L 24,27 L 7.0000005,13 L 7.0000005,39.000001 L 1.0000005,39.000001 z"
       style="font-size:11.91941356999999968px;font-style:normal;font-weight:normal;fill:none;fill-opacity:1;stroke:#000000;stroke-width:2;stroke-linecap:butt;stroke-linejoin:round;stroke-miterlimit:4;stroke-dasharray:none;stroke-opacity:0.43137255;font-family:Bitstream Vera Sans" />
    <path
       style="font-size:11.91941357px;font-style:normal;font-weight:normal;fill:url(#linearGradient3223);fill-opacity:1;stroke:url(#linearGradient3169);stroke-width:2;stroke-linecap:butt;stroke-linejoin:round;stroke-miterlimit:4;stroke-dasharray:none;stroke-opacity:1;font-family:Bitstream Vera Sans"
       d="M 1.0000005,39.000001 L 1.0000005,7 L 11,7 L 24,18 L 37,7 L 47,7 L 47,39.000001 L 41,39.000001 L 41,13 L 24,27 L 7.0000005,13 L 7.0000005,39.000001 L 1.0000005,39.000001 z"
       id="text2466"
       sodipodi:nodetypes="ccccccccccccc"
       inkscape:export-filename="/home/owner/Pictures/icons/checkgmail/checkgmail22.png"
       inkscape:export-xdpi="52.5"
       inkscape:export-ydpi="52.5" />
    <rect
       style="fill:url(#radialGradient6588);fill-opacity:1;stroke:none;stroke-width:1.15199995;stroke-linecap:butt;stroke-linejoin:round;stroke-miterlimit:4;stroke-dasharray:none;stroke-dashoffset:0;stroke-opacity:1"
       id="rect2776"
       width="27.25"
       height="25.647057"
       x="23.75"
       y="21" />
    <path
       sodipodi:type="star"
       style="fill:url(#radialGradient2766);fill-opacity:1;stroke:url(#linearGradient1892);stroke-width:1.03510201;stroke-linecap:butt;stroke-linejoin:miter;stroke-miterlimit:4;stroke-dasharray:none;stroke-dashoffset:0;stroke-opacity:1"
       id="path1869"
       sodipodi:sides="5"
       sodipodi:cx="11"
       sodipodi:cy="8.125"
       sodipodi:r1="15.377032"
       sodipodi:r2="8.9001045"
       sodipodi:arg1="-1.5707963"
       sodipodi:arg2="-0.9424778"
       inkscape:flatsided="false"
       inkscape:rounded="0.18352206"
       inkscape:randomized="0"
       d="M 11,-7.2520323 C 12.781445,-7.2520323 14.790132,-0.12244253 16.23135,0.92466417 C 17.672569,1.9717709 25.07393,1.6789818 25.624427,3.3732361 C 26.174923,5.0674903 20.014999,9.1810294 19.464502,10.875284 C 18.914006,12.569538 21.479611,19.518174 20.038392,20.565281 C 18.597174,21.612387 12.781444,17.025105 11,17.025105 C 9.2185557,17.025104 3.4028256,21.612387 1.9616069,20.56528 C 0.52038819,19.518174 3.0859941,12.569538 2.5354976,10.875284 C 1.9850011,9.1810293 -4.1749232,5.0674896 -3.6244266,3.3732353 C -3.0739301,1.6789811 4.3274311,1.9717708 5.7686498,0.92466421 C 7.2098686,-0.12244246 9.2185561,-7.2520323 11,-7.2520323 z "
       transform="matrix(0.6899614,0,0,0.6805652,29.785429,28.316652)" />
    <path
       sodipodi:type="inkscape:offset"
       inkscape:radius="-0.99638325"
       inkscape:original="M 11 -7.25 C 9.2185557 -7.25 7.222469 -0.10960666 5.78125 0.9375 C 4.3400313 1.9846066 -3.0745035 1.6807459 -3.625 3.375 C -4.1754966 5.0692543 1.9807534 9.1807461 2.53125 10.875 C 3.0817465 12.569254 0.52753133 19.515393 1.96875 20.5625 C 3.4099688 21.609607 9.2185557 17.03125 11 17.03125 C 12.781444 17.03125 18.590031 21.609606 20.03125 20.5625 C 21.472469 19.515393 18.918253 12.569255 19.46875 10.875 C 20.019247 9.1807459 26.175496 5.0692541 25.625 3.375 C 25.074503 1.6807458 17.659969 1.9846068 16.21875 0.9375 C 14.777531 -0.1096067 12.781445 -7.25 11 -7.25 z "
       style="fill:none;fill-opacity:1;stroke:#ffffff;stroke-width:1.03528154;stroke-linecap:butt;stroke-linejoin:round;stroke-miterlimit:4;stroke-dasharray:none;stroke-dashoffset:0;stroke-opacity:1"
       id="path2758"
       d="M 11,-6.25 C 11.110128,-6.25 11.090676,-6.2930567 10.96875,-6.1875 C 10.846824,-6.0819433 10.669189,-5.8612077 10.46875,-5.5625 C 10.067872,-4.9650846 9.6008838,-4.0696228 9.15625,-3.125 C 8.7116162,-2.1803772 8.2808694,-1.1985024 7.84375,-0.34375 C 7.4066306,0.51100241 7.0824747,1.2359897 6.375,1.75 C 5.6674837,2.2640406 4.8860659,2.3480061 3.9375,2.5 C 2.9889341,2.6519939 1.9116453,2.7747563 0.875,2.90625 C -0.16164527,3.0377437 -1.1509478,3.1779516 -1.84375,3.375 C -2.1901511,3.4735242 -2.4554072,3.603992 -2.59375,3.6875 C -2.7320928,3.771008 -2.7216057,3.7924666 -2.6875,3.6875 C -2.6536835,3.5834235 -2.6875494,3.5698447 -2.625,3.71875 C -2.5624506,3.8676553 -2.4089156,4.1230519 -2.1875,4.40625 C -1.7446688,4.9726462 -1.0399965,5.6907025 -0.28125,6.40625 C 0.47749652,7.1217975 1.2927385,7.8508232 1.96875,8.53125 C 2.6447615,9.2116768 3.1990663,9.7324991 3.46875,10.5625 C 3.7381818,11.391726 3.6147508,12.145893 3.46875,13.09375 C 3.3227492,14.041607 3.0983111,15.131237 2.90625,16.15625 C 2.7141889,17.181263 2.5558059,18.156288 2.53125,18.875 C 2.518972,19.234356 2.5253881,19.530035 2.5625,19.6875 C 2.5996119,19.844965 2.6508597,19.814197 2.5625,19.75 C 2.4742422,19.685877 2.4641468,19.732132 2.625,19.71875 C 2.7858532,19.705368 3.06871,19.654049 3.40625,19.53125 C 4.0813299,19.285652 4.9605341,18.812233 5.875,18.3125 C 6.7894659,17.812767 7.7381087,17.275825 8.59375,16.84375 C 9.4493913,16.411675 10.127851,16.03125 11,16.03125 C 11.872149,16.03125 12.550609,16.411675 13.40625,16.84375 C 14.261891,17.275825 15.210534,17.812767 16.125,18.3125 C 17.039466,18.812233 17.91867,19.285652 18.59375,19.53125 C 18.93129,19.654049 19.214147,19.705368 19.375,19.71875 C 19.535853,19.732132 19.525758,19.685877 19.4375,19.75 C 19.34914,19.814197 19.400388,19.844965 19.4375,19.6875 C 19.474612,19.530035 19.481028,19.234356 19.46875,18.875 C 19.444194,18.156288 19.285811,17.181263 19.09375,16.15625 C 18.901689,15.131237 18.677251,14.041607 18.53125,13.09375 C 18.385249,12.145893 18.261818,11.391726 18.53125,10.5625 C 18.800934,9.7324993 19.355239,9.2116769 20.03125,8.53125 C 20.707261,7.8508231 21.522504,7.1217975 22.28125,6.40625 C 23.039996,5.6907025 23.744669,4.9726462 24.1875,4.40625 C 24.408916,4.1230519 24.562451,3.8676553 24.625,3.71875 C 24.687549,3.5698447 24.653684,3.5834234 24.6875,3.6875 C 24.721606,3.7924664 24.732093,3.771008 24.59375,3.6875 C 24.455407,3.603992 24.190151,3.4735242 23.84375,3.375 C 23.150948,3.1779516 22.161645,3.0377437 21.125,2.90625 C 20.088355,2.7747563 19.011066,2.6519939 18.0625,2.5 C 17.113934,2.3480061 16.332516,2.2640406 15.625,1.75 C 14.917525,1.2359897 14.593369,0.51100241 14.15625,-0.34375 C 13.719131,-1.1985024 13.288384,-2.1803772 12.84375,-3.125 C 12.399116,-4.0696228 11.932128,-4.9650847 11.53125,-5.5625 C 11.330811,-5.8612077 11.153176,-6.0819433 11.03125,-6.1875 C 10.909324,-6.2930567 10.889872,-6.25 11,-6.25 z "
       transform="matrix(0.6899614,0,0,0.6805652,29.785429,28.316652)" />
  </g>
</svg>
