<?xml version="1.0" encoding="UTF-8" standalone="no"?>
<!-- Created with Inkscape (http://www.inkscape.org/) -->
<svg
   xmlns:svg="http://www.w3.org/2000/svg"
   xmlns="http://www.w3.org/2000/svg"
   version="1.0"
   width="293.33234"
   height="393.30801"
   id="svg2">
  <defs
     id="defs4" />
  <g
     transform="translate(-179.07881,-298.51419)"
     id="layer1">
    <path
       d="M 322.07643,376.01682 C 323.57643,345.51682 361.07643,301.01682 367.57643,300.51682 C 374.07643,300.01682 353.57643,371.01682 348.07643,376.01682 C 342.57643,381.01682 322.57643,377.51682 322.07643,376.01682 z"
       id="path3205"
       style="fill:#784421;fill-opacity:1;fill-rule:evenodd;stroke:#000000;stroke-width:4;stroke-linecap:butt;stroke-linejoin:round;stroke-miterlimit:4;stroke-dasharray:none;stroke-opacity:1" />
    <path
       d="M 188.5,2 C 187.98422,2.0396752 187.24769,2.3727113 186.375,2.9375 C 185.42127,16.107603 163.46793,69.20271 158.21875,73.0625 C 155.25715,75.24021 148.97046,75.003382 143.34375,74 C 143.18972,75.180374 143.05626,76.35596 143,77.5 C 143.5,79 163.5,82.499998 169,77.5 C 174.5,72.5 195,1.5 188.5,2 z"
       transform="translate(179.07881,298.51419)"
       id="path3257"
       style="fill:#000000;fill-opacity:0.31372549;fill-rule:evenodd;stroke:none;stroke-width:4;stroke-linecap:butt;stroke-linejoin:round;stroke-miterlimit:4;stroke-dasharray:none;stroke-opacity:1" />
    <path
       d="M 403.52333,522.30505 A 67.988327,67.988327 0 1 1 267.54668,522.30505 A 67.988327,67.988327 0 1 1 403.52333,522.30505 z"
       transform="matrix(1.8148148,0,0,1.8148148,-283.47124,-459.57607)"
       id="path2383"
       style="opacity:1;fill:#a05a2c;fill-opacity:1;fill-rule:nonzero;stroke:#000000;stroke-width:2.20408154;stroke-linecap:round;stroke-linejoin:round;stroke-miterlimit:4;stroke-dasharray:none;stroke-opacity:1" />
    <path
       d="M 403.52333,522.30505 A 67.988327,67.988327 0 1 1 267.54668,522.30505 A 67.988327,67.988327 0 1 1 403.52333,522.30505 z"
       transform="matrix(1.4029794,0,0,1.4029794,-140.28605,-263.97236)"
       id="path3276"
       style="opacity:1;fill:#000000;fill-opacity:0.31372549;fill-rule:nonzero;stroke:none;stroke-width:2.85107517;stroke-linecap:round;stroke-linejoin:round;stroke-miterlimit:4;stroke-dasharray:none;stroke-opacity:1" />
    <path
       d="M 434.03125,429.6875 C 437.23317,440.66219 438.9375,452.27692 438.9375,464.28125 C 438.93751,532.39043 383.67169,587.65625 315.5625,587.65625 C 268.73742,587.65625 227.96465,561.52406 207.0625,523.0625 C 222.08563,574.26281 269.42956,611.68751 325.46875,611.6875 C 393.57794,611.6875 448.84375,556.42168 448.84375,488.3125 C 448.84375,467.10258 443.47058,447.12677 434.03125,429.6875 z"
       id="path3339"
       style="opacity:1;fill:#000000;fill-opacity:0.31372549;fill-rule:nonzero;stroke:none;stroke-width:3.99999976;stroke-linecap:round;stroke-linejoin:round;stroke-miterlimit:4;stroke-dasharray:none;stroke-opacity:1" />
    <path
       d="M 409.50378,608.23916 C 409.50378,629.7839 392.01819,629.01338 370.47344,629.01338 C 348.9287,629.01338 331.44311,629.7839 331.44311,608.23916 C 331.44311,586.69441 348.9287,569.20882 370.47344,569.20882 C 392.01819,569.20882 409.50378,586.69441 409.50378,608.23916 z"
       id="path3235"
       style="fill:#a05a2c;fill-opacity:1;fill-rule:nonzero;stroke:#000000;stroke-width:4;stroke-linecap:round;stroke-linejoin:round;stroke-miterlimit:4;stroke-opacity:1" />
    <path
       d="M 319.4822,608.23915 C 319.4822,629.7839 301.99661,629.01337 280.45186,629.01337 C 268.47196,629.01337 257.7471,629.25161 250.58561,625.75909 C 244.86782,622.97064 241.42152,617.804 241.42152,608.23915 C 241.42152,586.69441 258.90711,569.20882 280.45186,569.20882 C 301.99661,569.20882 319.4822,586.69441 319.4822,608.23915 z"
       id="path3238"
       style="fill:#a05a2c;fill-opacity:1;fill-rule:nonzero;stroke:#000000;stroke-width:4;stroke-linecap:round;stroke-linejoin:round;stroke-miterlimit:4;stroke-opacity:1" />
    <g
       transform="matrix(-1,0,0,1,652.15145,-2.8284272)"
       id="g3263">
      <path
         d="M 357.34172,628.69417 C 353.83912,617.36278 357.8421,604.14283 357.8421,604.14283"
         id="path3265"
         style="fill:none;fill-opacity:0.75;fill-rule:evenodd;stroke:#000000;stroke-width:4;stroke-linecap:round;stroke-linejoin:miter;stroke-miterlimit:4;stroke-dasharray:none;stroke-opacity:1" />
      <path
         d="M 375.36715,631.21226 C 379.66018,612.95613 374.75386,598.47714 374.75386,598.47714"
         id="path3267"
         style="fill:none;fill-opacity:0.75;fill-rule:evenodd;stroke:#000000;stroke-width:4;stroke-linecap:round;stroke-linejoin:miter;stroke-miterlimit:4;stroke-dasharray:none;stroke-opacity:1" />
      <path
         d="M 393.62142,629.3237 C 402.43473,615.47422 394.88047,604.14283 394.88047,604.14283"
         id="path3269"
         style="fill:none;fill-opacity:0.75;fill-rule:evenodd;stroke:#000000;stroke-width:4;stroke-linecap:round;stroke-linejoin:miter;stroke-miterlimit:4;stroke-dasharray:none;stroke-opacity:1" />
    </g>
    <path
       d="M 403.52333,522.30505 A 67.988327,67.988327 0 1 1 267.54668,522.30505 A 67.988327,67.988327 0 1 1 403.52333,522.30505 z"
       transform="matrix(1.4029794,0,0,1.4029794,-145.28605,-277.47236)"
       id="path2418"
       style="opacity:1;fill:#a05a2c;fill-opacity:1;fill-rule:nonzero;stroke:#000000;stroke-width:2.85107517;stroke-linecap:round;stroke-linejoin:round;stroke-miterlimit:4;stroke-dasharray:none;stroke-opacity:1" />
    <path
       d="M 233.4375,117.75 C 234.96317,124.5192 235.78125,131.55329 235.78125,138.78125 C 235.78125,191.43445 193.02819,234.1875 140.375,234.1875 C 101.59879,234.1875 68.222392,210.99681 53.3125,177.75 C 62.867558,220.33704 100.91786,252.1875 146.375,252.1875 C 199.02819,252.1875 241.78125,209.43445 241.78125,156.78125 C 241.78125,142.86941 238.79868,129.67154 233.4375,117.75 z"
       transform="translate(179.07881,298.51419)"
       id="path3251"
       style="opacity:1;fill:#000000;fill-opacity:0.31372549;fill-rule:nonzero;stroke:none;stroke-width:3.99999976;stroke-linecap:round;stroke-linejoin:round;stroke-miterlimit:4;stroke-dasharray:none;stroke-opacity:1" />
    <path
       d="M 403.52333,522.30505 A 67.988327,67.988327 0 1 1 267.54668,522.30505 A 67.988327,67.988327 0 1 1 403.52333,522.30505 z"
       transform="matrix(0.4027778,0,0,0.4027778,158.80808,226.92723)"
       id="path2387"
       style="fill:#ffffff;fill-opacity:1;fill-rule:nonzero;stroke:#000000;stroke-width:9.93103504;stroke-linecap:round;stroke-linejoin:round;stroke-miterlimit:4;stroke-dasharray:none;stroke-opacity:1" />
    <path
       d="M 403.52333,522.30505 A 67.988327,67.988327 0 1 1 267.54668,522.30505 A 67.988327,67.988327 0 1 1 403.52333,522.30505 z"
       transform="matrix(0.4027778,0,0,0.4027778,222.38976,226.92723)"
       id="path2391"
       style="fill:#ffffff;fill-opacity:1;fill-rule:nonzero;stroke:#000000;stroke-width:9.93103504;stroke-linecap:round;stroke-linejoin:round;stroke-miterlimit:4;stroke-dasharray:none;stroke-opacity:1" />
    <path
       d="M 403.52333,522.30505 A 67.988327,67.988327 0 1 1 267.54668,522.30505 A 67.988327,67.988327 0 1 1 403.52333,522.30505 z"
       transform="matrix(0.125,0,0,0.125,260.19603,375.15958)"
       id="path2393"
       style="fill:#000000;fill-opacity:1;fill-rule:nonzero;stroke:none;stroke-width:32;stroke-linecap:round;stroke-linejoin:round;stroke-miterlimit:4;stroke-dasharray:none;stroke-opacity:1" />
    <path
       d="M 403.52333,522.30505 A 67.988327,67.988327 0 1 1 267.54668,522.30505 A 67.988327,67.988327 0 1 1 403.52333,522.30505 z"
       transform="matrix(0.125,0,0,0.125,306.78063,375.15958)"
       id="path2395"
       style="fill:#000000;fill-opacity:1;fill-rule:nonzero;stroke:none;stroke-width:32;stroke-linecap:round;stroke-linejoin:round;stroke-miterlimit:4;stroke-dasharray:none;stroke-opacity:1" />
    <path
       d="M 350.81167,501.74715 C 350.81167,515.52271 335.72537,526.70288 325.74498,526.70288 C 314.99329,526.70288 300.67829,515.52271 300.67829,501.74715 C 300.67829,487.9716 311.90816,484.47012 325.74498,484.47012 C 339.58179,484.47012 350.81167,487.9716 350.81167,501.74715 z"
       id="path2397"
       style="fill:#000000;fill-opacity:1;fill-rule:nonzero;stroke:none;stroke-width:4;stroke-linecap:round;stroke-linejoin:round;stroke-miterlimit:4;stroke-opacity:1" />
    <path
       d="M 390.96875,575.03125 C 395.6916,581.51123 398.5,589.49859 398.5,598.125 C 398.50001,610.5914 392.66485,621.68357 383.59375,628.875 C 398.675,628.30243 409.5,625.18125 409.5,608.25 C 409.5,594.21825 402.09338,581.91032 390.96875,575.03125 z"
       id="path3327"
       style="fill:#000000;fill-opacity:0.31372549;fill-rule:nonzero;stroke:none;stroke-width:4;stroke-linecap:round;stroke-linejoin:round;stroke-miterlimit:4;stroke-opacity:1" />
    <g
       transform="translate(-0.1472799,-2.8284272)"
       id="g2410">
      <path
         d="M 357.34172,628.69417 C 353.83912,617.36278 357.8421,604.14283 357.8421,604.14283"
         id="path2412"
         style="fill:none;fill-opacity:0.75;fill-rule:evenodd;stroke:#000000;stroke-width:4;stroke-linecap:round;stroke-linejoin:miter;stroke-miterlimit:4;stroke-dasharray:none;stroke-opacity:1" />
      <path
         d="M 375.36715,631.21226 C 379.66018,612.95613 374.75386,598.47714 374.75386,598.47714"
         id="path2414"
         style="fill:none;fill-opacity:0.75;fill-rule:evenodd;stroke:#000000;stroke-width:4;stroke-linecap:round;stroke-linejoin:miter;stroke-miterlimit:4;stroke-dasharray:none;stroke-opacity:1" />
      <path
         d="M 393.62142,629.3237 C 402.43473,615.47422 394.88047,604.14283 394.88047,604.14283"
         id="path2416"
         style="fill:none;fill-opacity:0.75;fill-rule:evenodd;stroke:#000000;stroke-width:4;stroke-linecap:round;stroke-linejoin:miter;stroke-miterlimit:4;stroke-dasharray:none;stroke-opacity:1" />
    </g>
    <path
       d="M 300.46875,575.03125 C 305.1916,581.51123 308,589.49859 308,598.125 C 308.00001,610.5914 302.16485,621.68357 293.09375,628.875 C 308.175,628.30243 319,625.18125 319,608.25 C 319,594.21825 311.59338,581.91032 300.46875,575.03125 z"
       id="path3332"
       style="fill:#000000;fill-opacity:0.31372549;fill-rule:nonzero;stroke:none;stroke-width:4;stroke-linecap:round;stroke-linejoin:round;stroke-miterlimit:4;stroke-opacity:1" />
    <path
       d="M 336.65625,588.75 C 333.34371,594.48475 331.4375,601.1556 331.4375,608.25 C 331.4375,625.7551 342.99019,628.51284 358.875,628.9375 C 343.09521,622.35947 335.07035,606.72994 336.65625,588.75 z"
       id="path3349"
       style="fill:#000000;fill-opacity:0.31372549;fill-rule:nonzero;stroke:none;stroke-width:4;stroke-linecap:round;stroke-linejoin:round;stroke-miterlimit:4;stroke-opacity:1" />
    <path
       d="M 258.28779,386.51682 C 203.36771,382.64273 174.75835,448.81834 182.25835,468.31834 C 188.35571,484.17148 222.0462,500.16135 220.68728,485.62164 C 216.27738,438.43787 275.4209,387.7254 258.28779,386.51682 z"
       id="path3201"
       style="fill:#784421;fill-opacity:1;fill-rule:evenodd;stroke:#000000;stroke-width:4;stroke-linecap:butt;stroke-linejoin:round;stroke-miterlimit:4;stroke-dasharray:none;stroke-opacity:1" />
    <path
       d="M 393.20216,386.51682 C 448.12224,382.64273 476.7316,448.81834 469.2316,468.31834 C 463.13424,484.17148 429.44375,500.16135 430.80267,485.62164 C 435.21257,438.43787 376.06905,387.7254 393.20216,386.51682 z"
       id="path3203"
       style="fill:#784421;fill-opacity:1;fill-rule:evenodd;stroke:#000000;stroke-width:4;stroke-linecap:butt;stroke-linejoin:round;stroke-miterlimit:4;stroke-dasharray:none;stroke-opacity:1" />
    <path
       d="M 219.1875,87.84375 C 270.08639,98.13859 283.84734,165.24994 272.9375,182.375 C 270.51944,186.17061 266.18228,189.56423 261.21875,192.28125 C 271.30344,189.95009 286.28623,179.87454 290.15625,169.8125 C 297.42188,150.92188 270.78902,88.221586 219.1875,87.84375 z"
       transform="translate(179.07881,298.51419)"
       id="path3262"
       style="fill:#000000;fill-opacity:0.31372549;fill-rule:evenodd;stroke:none;stroke-width:4;stroke-linecap:butt;stroke-linejoin:round;stroke-miterlimit:4;stroke-dasharray:none;stroke-opacity:1" />
    <path
       d="M 290.78966,670.82853 L 363.55711,655.06837 C 363.55711,655.06837 375.9812,675.02187 390.37707,663.65266 C 404.77294,652.28344 384.6363,640.99115 384.6363,640.99115 C 384.6363,640.99115 404.85352,629.95648 384.9806,620.0536 C 365.10767,610.15072 358.47564,635.88039 358.47564,635.88039 L 287.95956,648.3343 C 287.95956,648.3343 269.61767,623.74619 256.14482,639.97833 C 242.67197,656.21047 261.15549,666.37707 261.15549,666.37707 C 261.15549,666.37707 246.32864,679.26754 265.24313,687.91288 C 284.15763,696.5582 289.79584,673.17636 290.78966,670.82853 z"
       id="path3288"
       style="fill:#e3dbdb;fill-opacity:1;fill-rule:evenodd;stroke:#000000;stroke-width:4;stroke-linecap:butt;stroke-linejoin:round;stroke-miterlimit:4;stroke-dasharray:none;stroke-opacity:1" />
    <path
       d="M 277.35528,638.23068 C 279.33292,640.11609 281.19182,642.04737 283.00167,643.67958 C 283.23759,643.638 283.47189,643.58713 283.70781,643.54555 C 281.96784,641.80544 279.8093,639.87589 277.35528,638.23068 z M 386.28485,620.73588 C 386.61823,621.19677 386.92043,621.69257 387.19609,622.18513 C 389.21089,628.20529 380.80164,633.13897 377.68859,636.48836 C 378.81585,638.69814 381.58182,640.16371 383.8056,642.0706 C 385.71976,640.96564 402.8755,629.8933 386.28485,620.73588 z M 252.26011,656.67133 C 253.16948,658.90055 254.56685,660.7953 255.99872,662.29149 C 257.89961,660.03309 254.42636,658.48876 252.26011,656.67133 z M 386.39968,642.12083 C 386.84125,642.63391 387.22057,643.20813 387.51687,643.81725 C 393.55128,651.52535 383.54068,660.99597 375.64054,660.51227 C 367.88494,660.34324 364.79988,652.84815 359.91788,648.1333 C 335.6591,653.38455 309.66356,658.96544 285.40478,664.21669 C 282.9279,668.26797 282.06072,673.5472 278.75532,677.27955 C 273.80511,685.11851 262.82484,684.3087 256.20284,678.95191 C 256.07115,678.88108 255.96334,678.77883 255.83755,678.70317 C 256.51418,681.83055 259.08607,685.10286 265.25299,687.9216 C 284.16748,696.56692 289.80078,673.1754 290.7946,670.82757 L 365.3077,654.74418 C 365.30769,654.74419 375.99672,675.02952 390.3926,663.66031 C 402.08924,654.42281 390.97346,645.24108 386.39968,642.12083 z"
       id="path3300"
       style="fill:#000000;fill-opacity:0.31372549;fill-rule:evenodd;stroke:none;stroke-width:4;stroke-linecap:butt;stroke-linejoin:round;stroke-miterlimit:4;stroke-dasharray:none;stroke-opacity:1" />
  </g>
</svg>
