<?xml version="1.0" encoding="UTF-8" standalone="no"?>
<!-- Created with Inkscape (http://www.inkscape.org/) -->
<svg
   xmlns:svg="http://www.w3.org/2000/svg"
   xmlns="http://www.w3.org/2000/svg"
   version="1.0"
   width="300.72748"
   height="363.38385"
   id="svg2">
  <defs
     id="defs4" />
  <g
     transform="translate(-188.23144,-327.31447)"
     id="layer1">
    <path
       d="M 305.13872,553.93381 C 305.13872,553.93381 92.502428,384.16368 245.74175,335.43782 C 399.18393,286.64745 339.07985,545.44853 339.07985,545.44853 L 305.13872,553.93381 z"
       id="path3223"
       style="fill:#502d16;fill-opacity:1;fill-rule:evenodd;stroke:#000000;stroke-width:4;stroke-linecap:butt;stroke-linejoin:round;stroke-miterlimit:4;stroke-dasharray:none;stroke-opacity:1" />
    <path
       d="M 513.68958,561.9649 A 121.49766,121.49766 0 1 1 270.69427,561.9649 A 121.49766,121.49766 0 1 1 513.68958,561.9649 z"
       transform="translate(-26.730683,0)"
       id="path2385"
       style="fill:#784421;fill-opacity:1;fill-rule:nonzero;stroke:#000000;stroke-width:4;stroke-linecap:round;stroke-linejoin:round;stroke-miterlimit:4;stroke-dasharray:none;stroke-opacity:1" />
    <path
       d="M 177.21875,113.15625 C 152.71362,113.15625 129.90493,120.41135 110.8125,132.90625 C 119.35172,162.99367 146.76212,185.14974 179.4375,185.71875 C 180.51779,187.57029 181.54699,189.0393 182.1875,189.5 C 184.20129,190.94847 195.04751,191.50501 197.0625,189.84375 C 198.05001,189.0296 199.84902,186.12634 201.3125,182.8125 C 223.78869,176.17493 241.74451,158.92919 249.40625,136.90625 C 229.22035,121.96705 204.24123,113.15625 177.21875,113.15625 z"
       transform="translate(188.23144,327.31447)"
       id="path3302"
       style="fill:#000000;fill-opacity:0.31372549;fill-rule:nonzero;stroke:none;stroke-width:4.00000048;stroke-linecap:round;stroke-linejoin:round;stroke-miterlimit:4;stroke-dasharray:none;stroke-opacity:1" />
    <path
       d="M 440.03557,422.84064 A 49.10268,49.10268 0 1 1 341.83021,422.84064 A 49.10268,49.10268 0 1 1 440.03557,422.84064 z"
       transform="matrix(0.4679487,-6.2367319e-8,6.2367319e-8,0.4679487,153.19319,346.49342)"
       id="path3242"
       style="fill:#000000;fill-opacity:0.31372549;fill-rule:nonzero;stroke:none;stroke-width:8.54794598;stroke-linecap:round;stroke-linejoin:round;stroke-miterlimit:4;stroke-dasharray:none;stroke-opacity:1" />
    <path
       d="M 365.45682,440.46875 C 352.53137,440.46875 340.08192,442.50573 328.39432,446.25 C 338.90819,443.79455 349.99648,442.46875 361.45682,442.46875 C 392.89434,442.46875 421.5644,452.34684 443.14432,468.5625 C 422.08038,451.02119 394.99048,440.46875 365.45682,440.46875 z M 480.51932,522.84375 C 482.11362,529.3319 482.95682,536.03096 482.95682,542.90625 C 482.95683,598.34985 428.52353,643.34375 361.45682,643.34375 C 305.37278,643.34377 258.14595,611.88479 244.17557,569.15625 C 247.89968,632.88086 300.80341,683.46873 365.45682,683.46875 C 432.52353,683.46875 486.95683,629.03546 486.95682,561.96875 C 486.95682,548.2862 484.69544,535.11956 480.51932,522.84375 z"
       id="path3276"
       style="fill:#000000;fill-opacity:0.31372549;fill-rule:nonzero;stroke:none;stroke-width:4;stroke-linecap:round;stroke-linejoin:round;stroke-miterlimit:4;stroke-dasharray:none;stroke-opacity:1" />
    <path
       d="M 97.5625,21.875 C 86.50713,21.875 77.531247,30.850879 77.53125,41.90625 C 77.53125,49.060838 81.289232,55.332464 86.9375,58.875 C 80.966425,69.429182 77.531251,81.610047 77.53125,94.59375 C 77.53125,134.72818 110.08432,167.3125 150.21875,167.3125 C 190.35318,167.3125 222.93751,134.72818 222.9375,94.59375 C 222.9375,81.610047 219.50232,69.429182 213.53125,58.875 C 219.16693,55.329891 222.9375,49.051283 222.9375,41.90625 C 222.9375,30.85088 213.96161,21.875 202.90625,21.875 C 195.76122,21.875 189.51386,25.645571 185.96875,31.28125 C 175.40913,25.301886 163.21215,21.875 150.21875,21.875 C 137.22881,21.875 125.05768,25.304847 114.5,31.28125 C 110.95489,25.645571 104.70753,21.875 97.5625,21.875 z"
       transform="translate(215.23291,337.26301)"
       id="path2479"
       style="fill:#784421;fill-opacity:1;fill-rule:nonzero;stroke:#000000;stroke-width:4.00000048;stroke-linecap:round;stroke-linejoin:round;stroke-miterlimit:4;stroke-dasharray:none;stroke-opacity:1" />
    <path
       d="M 424.33182,614.21875 C 393.92593,614.21875 369.23807,638.90661 369.23807,669.3125 C 369.23807,675.59911 370.29573,681.62064 372.23807,687.25 L 476.39432,687.25 C 478.33666,681.62065 479.39432,675.59911 479.39432,669.3125 C 479.39432,638.90661 454.73771,614.21874 424.33182,614.21875 z"
       id="path3163"
       style="fill:#784421;fill-opacity:1;fill-rule:nonzero;stroke:#000000;stroke-width:4;stroke-linecap:round;stroke-linejoin:round;stroke-miterlimit:4;stroke-dasharray:none;stroke-opacity:1" />
    <path
       d="M 314.14432,614.21875 C 283.73843,614.21875 259.08183,638.90661 259.08182,669.3125 C 259.08182,675.59911 260.13948,681.62064 262.08182,687.25 L 366.23807,687.25 C 368.18041,681.62065 369.23807,675.59911 369.23807,669.3125 C 369.23807,638.90661 344.5502,614.21874 314.14432,614.21875 z"
       id="path3165"
       style="fill:#784421;fill-opacity:1;fill-rule:nonzero;stroke:#000000;stroke-width:4;stroke-linecap:round;stroke-linejoin:round;stroke-miterlimit:4;stroke-dasharray:none;stroke-opacity:1" />
    <path
       d="M 371.41771,413.3978 A 9.4428234,9.4428234 0 1 1 352.53206,413.3978 A 9.4428234,9.4428234 0 1 1 371.41771,413.3978 z"
       transform="matrix(2.1666666,0,0,2.1666666,-441.16569,-478.20554)"
       id="path3177"
       style="fill:#ffffff;fill-opacity:1;fill-rule:nonzero;stroke:#000000;stroke-width:1.84615386;stroke-linecap:round;stroke-linejoin:round;stroke-miterlimit:4;stroke-dasharray:none;stroke-opacity:1" />
    <path
       d="M 371.41771,413.3978 A 9.4428234,9.4428234 0 1 1 352.53206,413.3978 A 9.4428234,9.4428234 0 1 1 371.41771,413.3978 z"
       transform="matrix(2.1666666,0,0,2.1666666,-395.84014,-478.20554)"
       id="path3179"
       style="fill:#ffffff;fill-opacity:1;fill-rule:nonzero;stroke:#000000;stroke-width:1.84615386;stroke-linecap:round;stroke-linejoin:round;stroke-miterlimit:4;stroke-dasharray:none;stroke-opacity:1" />
    <path
       d="M 377.08343,426.93253 A 6.6099763,6.6099763 0 1 1 363.86347,426.93253 A 6.6099763,6.6099763 0 1 1 377.08343,426.93253 z"
       transform="translate(13.005549,-5.5105236)"
       id="path3183"
       style="fill:#000000;fill-opacity:1;fill-rule:nonzero;stroke:none;stroke-width:4;stroke-linecap:round;stroke-linejoin:round;stroke-miterlimit:4;stroke-dasharray:none;stroke-opacity:1" />
    <path
       d="M 347.03754,459.51189 C 351.17881,452.52165 376.59041,452.18585 381.90551,459.0349 C 386.95266,465.53869 374.32553,484.04888 364.47153,483.29087 C 354.64653,482.5351 342.81389,466.64118 347.03754,459.51189 z"
       id="path3192"
       style="fill:#000000;fill-opacity:1;fill-rule:evenodd;stroke:none;stroke-width:1px;stroke-linecap:butt;stroke-linejoin:miter;stroke-opacity:1" />
    <path
       d="M 354,671.86218 A 17.5,17.5 0 1 1 319,671.86218 A 17.5,17.5 0 1 1 354,671.86218 z"
       transform="matrix(0.8428571,0,0,1,10.897888,-0.5)"
       id="path3220"
       style="fill:#502d16;fill-opacity:1;fill-rule:nonzero;stroke:#000000;stroke-width:4;stroke-linecap:round;stroke-linejoin:round;stroke-miterlimit:4;stroke-dasharray:none;stroke-opacity:1" />
    <path
       d="M 354,671.86218 A 17.5,17.5 0 1 1 319,671.86218 A 17.5,17.5 0 1 1 354,671.86218 z"
       transform="matrix(0.8428571,0,0,1,47.897888,-0.5)"
       id="path3224"
       style="fill:#502d16;fill-opacity:1;fill-rule:nonzero;stroke:#000000;stroke-width:4;stroke-linecap:round;stroke-linejoin:round;stroke-miterlimit:4;stroke-dasharray:none;stroke-opacity:1" />
    <path
       d="M 354,671.86218 A 17.5,17.5 0 1 1 319,671.86218 A 17.5,17.5 0 1 1 354,671.86218 z"
       transform="matrix(0.8428571,0,0,1,30.397888,-0.5)"
       id="path3222"
       style="fill:#502d16;fill-opacity:1;fill-rule:nonzero;stroke:#000000;stroke-width:4;stroke-linecap:round;stroke-linejoin:round;stroke-miterlimit:4;stroke-dasharray:none;stroke-opacity:1" />
    <path
       d="M 354,671.86218 A 17.5,17.5 0 1 1 319,671.86218 A 17.5,17.5 0 1 1 354,671.86218 z"
       transform="matrix(0.8428571,0,0,1,124.39789,-0.5)"
       id="path3226"
       style="fill:#502d16;fill-opacity:1;fill-rule:nonzero;stroke:#000000;stroke-width:4;stroke-linecap:round;stroke-linejoin:round;stroke-miterlimit:4;stroke-dasharray:none;stroke-opacity:1" />
    <path
       d="M 354,671.86218 A 17.5,17.5 0 1 1 319,671.86218 A 17.5,17.5 0 1 1 354,671.86218 z"
       transform="matrix(0.8428571,0,0,1,161.39789,-0.5)"
       id="path3228"
       style="fill:#502d16;fill-opacity:1;fill-rule:nonzero;stroke:#000000;stroke-width:4;stroke-linecap:round;stroke-linejoin:round;stroke-miterlimit:4;stroke-dasharray:none;stroke-opacity:1" />
    <path
       d="M 354,671.86218 A 17.5,17.5 0 1 1 319,671.86218 A 17.5,17.5 0 1 1 354,671.86218 z"
       transform="matrix(0.8428571,0,0,1,143.89789,-0.5)"
       id="path3230"
       style="fill:#502d16;fill-opacity:1;fill-rule:nonzero;stroke:#000000;stroke-width:4;stroke-linecap:round;stroke-linejoin:round;stroke-miterlimit:4;stroke-dasharray:none;stroke-opacity:1" />
    <path
       d="M 440.03557,422.84064 A 49.10268,49.10268 0 1 1 341.83021,422.84064 A 49.10268,49.10268 0 1 1 440.03557,422.84064 z"
       transform="matrix(0.4520038,0.121114,-0.121114,0.4520038,275.31834,305.00749)"
       id="path3244"
       style="fill:#000000;fill-opacity:0.31372549;fill-rule:nonzero;stroke:none;stroke-width:8.54794598;stroke-linecap:round;stroke-linejoin:round;stroke-miterlimit:4;stroke-dasharray:none;stroke-opacity:1" />
    <path
       d="M 440.03557,422.84064 A 49.10268,49.10268 0 1 1 341.83021,422.84064 A 49.10268,49.10268 0 1 1 440.03557,422.84064 z"
       transform="matrix(0.4052555,-0.2339743,0.2339743,0.4052555,74.975292,459.09225)"
       id="path3159"
       style="fill:#784421;fill-opacity:1;fill-rule:nonzero;stroke:#000000;stroke-width:8.54794598;stroke-linecap:round;stroke-linejoin:round;stroke-miterlimit:4;stroke-dasharray:none;stroke-opacity:1" />
    <path
       d="M 440.03557,422.84064 A 49.10268,49.10268 0 1 1 341.83021,422.84064 A 49.10268,49.10268 0 1 1 440.03557,422.84064 z"
       transform="matrix(0.3308897,0.3308897,-0.3308897,0.3308897,407.30938,269.10223)"
       id="path3161"
       style="fill:#784421;fill-opacity:1;fill-rule:nonzero;stroke:#000000;stroke-width:8.54794598;stroke-linecap:round;stroke-linejoin:round;stroke-miterlimit:4;stroke-dasharray:none;stroke-opacity:1" />
    <path
       d="M 354,671.86218 A 17.5,17.5 0 1 1 319,671.86218 A 17.5,17.5 0 1 1 354,671.86218 z"
       transform="matrix(0.3913429,-0.2259419,0.2571428,0.4453845,25.537105,327.84484)"
       id="path3264"
       style="fill:#502d16;fill-opacity:1;fill-rule:nonzero;stroke:#000000;stroke-width:7.6176548;stroke-linecap:round;stroke-linejoin:round;stroke-miterlimit:4;stroke-dasharray:none;stroke-opacity:1" />
    <path
       d="M 354,671.86218 A 17.5,17.5 0 1 1 319,671.86218 A 17.5,17.5 0 1 1 354,671.86218 z"
       transform="matrix(0.3913429,-0.2259419,0.2571428,0.4453845,42.716402,317.92636)"
       id="path3266"
       style="fill:#502d16;fill-opacity:1;fill-rule:nonzero;stroke:#000000;stroke-width:7.6176548;stroke-linecap:round;stroke-linejoin:round;stroke-miterlimit:4;stroke-dasharray:none;stroke-opacity:1" />
    <path
       d="M 354,671.86218 A 17.5,17.5 0 1 1 319,671.86218 A 17.5,17.5 0 1 1 354,671.86218 z"
       transform="matrix(0.3913429,-0.2259419,0.2571428,0.4453845,36.591063,327.11754)"
       id="path3268"
       style="fill:#502d16;fill-opacity:1;fill-rule:nonzero;stroke:#000000;stroke-width:7.6176548;stroke-linecap:round;stroke-linejoin:round;stroke-miterlimit:4;stroke-dasharray:none;stroke-opacity:1" />
    <path
       d="M 354,671.86218 A 17.5,17.5 0 1 1 319,671.86218 A 17.5,17.5 0 1 1 354,671.86218 z"
       transform="matrix(-0.3913429,-0.2259419,-0.2571428,0.4453845,704.69056,328.74557)"
       id="path3270"
       style="fill:#502d16;fill-opacity:1;fill-rule:nonzero;stroke:#000000;stroke-width:7.6176548;stroke-linecap:round;stroke-linejoin:round;stroke-miterlimit:4;stroke-dasharray:none;stroke-opacity:1" />
    <path
       d="M 354,671.86218 A 17.5,17.5 0 1 1 319,671.86218 A 17.5,17.5 0 1 1 354,671.86218 z"
       transform="matrix(-0.3913429,-0.2259419,-0.2571428,0.4453845,687.51128,318.8271)"
       id="path3272"
       style="fill:#502d16;fill-opacity:1;fill-rule:nonzero;stroke:#000000;stroke-width:7.6176548;stroke-linecap:round;stroke-linejoin:round;stroke-miterlimit:4;stroke-dasharray:none;stroke-opacity:1" />
    <path
       d="M 354,671.86218 A 17.5,17.5 0 1 1 319,671.86218 A 17.5,17.5 0 1 1 354,671.86218 z"
       transform="matrix(-0.3913429,-0.2259419,-0.2571428,0.4453845,693.63662,328.01828)"
       id="path3274"
       style="fill:#502d16;fill-opacity:1;fill-rule:nonzero;stroke:#000000;stroke-width:7.6176548;stroke-linecap:round;stroke-linejoin:round;stroke-miterlimit:4;stroke-dasharray:none;stroke-opacity:1" />
    <path
       d="M 418.38019,367.63601 C 414.36263,367.63601 410.85467,369.75223 408.85299,372.91548 C 414.99647,377.05352 420.28628,382.33747 424.42063,388.48377 C 427.57388,386.48005 429.67532,382.94184 429.67532,378.93161 C 429.67532,372.69818 424.61336,367.63601 418.38019,367.63601 z"
       id="path2483"
       style="fill:#502d16;fill-opacity:1;fill-rule:nonzero;stroke:#000000;stroke-width:3.99999976;stroke-linecap:round;stroke-linejoin:round;stroke-miterlimit:4;stroke-dasharray:none;stroke-opacity:1" />
    <path
       d="M 377.08343,426.93253 A 6.6099763,6.6099763 0 1 1 363.86347,426.93253 A 6.6099763,6.6099763 0 1 1 377.08343,426.93253 z"
       transform="translate(-21.408717,-5.5105236)"
       id="path2515"
       style="fill:#000000;fill-opacity:1;fill-rule:nonzero;stroke:none;stroke-width:4;stroke-linecap:round;stroke-linejoin:round;stroke-miterlimit:4;stroke-dasharray:none;stroke-opacity:1" />
    <path
       d="M 312.74542,367.63601 C 316.76298,367.63601 320.27094,369.75223 322.27262,372.91548 C 316.12914,377.05352 310.83933,382.33747 306.70498,388.48377 C 303.55173,386.48005 301.45029,382.94184 301.45029,378.93161 C 301.45029,372.69818 306.51225,367.63601 312.74542,367.63601 z"
       id="path2523"
       style="fill:#502d16;fill-opacity:1;fill-rule:nonzero;stroke:#000000;stroke-width:3.99999976;stroke-linecap:round;stroke-linejoin:round;stroke-miterlimit:4;stroke-dasharray:none;stroke-opacity:1" />
    <path
       d="M 217.8125,67.8125 C 218.55447,71.963694 218.9375,76.229892 218.9375,80.59375 C 218.93751,120.72818 186.35318,153.3125 146.21875,153.3125 C 115.58041,153.3125 89.380029,134.30974 78.6875,107.46875 C 84.769671,141.46835 114.47932,167.3125 150.21875,167.3125 C 190.35318,167.3125 222.93751,134.72818 222.9375,94.59375 C 222.9375,85.131264 221.11355,76.103231 217.8125,67.8125 z"
       transform="translate(215.23291,337.26301)"
       id="path2525"
       style="fill:#000000;fill-opacity:0.31372549;fill-rule:nonzero;stroke:none;stroke-width:4.00000048;stroke-linecap:round;stroke-linejoin:round;stroke-miterlimit:4;stroke-dasharray:none;stroke-opacity:1" />
    <path
       d="M 426.91993,430.23552 C 437.7851,425.24046 463.94111,442.95509 462.86697,448.19865 C 447.34701,442.6953 439.6627,442.68954 431.17662,446.1217 C 440.47273,449.98198 450.63945,459.02241 451.22934,468.34371 C 444.77614,462.91396 432.91983,457.80111 420.81156,460.05449 C 426.88734,467.23343 435.12032,473.83436 432.89757,483.2369 C 425.37818,475.26889 417.97365,474.17899 410.55422,472.19701"
       id="path2413"
       style="fill:#784421;fill-opacity:1;fill-rule:evenodd;stroke:#000000;stroke-width:4;stroke-linecap:round;stroke-linejoin:round;stroke-miterlimit:4;stroke-dasharray:none;stroke-opacity:1" />
    <path
       d="M 304.2983,430.23552 C 293.43313,425.24046 267.27712,442.95509 268.35126,448.19865 C 283.87122,442.6953 291.55553,442.68954 300.04161,446.1217 C 290.7455,449.98198 280.57878,459.02241 279.98889,468.34371 C 286.44209,462.91396 298.2984,457.80111 310.40667,460.05449 C 304.33089,467.23343 296.09791,473.83436 298.32066,483.2369 C 305.84005,475.26889 313.24458,474.17899 320.66401,472.19701"
       id="path3197"
       style="fill:#784421;fill-opacity:1;fill-rule:evenodd;stroke:#000000;stroke-width:4;stroke-linecap:round;stroke-linejoin:round;stroke-miterlimit:4;stroke-dasharray:none;stroke-opacity:1" />
    <path
       d="M 354.39355,490.565 C 360.92214,492.79237 370.61927,492.55528 375.60676,490.56501 C 380.72505,488.52255 373.56275,506.43001 371.36412,508.24267 C 369.34913,509.90393 359.94288,509.69114 357.92909,508.24267 C 355.76122,506.68338 348.28614,488.48132 354.39355,490.565 z"
       id="path3225"
       style="fill:#ffffff;fill-opacity:1;fill-rule:evenodd;stroke:#000000;stroke-width:4;stroke-linecap:butt;stroke-linejoin:round;stroke-miterlimit:4;stroke-dasharray:none;stroke-opacity:1" />
  </g>
</svg>
