<?xml version="1.0" encoding="UTF-8" standalone="no"?>
<!-- Created with Inkscape (http://www.inkscape.org/) -->
<svg
   xmlns:svg="http://www.w3.org/2000/svg"
   xmlns="http://www.w3.org/2000/svg"
   version="1.0"
   width="300.45667"
   height="353.4353"
   id="svg2">
  <defs
     id="defs4" />
  <g
     transform="translate(-215.23291,-337.26301)"
     id="layer1">
    <path
       d="M 336,686.86218 C 336,686.86218 232,686.86218 223,686.86218 C 214,686.86218 215.96662,678.97762 225.89295,676.06555 C 235.41851,673.27105 273.21267,666.49848 296.5,663.86218 C 323,660.86218 355.5,658.36218 355.5,658.36218 L 336,686.86218 z"
       id="path3254"
       style="fill:#803300;fill-opacity:1;fill-rule:evenodd;stroke:#000000;stroke-width:4;stroke-linecap:butt;stroke-linejoin:miter;stroke-miterlimit:4;stroke-dasharray:none;stroke-opacity:1" />
    <path
       d="M 344.1875,674.90625 C 332.24071,675.08149 315.00982,675.41128 299.09375,676.09375 C 275.67919,677.09773 237.50993,681.22113 227.8125,683.34375 C 224.65456,684.03498 222.21223,685.24142 220.65625,686.625 C 221.3331,686.76587 222.11298,686.875 223,686.875 C 232,686.875 336,686.875 336,686.875 L 344.1875,674.90625 z"
       id="path3256"
       style="fill:#000000;fill-opacity:0.31372549;fill-rule:evenodd;stroke:none;stroke-width:4;stroke-linecap:butt;stroke-linejoin:miter;stroke-miterlimit:4;stroke-dasharray:none;stroke-opacity:1" />
    <path
       d="M 513.68958,561.9649 A 121.49766,121.49766 0 1 1 270.69427,561.9649 A 121.49766,121.49766 0 1 1 513.68958,561.9649 z"
       id="path2385"
       style="opacity:1;fill:#803300;fill-opacity:1;fill-rule:nonzero;stroke:#000000;stroke-width:4;stroke-linecap:round;stroke-linejoin:round;stroke-miterlimit:4;stroke-dasharray:none;stroke-opacity:1" />
    <path
       d="M 392.1875,440.46875 C 379.26205,440.46875 366.8126,442.50573 355.125,446.25 C 365.63887,443.79455 376.72716,442.46875 388.1875,442.46875 C 419.62502,442.46875 448.29508,452.34684 469.875,468.5625 C 448.81106,451.02119 421.72116,440.46875 392.1875,440.46875 z M 507.25,522.84375 C 508.8443,529.3319 509.6875,536.03096 509.6875,542.90625 C 509.68751,598.34985 455.25421,643.34375 388.1875,643.34375 C 332.10346,643.34377 284.87663,611.88479 270.90625,569.15625 C 274.63036,632.88086 327.53409,683.46873 392.1875,683.46875 C 459.25421,683.46875 513.68751,629.03546 513.6875,561.96875 C 513.6875,548.2862 511.42612,535.11956 507.25,522.84375 z"
       id="path3276"
       style="opacity:1;fill:#000000;fill-opacity:0.31372549;fill-rule:nonzero;stroke:none;stroke-width:4;stroke-linecap:round;stroke-linejoin:round;stroke-miterlimit:4;stroke-dasharray:none;stroke-opacity:1" />
    <path
       d="M 392.1875,440.46875 C 371.46643,440.46875 351.95106,445.65346 334.875,454.8125 C 342.96255,483.0605 366.59383,509.18749 394.5,509.1875 C 421.66796,509.18751 444.82403,484.43634 453.5,457.0625 C 435.50035,446.5147 414.54307,440.46875 392.1875,440.46875 z"
       id="path3236"
       style="opacity:1;fill:#000000;fill-opacity:0.31372549;fill-rule:nonzero;stroke:none;stroke-width:4;stroke-linecap:round;stroke-linejoin:round;stroke-miterlimit:4;stroke-dasharray:none;stroke-opacity:1" />
    <path
       d="M 308.21875,339.28125 C 304.08746,339.28001 301.1479,339.87506 300.28125,341 C 296.53097,345.86801 306.42498,391.45091 332.375,393.25 C 334.04811,393.36599 335.61889,393.37374 337.09375,393.34375 C 332.48901,402.06257 329.875,411.99145 329.875,422.53125 C 329.875,457.10709 357.92416,497.17499 392.5,497.175 C 427.07584,497.175 455.15625,457.10711 455.15625,422.53125 C 455.15625,412.0014 452.53412,402.08788 447.9375,393.375 C 448.99986,393.36576 450.12299,393.3303 451.28125,393.25 C 477.23127,391.45091 487.12528,345.86801 483.375,341 C 479.41317,335.85741 432.18289,341.4111 425.46875,367.4375 C 425.38926,367.59648 425.22846,368.16751 425.0625,369.03125 C 415.57098,363.2388 404.42556,359.875 392.5,359.875 C 380.05407,359.875 368.47157,363.54553 358.71875,369.8125 C 358.5183,368.54287 358.28746,367.63742 358.1875,367.4375 C 352.94206,347.10438 322.97334,339.28568 308.21875,339.28125 z"
       id="path2387"
       style="opacity:1;fill:#803300;fill-opacity:1;fill-rule:nonzero;stroke:#000000;stroke-width:4;stroke-linecap:round;stroke-linejoin:round;stroke-miterlimit:4;stroke-dasharray:none;stroke-opacity:1" />
    <path
       d="M 440.03557,422.84064 A 49.10268,49.10268 0 1 1 341.83021,422.84064 A 49.10268,49.10268 0 1 1 440.03557,422.84064 z"
       transform="matrix(0.4679487,0,0,0.4679487,176.8508,345.79121)"
       id="path3242"
       style="opacity:1;fill:#000000;fill-opacity:0.31372549;fill-rule:nonzero;stroke:none;stroke-width:8.54794598;stroke-linecap:round;stroke-linejoin:round;stroke-miterlimit:4;stroke-dasharray:none;stroke-opacity:1" />
    <path
       d="M 440.03557,422.84064 A 49.10268,49.10268 0 1 1 341.83021,422.84064 A 49.10268,49.10268 0 1 1 440.03557,422.84064 z"
       transform="matrix(0.4679487,0,0,0.4679487,173.05791,341.11964)"
       id="path3159"
       style="opacity:1;fill:#803300;fill-opacity:1;fill-rule:nonzero;stroke:#000000;stroke-width:8.54794598;stroke-linecap:round;stroke-linejoin:round;stroke-miterlimit:4;stroke-dasharray:none;stroke-opacity:1" />
    <path
       d="M 440.03557,422.84064 A 49.10268,49.10268 0 1 1 341.83021,422.84064 A 49.10268,49.10268 0 1 1 440.03557,422.84064 z"
       transform="matrix(0.4679487,0,0,0.4679487,247.91146,346.14477)"
       id="path3244"
       style="opacity:1;fill:#000000;fill-opacity:0.31372549;fill-rule:nonzero;stroke:none;stroke-width:8.54794598;stroke-linecap:round;stroke-linejoin:round;stroke-miterlimit:4;stroke-dasharray:none;stroke-opacity:1" />
    <path
       d="M 440.03557,422.84064 A 49.10268,49.10268 0 1 1 341.83021,422.84064 A 49.10268,49.10268 0 1 1 440.03557,422.84064 z"
       transform="matrix(0.4679487,0,0,0.4679487,244.19385,341.11964)"
       id="path3161"
       style="opacity:1;fill:#803300;fill-opacity:1;fill-rule:nonzero;stroke:#000000;stroke-width:8.54794598;stroke-linecap:round;stroke-linejoin:round;stroke-miterlimit:4;stroke-dasharray:none;stroke-opacity:1" />
    <path
       d="M 451.0625,614.21875 C 420.65661,614.21875 395.96875,638.90661 395.96875,669.3125 C 395.96875,675.59911 397.02641,681.62064 398.96875,687.25 L 503.125,687.25 C 505.06734,681.62065 506.125,675.59911 506.125,669.3125 C 506.125,638.90661 481.46839,614.21874 451.0625,614.21875 z"
       id="path3163"
       style="opacity:1;fill:#803300;fill-opacity:1;fill-rule:nonzero;stroke:#000000;stroke-width:4;stroke-linecap:round;stroke-linejoin:round;stroke-miterlimit:4;stroke-dasharray:none;stroke-opacity:1" />
    <path
       d="M 340.875,614.21875 C 310.46911,614.21875 285.81251,638.90661 285.8125,669.3125 C 285.8125,675.59911 286.87016,681.62064 288.8125,687.25 L 392.96875,687.25 C 394.91109,681.62065 395.96875,675.59911 395.96875,669.3125 C 395.96875,638.90661 371.28088,614.21874 340.875,614.21875 z"
       id="path3165"
       style="opacity:1;fill:#803300;fill-opacity:1;fill-rule:nonzero;stroke:#000000;stroke-width:4;stroke-linecap:round;stroke-linejoin:round;stroke-miterlimit:4;stroke-dasharray:none;stroke-opacity:1" />
    <path
       d="M 371.41771,413.3978 A 9.4428234,9.4428234 0 1 1 352.53206,413.3978 A 9.4428234,9.4428234 0 1 1 371.41771,413.3978 z"
       transform="matrix(2.1666666,0,0,2.1666666,-414.43501,-478.20554)"
       id="path3177"
       style="opacity:1;fill:#ffffff;fill-opacity:1;fill-rule:nonzero;stroke:#000000;stroke-width:1.84615386;stroke-linecap:round;stroke-linejoin:round;stroke-miterlimit:4;stroke-dasharray:none;stroke-opacity:1" />
    <path
       d="M 371.41771,413.3978 A 9.4428234,9.4428234 0 1 1 352.53206,413.3978 A 9.4428234,9.4428234 0 1 1 371.41771,413.3978 z"
       transform="matrix(2.1666666,0,0,2.1666666,-369.10946,-478.20554)"
       id="path3179"
       style="opacity:1;fill:#ffffff;fill-opacity:1;fill-rule:nonzero;stroke:#000000;stroke-width:1.84615386;stroke-linecap:round;stroke-linejoin:round;stroke-miterlimit:4;stroke-dasharray:none;stroke-opacity:1" />
    <path
       d="M 377.08343,426.93253 A 6.6099763,6.6099763 0 1 1 363.86347,426.93253 A 6.6099763,6.6099763 0 1 1 377.08343,426.93253 z"
       transform="translate(6.9066509,-6.9247372)"
       id="path3181"
       style="opacity:1;fill:#000000;fill-opacity:1;fill-rule:nonzero;stroke:none;stroke-width:4;stroke-linecap:round;stroke-linejoin:round;stroke-miterlimit:4;stroke-dasharray:none;stroke-opacity:1" />
    <path
       d="M 377.08343,426.93253 A 6.6099763,6.6099763 0 1 1 363.86347,426.93253 A 6.6099763,6.6099763 0 1 1 377.08343,426.93253 z"
       transform="translate(37.141772,-6.9247372)"
       id="path3183"
       style="opacity:1;fill:#000000;fill-opacity:1;fill-rule:nonzero;stroke:none;stroke-width:4;stroke-linecap:round;stroke-linejoin:round;stroke-miterlimit:4;stroke-dasharray:none;stroke-opacity:1" />
    <path
       d="M 381.92923,456.76625 C 385.26778,453.20514 399.44165,452.43178 402.40562,457.21139 C 405.36959,461.991 397.95424,471.90097 392.16743,471.45583 C 386.39766,471.012 378.80585,460.09786 381.92923,456.76625 z"
       id="path3192"
       style="fill:#000000;fill-opacity:1;fill-rule:evenodd;stroke:none;stroke-width:1px;stroke-linecap:butt;stroke-linejoin:miter;stroke-opacity:1" />
    <path
       d="M 359.45681,583.36862 C 394.0805,602.25426 424.92705,582.10958 424.92705,582.10958"
       id="path3194"
       style="fill:#000000;fill-opacity:0.31372549;fill-rule:evenodd;stroke:#000000;stroke-width:4;stroke-linecap:round;stroke-linejoin:miter;stroke-miterlimit:4;stroke-dasharray:none;stroke-opacity:1" />
    <path
       d="M 344.66305,384.12505 C 342.45973,352.33421 309.72461,345.09471 308.1508,348.87184 C 306.577,352.64897 314.13126,395.14167 344.66305,384.12505 z"
       id="path3216"
       style="fill:#552200;fill-opacity:1;fill-rule:evenodd;stroke:#000000;stroke-width:4;stroke-linecap:butt;stroke-linejoin:round;stroke-miterlimit:4;stroke-dasharray:none;stroke-opacity:1" />
    <path
       d="M 437.95159,384.12505 C 440.15491,352.33421 472.89003,345.09471 474.46384,348.87184 C 476.03764,352.64897 468.48338,395.14167 437.95159,384.12505 z"
       id="path3218"
       style="fill:#552200;fill-opacity:1;fill-rule:evenodd;stroke:#000000;stroke-width:4;stroke-linecap:butt;stroke-linejoin:round;stroke-miterlimit:4;stroke-dasharray:none;stroke-opacity:1" />
    <path
       d="M 354,671.86218 A 17.5,17.5 0 1 1 319,671.86218 A 17.5,17.5 0 1 1 354,671.86218 z"
       transform="matrix(0.8428571,0,0,1,37.628571,-0.5)"
       id="path3220"
       style="opacity:1;fill:#552200;fill-opacity:1;fill-rule:nonzero;stroke:#000000;stroke-width:4;stroke-linecap:round;stroke-linejoin:round;stroke-miterlimit:4;stroke-dasharray:none;stroke-opacity:1" />
    <path
       d="M 354,671.86218 A 17.5,17.5 0 1 1 319,671.86218 A 17.5,17.5 0 1 1 354,671.86218 z"
       transform="matrix(0.8428571,0,0,1,74.628571,-0.5)"
       id="path3224"
       style="opacity:1;fill:#552200;fill-opacity:1;fill-rule:nonzero;stroke:#000000;stroke-width:4;stroke-linecap:round;stroke-linejoin:round;stroke-miterlimit:4;stroke-dasharray:none;stroke-opacity:1" />
    <path
       d="M 354,671.86218 A 17.5,17.5 0 1 1 319,671.86218 A 17.5,17.5 0 1 1 354,671.86218 z"
       transform="matrix(0.8428571,0,0,1,57.128571,-0.5)"
       id="path3222"
       style="opacity:1;fill:#552200;fill-opacity:1;fill-rule:nonzero;stroke:#000000;stroke-width:4;stroke-linecap:round;stroke-linejoin:round;stroke-miterlimit:4;stroke-dasharray:none;stroke-opacity:1" />
    <path
       d="M 354,671.86218 A 17.5,17.5 0 1 1 319,671.86218 A 17.5,17.5 0 1 1 354,671.86218 z"
       transform="matrix(0.8428571,0,0,1,151.12857,-0.5)"
       id="path3226"
       style="opacity:1;fill:#552200;fill-opacity:1;fill-rule:nonzero;stroke:#000000;stroke-width:4;stroke-linecap:round;stroke-linejoin:round;stroke-miterlimit:4;stroke-dasharray:none;stroke-opacity:1" />
    <path
       d="M 354,671.86218 A 17.5,17.5 0 1 1 319,671.86218 A 17.5,17.5 0 1 1 354,671.86218 z"
       transform="matrix(0.8428571,0,0,1,188.12857,-0.5)"
       id="path3228"
       style="opacity:1;fill:#552200;fill-opacity:1;fill-rule:nonzero;stroke:#000000;stroke-width:4;stroke-linecap:round;stroke-linejoin:round;stroke-miterlimit:4;stroke-dasharray:none;stroke-opacity:1" />
    <path
       d="M 354,671.86218 A 17.5,17.5 0 1 1 319,671.86218 A 17.5,17.5 0 1 1 354,671.86218 z"
       transform="matrix(0.8428571,0,0,1,170.62857,-0.5)"
       id="path3230"
       style="opacity:1;fill:#552200;fill-opacity:1;fill-rule:nonzero;stroke:#000000;stroke-width:4;stroke-linecap:round;stroke-linejoin:round;stroke-miterlimit:4;stroke-dasharray:none;stroke-opacity:1" />
    <path
       d="M 450.21875,398.28125 C 451.35967,402.99584 451.96875,407.93567 451.96875,413 C 451.96875,447.57586 423.88834,487.625 389.3125,487.625 C 364.11133,487.62499 342.4017,466.33693 332.46875,441.40625 C 340.16071,470.19058 364.12915,497.18749 392.5,497.1875 C 427.07584,497.18751 455.15625,457.10711 455.15625,422.53125 C 455.15625,413.92733 453.39807,405.74333 450.25,398.28125 L 450.21875,398.28125 z"
       id="path3246"
       style="opacity:1;fill:#000000;fill-opacity:0.31372549;fill-rule:nonzero;stroke:none;stroke-width:4;stroke-linecap:round;stroke-linejoin:round;stroke-miterlimit:4;stroke-dasharray:none;stroke-opacity:1" />
    <path
       d="M 354,671.86218 A 17.5,17.5 0 1 1 319,671.86218 A 17.5,17.5 0 1 1 354,671.86218 z"
       transform="matrix(0.3913429,-0.2259419,0.2571428,0.4453845,48.208881,328.11388)"
       id="path3264"
       style="opacity:1;fill:#552200;fill-opacity:1;fill-rule:nonzero;stroke:#000000;stroke-width:7.6176548;stroke-linecap:round;stroke-linejoin:round;stroke-miterlimit:4;stroke-dasharray:none;stroke-opacity:1" />
    <path
       d="M 354,671.86218 A 17.5,17.5 0 1 1 319,671.86218 A 17.5,17.5 0 1 1 354,671.86218 z"
       transform="matrix(0.3913429,-0.2259419,0.2571428,0.4453845,65.388175,318.19541)"
       id="path3266"
       style="opacity:1;fill:#552200;fill-opacity:1;fill-rule:nonzero;stroke:#000000;stroke-width:7.6176548;stroke-linecap:round;stroke-linejoin:round;stroke-miterlimit:4;stroke-dasharray:none;stroke-opacity:1" />
    <path
       d="M 354,671.86218 A 17.5,17.5 0 1 1 319,671.86218 A 17.5,17.5 0 1 1 354,671.86218 z"
       transform="matrix(0.3913429,-0.2259419,0.2571428,0.4453845,59.262838,327.38658)"
       id="path3268"
       style="opacity:1;fill:#552200;fill-opacity:1;fill-rule:nonzero;stroke:#000000;stroke-width:7.6176548;stroke-linecap:round;stroke-linejoin:round;stroke-miterlimit:4;stroke-dasharray:none;stroke-opacity:1" />
    <path
       d="M 354,671.86218 A 17.5,17.5 0 1 1 319,671.86218 A 17.5,17.5 0 1 1 354,671.86218 z"
       transform="matrix(-0.3913429,-0.2259419,-0.2571428,0.4453845,735.79099,328.11388)"
       id="path3270"
       style="opacity:1;fill:#552200;fill-opacity:1;fill-rule:nonzero;stroke:#000000;stroke-width:7.6176548;stroke-linecap:round;stroke-linejoin:round;stroke-miterlimit:4;stroke-dasharray:none;stroke-opacity:1" />
    <path
       d="M 354,671.86218 A 17.5,17.5 0 1 1 319,671.86218 A 17.5,17.5 0 1 1 354,671.86218 z"
       transform="matrix(-0.3913429,-0.2259419,-0.2571428,0.4453845,718.6117,318.19541)"
       id="path3272"
       style="opacity:1;fill:#552200;fill-opacity:1;fill-rule:nonzero;stroke:#000000;stroke-width:7.6176548;stroke-linecap:round;stroke-linejoin:round;stroke-miterlimit:4;stroke-dasharray:none;stroke-opacity:1" />
    <path
       d="M 354,671.86218 A 17.5,17.5 0 1 1 319,671.86218 A 17.5,17.5 0 1 1 354,671.86218 z"
       transform="matrix(-0.3913429,-0.2259419,-0.2571428,0.4453845,724.73704,327.38658)"
       id="path3274"
       style="opacity:1;fill:#552200;fill-opacity:1;fill-rule:nonzero;stroke:#000000;stroke-width:7.6176548;stroke-linecap:round;stroke-linejoin:round;stroke-miterlimit:4;stroke-dasharray:none;stroke-opacity:1" />
  </g>
</svg>
