<?xml version="1.0" encoding="UTF-8" standalone="no"?>
<!-- Created with Inkscape (http://www.inkscape.org/) -->
<svg
   xmlns:svg="http://www.w3.org/2000/svg"
   xmlns="http://www.w3.org/2000/svg"
   version="1.0"
   width="477.63321"
   height="231.88997"
   id="svg2">
  <defs
     id="defs4" />
  <path
     d="M 374.99477,81.022154 C 362.39154,98.33647 339.84826,106.72784 324.64294,99.764819 C 309.43761,92.80179 307.32819,73.12112 319.93142,55.806805 C 332.53464,38.492489 355.07792,30.101114 370.28325,37.064143 C 385.48857,44.027168 387.59799,63.707839 374.99477,81.022154 z"
     id="path3183"
     style="fill:#698000;fill-opacity:1;fill-rule:nonzero;stroke:#000000;stroke-width:3.99999976;stroke-linecap:round;stroke-linejoin:round;stroke-miterlimit:4;stroke-dasharray:none;stroke-opacity:1" />
  <path
     d="M 379.66169,45.10872 C 380.21965,52.84833 377.55743,61.70074 371.50544,70.01497 C 358.90872,87.32035 336.32792,95.72441 321.13044,88.76497 C 317.05552,86.89893 313.94864,84.10798 311.78669,80.70247 C 312.38172,89.08549 316.72495,96.14478 324.63044,99.76497 C 339.82792,106.72441 362.40872,98.32035 375.00544,81.01497 C 384.22258,68.35246 385.55833,54.40412 379.66169,45.10872 z"
     id="path3294"
     style="fill:#000000;fill-opacity:0.31372549;fill-rule:nonzero;stroke:none;stroke-width:3.99999976;stroke-linecap:round;stroke-linejoin:round;stroke-miterlimit:4;stroke-dasharray:none;stroke-opacity:1" />
  <path
     d="M 95.192224,81.022154 C 107.79545,98.33647 130.33873,106.72784 145.54405,99.764819 C 160.74938,92.80179 162.8588,73.12112 150.25557,55.806805 C 137.65235,38.492489 115.10907,30.101114 99.903739,37.064143 C 84.698418,44.027168 82.588999,63.707839 95.192224,81.022154 z"
     id="path3181"
     style="fill:#698000;fill-opacity:1;fill-rule:nonzero;stroke:#000000;stroke-width:3.99999976;stroke-linecap:round;stroke-linejoin:round;stroke-miterlimit:4;stroke-dasharray:none;stroke-opacity:1" />
  <path
     d="M 87.005439,56.95247 C 86.692759,64.4879 89.360499,73.00236 95.192939,81.01497 C 107.78967,98.32035 130.33921,106.72441 145.53669,99.76497 C 158.11828,94.00344 161.71959,79.52626 155.44294,64.88997 C 155.0803,73.62933 150.69754,81.02784 142.53669,84.76497 C 127.33921,91.72441 104.78967,83.32035 92.192939,66.01497 C 90.024709,63.03625 88.310439,59.99556 87.005439,56.95247 z"
     id="path3299"
     style="fill:#000000;fill-opacity:0.31372549;fill-rule:nonzero;stroke:none;stroke-width:3.99999976;stroke-linecap:round;stroke-linejoin:round;stroke-miterlimit:4;stroke-dasharray:none;stroke-opacity:1" />
  <path
     d="M 364.77494,97.37251 C 364.77494,150.04529 307.70104,192.74502 237.29682,192.74502 C 166.8926,192.74502 109.8187,150.04529 109.8187,97.37251 C 109.8187,44.69973 166.8926,2 237.29682,2 C 307.70104,2 364.77494,44.69973 364.77494,97.37251 z"
     id="path2383"
     style="fill:#004000;fill-opacity:1;fill-rule:nonzero;stroke:#000000;stroke-width:4;stroke-linecap:round;stroke-linejoin:round;stroke-miterlimit:4;stroke-dasharray:none;stroke-opacity:1" />
  <path
     d="M 110.15625,90.625 C 109.94794,92.854305 109.8125,95.106068 109.8125,97.375 C 109.8125,150.04778 166.87704,192.74999 237.28125,192.75 C 307.68547,192.75 364.78126,150.04778 364.78125,97.375 C 364.78125,95.106068 364.64581,92.854305 364.4375,90.625 C 359.80996,140.14855 304.65274,179.25 237.28125,179.25 C 169.90977,179.24999 114.7838,140.14855 110.15625,90.625 z"
     id="path2432"
     style="fill:#808000;fill-opacity:1;fill-rule:nonzero;stroke:#000000;stroke-width:4;stroke-linecap:round;stroke-linejoin:round;stroke-miterlimit:4;stroke-dasharray:none;stroke-opacity:1" />
  <path
     d="M 354.38044,59.63997 C 356.26678,66.1632 357.28669,72.91513 357.28669,79.85872 C 357.28669,132.50435 300.15461,175.23372 229.78669,175.23372 C 177.33579,175.23373 132.28277,151.49943 112.72419,117.60872 C 125.1463,160.53761 176.20584,192.73373 237.28669,192.73372 C 307.65461,192.73372 364.78669,150.00435 364.78669,97.35872 C 364.78669,83.95413 361.06157,71.21691 354.38044,59.63997 z"
     id="path3234"
     style="fill:#000000;fill-opacity:0.31372549;fill-rule:nonzero;stroke:none;stroke-width:4;stroke-linecap:round;stroke-linejoin:round;stroke-miterlimit:4;stroke-dasharray:none;stroke-opacity:1" />
  <path
     d="M 336.22419,147.62715 C 356.72419,163.12715 431.72419,119.12715 467.72419,133.62715 C 503.72419,148.12715 408.22419,216.12715 354.22419,208.12715 C 300.22419,200.12715 317.22419,157.62715 317.22419,157.62715 C 324.77845,140.63006 336.22419,147.62715 336.22419,147.62715 z"
     id="path3175"
     style="fill:#698000;fill-opacity:1;fill-rule:evenodd;stroke:#000000;stroke-width:4;stroke-linecap:butt;stroke-linejoin:miter;stroke-miterlimit:4;stroke-dasharray:none;stroke-opacity:1" />
  <path
     d="M 298.67516,164.73133 C 298.67516,197.91719 248.48457,229.88681 238.55585,229.88681 C 227.9988,229.88681 178.43655,197.91719 178.43655,164.73133 C 178.43655,131.54547 205.37,104.61202 238.55585,104.61202 C 271.74171,104.61202 298.67516,131.54547 298.67516,164.73133 z"
     id="path3157"
     style="fill:#698000;fill-opacity:1;fill-rule:nonzero;stroke:#000000;stroke-width:4;stroke-linecap:round;stroke-linejoin:round;stroke-miterlimit:4;stroke-opacity:1" />
  <path
     d="M 233.80007,157.48298 C 233.80007,167.21789 225.90837,175.10959 216.17347,175.10959 C 206.43856,175.10959 198.54686,167.21789 198.54686,157.48298 C 198.54686,147.74807 206.43856,139.85638 216.17347,139.85638 C 225.90837,139.85638 233.80007,147.74807 233.80007,157.48298 z"
     id="path3159"
     style="fill:#ffffff;fill-opacity:1;fill-rule:nonzero;stroke:#000000;stroke-width:4;stroke-linecap:round;stroke-linejoin:round;stroke-miterlimit:4;stroke-dasharray:none;stroke-opacity:1" />
  <path
     d="M 226.87533,163.11706 C 226.87533,166.24613 224.33871,168.78275 221.20964,168.78275 C 218.08056,168.78275 215.54394,166.24613 215.54394,163.11706 C 215.54394,159.98798 218.08056,157.45136 221.20964,157.45136 C 224.33871,157.45136 226.87533,159.98798 226.87533,163.11706 z"
     id="path3163"
     style="fill:#000000;fill-opacity:1;fill-rule:nonzero;stroke:none;stroke-width:4;stroke-linecap:round;stroke-linejoin:round;stroke-miterlimit:4;stroke-dasharray:none;stroke-opacity:1" />
  <path
     d="M 297.09919,151.13997 C 297.1358,152.00053 297.16169,152.8642 297.16169,153.73372 C 297.1617,186.91957 246.99666,218.88997 237.06794,218.88997 C 227.61132,218.88998 186.83634,193.24645 178.44294,164.04622 C 178.44035,164.27597 178.44294,164.50336 178.44294,164.73372 C 178.44294,197.91958 228.01088,229.88998 238.56794,229.88997 C 248.49666,229.88997 298.6617,197.91957 298.66169,164.73372 C 298.66169,160.06046 298.10965,155.5075 297.09919,151.13997 z"
     id="path3289"
     style="fill:#000000;fill-opacity:0.31372549;fill-rule:nonzero;stroke:none;stroke-width:4;stroke-linecap:round;stroke-linejoin:round;stroke-miterlimit:4;stroke-opacity:1" />
  <path
     d="M 239.06794,188.60872 C 226.36499,188.6205 210.21281,197.39485 204.66169,209.88997 C 218.33601,221.9647 233.30645,229.88998 238.56794,229.88997 C 243.61926,229.88997 259.08544,221.60869 273.06794,209.10872 C 267.31479,197.0345 251.77089,188.59694 239.06794,188.60872 z"
     id="path3168"
     style="fill:#808000;fill-opacity:1;fill-rule:nonzero;stroke:#000000;stroke-width:4;stroke-linecap:round;stroke-linejoin:round;stroke-miterlimit:4;stroke-opacity:1" />
  <path
     d="M 259.09919,194.60872 C 256.44123,210.14406 246.61771,222.89626 233.50544,228.63997 C 235.61432,229.43544 237.3555,229.88997 238.56794,229.88997 C 243.61926,229.88997 259.08544,221.60869 273.06794,209.10872 C 270.26072,203.21717 265.10109,198.20946 259.09919,194.60872 z"
     id="path3229"
     style="fill:#000000;fill-opacity:0.31372549;fill-rule:nonzero;stroke:none;stroke-width:4;stroke-linecap:round;stroke-linejoin:round;stroke-miterlimit:4;stroke-opacity:1" />
  <path
     d="M 473.69294,137.76497 C 461.61201,162.61327 395.68756,201.28269 354.22419,195.13997 C 339.63831,192.9791 330.2457,188.28848 324.28669,182.60872 C 318.42582,168.36693 324.76892,158.85628 324.76892,158.85628 C 329.97653,147.13919 338.81115,151.42355 342.69294,152.35872 L 342.69294,150.38997 C 340.17221,149.86648 337.99285,148.97725 336.22419,147.63997 C 336.22419,147.63997 334.04017,146.28583 330.94294,146.20247 C 330.69406,146.19577 330.45291,146.19149 330.19294,146.20247 C 326.29333,146.36713 321.20788,148.67666 317.22419,157.63997 C 317.22419,157.63997 315.96621,160.81683 315.22419,165.57747 C 315.16561,165.95329 315.11913,166.33874 315.06794,166.73372 C 315.00957,167.18099 314.95825,167.60768 314.91169,168.07747 C 314.82483,168.95746 314.75657,169.87963 314.72419,170.82747 C 314.70841,171.28938 314.69281,171.75829 314.69294,172.23372 C 314.69308,172.72888 314.70464,173.22579 314.72419,173.73372 C 314.73989,174.14154 314.7572,174.53754 314.78669,174.95247 C 314.86371,176.05942 315.00313,177.1827 315.19294,178.32747 C 315.25547,178.70206 315.30428,179.07517 315.38044,179.45247 C 315.42488,179.67377 315.48736,179.88667 315.53669,180.10872 C 315.61952,180.47957 315.72088,180.86129 315.81794,181.23372 C 315.8748,181.45278 315.94346,181.67053 316.00544,181.88997 C 316.06664,182.10614 316.12663,182.3298 316.19294,182.54622 C 316.24725,182.72374 316.29136,182.89986 316.34919,183.07747 C 316.47593,183.46644 316.61124,183.84482 316.75544,184.23372 C 316.98632,184.85857 317.22682,185.4864 317.50544,186.10872 C 317.79024,186.74485 318.10474,187.35332 318.44294,187.98372 C 318.76608,188.58604 319.13037,189.2019 319.50544,189.79622 C 319.54228,189.85444 319.56184,189.92559 319.59919,189.98372 C 319.8917,190.44008 320.21166,190.87743 320.53669,191.32747 C 320.65847,191.4958 320.78523,191.66014 320.91169,191.82747 C 321.31547,192.36265 321.73965,192.89768 322.19294,193.42122 C 322.70244,194.00968 323.24264,194.56904 323.81794,195.13997 C 324.96181,196.27515 326.2374,197.37308 327.66169,198.42122 C 329.04448,199.43882 330.58326,200.41383 332.25544,201.32747 C 332.36955,201.38979 332.48367,201.45319 332.59919,201.51497 C 333.39979,201.94336 334.22941,202.36372 335.09919,202.76497 C 340.18977,205.11339 346.45717,206.9893 354.22419,208.13997 C 404.16038,215.53792 489.58698,157.94192 473.69294,137.76497 z"
     id="path3239"
     style="fill:#000000;fill-opacity:0.31372549;fill-rule:evenodd;stroke:none;stroke-width:4;stroke-linecap:butt;stroke-linejoin:miter;stroke-miterlimit:4;stroke-dasharray:none;stroke-opacity:1" />
  <path
     d="M 141.40902,147.62715 C 120.90902,163.12715 45.909019,119.12715 9.909019,133.62715 C -26.090984,148.12715 69.409019,216.12715 123.40902,208.12715 C 177.40902,200.12715 160.40902,157.62715 160.40902,157.62715 C 152.85476,140.63006 141.40902,147.62715 141.40902,147.62715 z"
     id="path3244"
     style="fill:#698000;fill-opacity:1;fill-rule:evenodd;stroke:#000000;stroke-width:4;stroke-linecap:butt;stroke-linejoin:miter;stroke-miterlimit:4;stroke-dasharray:none;stroke-opacity:1" />
  <path
     d="M 3.940266,137.76497 C 16.021199,162.61327 81.945649,201.28269 123.40902,195.13997 C 151.42239,190.98984 160.32481,177.54683 162.40902,165.57747 C 164.3909,178.27338 162.6751,202.32277 123.40902,208.13997 C 73.472829,215.53792 -11.953774,157.94192 3.940266,137.76497 z"
     id="path3246"
     style="fill:#000000;fill-opacity:0.31372549;fill-rule:evenodd;stroke:none;stroke-width:4;stroke-linecap:butt;stroke-linejoin:miter;stroke-miterlimit:4;stroke-dasharray:none;stroke-opacity:1" />
  <path
     d="M 221.22419,86.62715 L 286.22419,84.62715 L 300.22419,53.12715 L 258.72419,25.12715 L 214.72419,57.12715 L 221.22419,86.62715 z"
     id="path3274"
     style="fill:#ffffff;fill-opacity:0.15686275;fill-rule:evenodd;stroke:#000000;stroke-width:4;stroke-linecap:butt;stroke-linejoin:miter;stroke-miterlimit:4;stroke-dasharray:none;stroke-opacity:1" />
  <path
     d="M 153.06794,25.82747 C 138.12512,35.68156 126.2702,48.09614 118.78669,62.17122 L 129.75544,82.17122 L 160.50544,68.26497 L 156.19294,25.98372 L 153.06794,25.82747 z"
     id="path3278"
     style="fill:#ffffff;fill-opacity:0.19607843;fill-rule:evenodd;stroke:#000000;stroke-width:4;stroke-linecap:butt;stroke-linejoin:miter;stroke-miterlimit:4;stroke-dasharray:none;stroke-opacity:1" />
  <path
     d="M 273.22419,35.12715 L 299.72419,52.62715 L 313.72419,46.12715 L 305.72419,26.12715 L 280.72419,18.12715 L 273.22419,35.12715 z"
     id="path3285"
     style="fill:#ffffff;fill-opacity:0.07843137;fill-rule:evenodd;stroke:#000000;stroke-width:4;stroke-linecap:butt;stroke-linejoin:miter;stroke-miterlimit:4;stroke-dasharray:none;stroke-opacity:1" />
  <path
     d="M 129.21875,83.625 L 114.71875,100.625 L 119.125,119.65625 C 120.59283,122.36943 122.21722,125.01141 124,127.59375 L 152.71875,136.125 L 151.71875,108.625 L 129.21875,83.625 z"
     id="path3287"
     style="fill:#ffffff;fill-opacity:0.07843137;fill-rule:evenodd;stroke:#000000;stroke-width:4;stroke-linecap:butt;stroke-linejoin:miter;stroke-miterlimit:4;stroke-dasharray:none;stroke-opacity:1" />
  <path
     d="M 278.70135,157.48298 C 278.70135,167.21789 270.80965,175.10959 261.07475,175.10959 C 251.33984,175.10959 243.44814,167.21789 243.44814,157.48298 C 243.44814,147.74807 251.33984,139.85638 261.07475,139.85638 C 270.80965,139.85638 278.70135,147.74807 278.70135,157.48298 z"
     id="path3304"
     style="fill:#ffffff;fill-opacity:1;fill-rule:nonzero;stroke:#000000;stroke-width:4;stroke-linecap:round;stroke-linejoin:round;stroke-miterlimit:4;stroke-dasharray:none;stroke-opacity:1" />
  <path
     d="M 261.87712,163.11706 C 261.87712,166.24613 259.34051,168.78275 256.21143,168.78275 C 253.08235,168.78275 250.54573,166.24613 250.54573,163.11706 C 250.54573,159.98798 253.08235,157.45136 256.21143,157.45136 C 259.34051,157.45136 261.87712,159.98798 261.87712,163.11706 z"
     id="path3306"
     style="fill:#000000;fill-opacity:1;fill-rule:nonzero;stroke:none;stroke-width:4;stroke-linecap:round;stroke-linejoin:round;stroke-miterlimit:4;stroke-dasharray:none;stroke-opacity:1" />
  <path
     d="M 318,127.88997 L 346,120.88997 L 334.5,83.889969 L 310,82.389969 L 293.5,102.38997 L 318,127.88997 z"
     id="path3222"
     style="fill:#ffffff;fill-opacity:0.07843137;fill-rule:evenodd;stroke:#000000;stroke-width:4;stroke-linecap:butt;stroke-linejoin:miter;stroke-miterlimit:4;stroke-dasharray:none;stroke-opacity:1" />
  <path
     d="M 220,86.389969 L 193,105.38997 L 177,92.889969 L 190,61.389969 L 214.5,56.889969 L 220,86.389969 z"
     id="path3224"
     style="fill:#ffffff;fill-opacity:0.07843137;fill-rule:evenodd;stroke:#000000;stroke-width:4;stroke-linecap:butt;stroke-linejoin:miter;stroke-miterlimit:4;stroke-dasharray:none;stroke-opacity:1" />
  <path
     d="M 234,2.03125 C 216.94962,2.354431 200.75364,5.2033869 186,10.0625 L 182,24.875 L 215.5,32.875 L 242.5,9.875 L 234.28125,2.03125 C 234.18749,2.0328748 234.09371,2.0294738 234,2.03125 z"
     id="path3228"
     style="fill:#ffffff;fill-opacity:0.11764706;fill-rule:evenodd;stroke:#000000;stroke-width:4;stroke-linecap:butt;stroke-linejoin:miter;stroke-miterlimit:4;stroke-dasharray:none;stroke-opacity:1" />
</svg>
